<svg width="48" height="48" viewBox="0 0 48 48" fill="none" xmlns="http://www.w3.org/2000/svg">
<circle cx="24" cy="24" r="19.5" stroke="#FF844F"/>
<path d="M28.7786 43.1054C18.3924 43.1054 9.97266 34.5521 9.97266 24.001C9.97266 13.4498 18.3924 4.89648 28.7786 4.89648" stroke="#FF844F"/>
<path d="M19.2214 43.1054C29.6076 43.1054 38.0273 34.5521 38.0273 24.001C38.0273 13.4498 29.6076 4.89648 19.2214 4.89648" stroke="#FF844F"/>
<path d="M43.6999 23.9985C43.6999 21.1958 34.8792 18.9238 23.9984 18.9238C13.1175 18.9238 4.29687 21.1958 4.29687 23.9985" stroke="#FF844F"/>
<path d="M43.6999 24.0015C43.6999 26.8042 34.8792 29.0762 23.9984 29.0762C13.1175 29.0762 4.29687 26.8042 4.29687 24.0015" stroke="#FF844F"/>
<line x1="24.2031" y1="5.78906" x2="24.2031" y2="42.5055" stroke="#FF844F"/>
</svg>
