<svg width="152" height="32" viewBox="0 0 152 32" fill="none" xmlns="http://www.w3.org/2000/svg">
<g clip-path="url(#clip0_1560_372430)">
<path d="M44.7158 0.00195312C40.7282 0.00195312 38.4531 2.26007 38.4531 5.99836C38.4531 9.61946 40.729 11.9569 44.6384 11.9569C48.237 11.9569 50.3368 10.1076 50.6872 7.16754H47.9642C47.7107 8.84244 46.6802 9.85476 44.6578 9.85476C42.4214 9.85476 41.0987 8.55084 41.0987 5.97989C41.0987 3.40895 42.285 2.10503 44.6578 2.10503C46.6027 2.10503 47.6139 3.07767 47.8858 4.77194H50.5894C50.2392 1.9297 48.3918 0.00195312 44.7158 0.00195312Z" fill="#DDE1E6"/>
<path fill-rule="evenodd" clip-rule="evenodd" d="M57.6495 11.9569C61.4612 11.9569 63.7951 9.63975 63.7951 5.94021C63.7951 2.08565 61.2473 0.00195312 57.6495 0.00195312C53.838 0.00195312 51.5039 2.16409 51.5039 6.01865C51.5039 9.87322 54.0517 11.9569 57.6495 11.9569ZM57.6495 2.1041C59.7503 2.1041 61.1505 3.33052 61.1505 6.01773C61.1505 8.6265 59.8665 9.85292 57.6495 9.85292C55.5489 9.85292 54.1485 8.54807 54.1485 5.93929C54.1485 3.33052 55.4327 2.1041 57.6495 2.1041Z" fill="#DDE1E6"/>
<path d="M67.8188 0.194712H65.2129V11.7612H67.8188V3.91454C68.5001 2.6097 69.4329 2.00618 70.9308 2.00618C72.7975 2.00618 73.7507 2.86347 73.7507 4.73216V11.7603H76.3566V4.36118C76.3566 1.59646 74.8401 0 72.1559 0C69.7833 0 68.4798 1.22733 67.8188 3.27134V0.194712Z" fill="#DDE1E6"/>
<path d="M80.1703 8.21678H77.4473C77.7386 10.5339 79.4706 11.956 83.2049 11.956C86.9389 11.956 88.5143 10.4177 88.5143 8.35428C88.5143 6.6028 87.6783 5.39484 85.1498 5.10323L81.6682 4.69443C80.6377 4.57723 80.2681 4.16843 80.2681 3.48739C80.2681 2.66979 80.8901 2.04689 82.874 2.04689C84.8577 2.04689 85.5378 2.70854 85.6937 3.72086H88.3973C88.0663 1.52089 86.6458 0.00195312 82.9514 0.00195312C79.2569 0.00195312 77.7589 1.57903 77.7589 3.64243C77.7589 5.45297 78.7121 6.54374 81.2599 6.83534L84.605 7.22476C85.714 7.36134 86.0052 7.82828 86.0052 8.45118C86.0052 9.28815 85.2466 9.91105 83.2629 9.91105C81.2793 9.91105 80.3842 9.36567 80.1703 8.21678Z" fill="#DDE1E6"/>
<path fill-rule="evenodd" clip-rule="evenodd" d="M89.5059 6.0167C89.5059 9.40432 91.6065 11.955 95.5353 11.955C98.8223 11.955 100.845 10.3973 101.428 8.02197H98.7633C98.3743 9.17085 97.3825 9.85189 95.6127 9.85189C93.6483 9.85189 92.3846 8.70299 92.1513 6.6396H101.506C101.525 2.58939 99.7745 0 95.5547 0C91.7614 0 89.5059 2.43437 89.5059 6.0167ZM98.7633 4.86781H92.19C92.5211 3.0185 93.7267 2.04494 95.5353 2.04494C97.5964 2.04494 98.5883 3.15416 98.7633 4.86781Z" fill="#DDE1E6"/>
<path d="M105.393 0.194712H102.787V11.7612H105.393V3.91454C106.074 2.6097 107.007 2.00618 108.505 2.00618C110.372 2.00618 111.325 2.86347 111.325 4.73216V11.7603H113.931V4.36118C113.931 1.59646 112.414 0 109.73 0C107.357 0 106.054 1.22733 105.393 3.27134V0.194712Z" fill="#DDE1E6"/>
<path d="M117.744 8.21678H115.021C115.313 10.5339 117.045 11.956 120.779 11.956C124.513 11.956 126.088 10.4177 126.088 8.35428C126.088 6.6028 125.252 5.39484 122.724 5.10323L119.242 4.69443C118.212 4.57723 117.842 4.16843 117.842 3.48739C117.842 2.66979 118.464 2.04689 120.448 2.04689C122.432 2.04689 123.112 2.70854 123.268 3.72086H125.971C125.641 1.52089 124.22 0.00195312 120.525 0.00195312C116.831 0.00195312 115.333 1.57903 115.333 3.64243C115.333 5.45297 116.286 6.54374 118.834 6.83534L122.179 7.22476C123.288 7.36134 123.579 7.82828 123.579 8.45118C123.579 9.28815 122.821 9.91105 120.837 9.91105C118.853 9.91105 117.958 9.36567 117.744 8.21678Z" fill="#DDE1E6"/>
<path d="M133.669 14.6031L138.512 0.195312H135.789L132.444 10.3194L128.962 0.195312H126.084L129.876 10.4948H132.385L131.744 12.4613H127.349V14.6031H133.669Z" fill="#DDE1E6"/>
<path d="M141.197 8.21776H138.475C138.766 10.5349 140.498 11.957 144.232 11.957C147.966 11.957 149.542 10.4187 149.542 8.35525C149.542 6.60376 148.705 5.39581 146.177 5.10421L142.695 4.69541C141.665 4.57821 141.295 4.16941 141.295 3.48837C141.295 2.67077 141.917 2.04787 143.901 2.04787C145.885 2.04787 146.565 2.70952 146.721 3.72184H149.425C149.094 1.52187 147.673 0.00292969 143.979 0.00292969C140.284 0.00292969 138.786 1.58001 138.786 3.64341C138.786 5.45395 139.739 6.5447 142.287 6.83632L145.632 7.22574C146.741 7.36232 147.033 7.82925 147.033 8.45214C147.033 9.28914 146.274 9.91203 144.29 9.91203C142.306 9.91203 141.411 9.36666 141.197 8.21776Z" fill="#DDE1E6"/>
<path fill-rule="evenodd" clip-rule="evenodd" d="M32.4415 16.0981V11.7608V0.195312H20.8887H16.5562C7.78351 0.195312 0.671875 7.31476 0.671875 16.0971C0.671875 24.8795 7.78442 31.9999 16.5571 31.9999C25.3298 31.9999 32.4415 24.8803 32.4415 16.0981ZM12.9465 8.14622L20.8887 0.195312V11.7608H32.4415L24.4975 19.7154H12.9465V8.14622Z" fill="#DDE1E6"/>
</g>
<defs>
<clipPath id="clip0_1560_372430">
<rect width="150.4" height="32" fill="white" transform="translate(0.671875)"/>
</clipPath>
</defs>
</svg>
