<svg width="196" height="32" viewBox="0 0 196 32" fill="none" xmlns="http://www.w3.org/2000/svg">
<g clip-path="url(#clip0_1560_372444)">
<mask id="mask0_1560_372444" style="mask-type:luminance" maskUnits="userSpaceOnUse" x="0" y="0" width="196" height="32">
<path d="M195.825 0H0.777344V32H195.825V0Z" fill="white"/>
</mask>
<g mask="url(#mask0_1560_372444)">
<path d="M0.777344 2.59595H16.1617V6.91625H5.31708V11.4901H14.2844V15.8104H5.31708V20.511H16.1617V24.8313H0.777344V2.59595ZM26.2993 8.83747C27.1618 8.81609 28.0176 8.99418 28.8 9.35788C29.5824 9.72158 30.2702 10.261 30.8098 10.9342V1.34277H35.1008V24.8313H30.8098V23.0759C30.271 23.7499 29.5833 24.2901 28.8007 24.6538C28.0182 25.0175 27.162 25.1952 26.2993 25.1727C22.1351 25.1727 18.9412 21.4473 18.9412 17.0002C18.9412 12.5531 22.1351 8.83747 26.2993 8.83747ZM27.2063 12.7384C24.856 12.7384 23.2615 14.5524 23.2615 16.9953C23.2615 19.4383 24.856 21.2571 27.2063 21.2571C29.5566 21.2571 31.1511 19.4383 31.1511 16.9953C31.1511 14.5524 29.5469 12.7384 27.2063 12.7384ZM43.1124 25.7968C43.6488 27.3913 44.8679 28.113 46.6525 28.113C48.5299 28.113 50.1927 26.894 50.1927 24.4169V22.5737C49.3783 23.7342 47.657 24.6412 45.6529 24.6412C41.5813 24.6412 38.2606 21.1352 38.2606 16.7515C38.2606 12.3678 41.5813 8.83747 45.6383 8.83747C47.6424 8.83747 49.3637 9.74444 50.178 10.9342V9.17393H54.4691V23.861C54.4691 29.5271 50.6169 31.6629 46.5453 31.6629C42.1274 31.6629 39.231 29.1273 38.9043 25.7773L43.1124 25.7968ZM46.5599 12.7384C45.7652 12.7278 44.9852 12.9537 44.3191 13.3874C43.6531 13.8211 43.131 14.443 42.8192 15.1741C42.5075 15.9052 42.4202 16.7125 42.5683 17.4934C42.7164 18.2742 43.0934 18.9935 43.6512 19.5596C44.2091 20.1257 44.9227 20.5132 45.7014 20.6729C46.48 20.8324 47.2884 20.757 48.0241 20.456C48.7597 20.1549 49.3893 19.6421 49.8327 18.9825C50.2762 18.3228 50.5134 17.5463 50.5145 16.7515C50.5297 16.2253 50.4381 15.7014 50.2455 15.2116C50.0529 14.7217 49.7632 14.2759 49.3937 13.9009C49.0242 13.526 48.5828 13.2297 48.0957 13.0299C47.6087 12.8301 47.0862 12.731 46.5599 12.7384ZM65.7087 25.1727C60.9154 25.1727 57.5021 21.7301 57.5021 16.9709C57.5021 12.3044 60.9788 8.82772 65.738 8.82772C70.3411 8.82772 74.1299 12.1143 73.9104 18.0047H61.72C61.9053 19.8527 63.2852 21.4473 65.9476 21.4473C67.4495 21.4473 68.7661 20.789 69.2634 19.726H73.7447C72.784 22.8906 69.6828 25.1727 65.7087 25.1727ZM61.8565 15.1765H69.2147C69.0481 14.3539 68.5981 13.6158 67.9432 13.091C67.2883 12.5661 66.4698 12.2878 65.6307 12.3044C64.7627 12.2557 63.9059 12.5181 63.2141 13.0445C62.5223 13.571 62.0409 14.3269 61.8565 15.1765Z" fill="#DDE1E6"/>
<path d="M136.047 24.8313L127.221 11.3633V24.8313H122.682V2.59595H126.583L135.404 16.0639V2.59595H139.943V24.8313H136.047ZM150.676 25.1727C149.062 25.1602 147.488 24.6703 146.153 23.7647C144.817 22.8591 143.78 21.5783 143.171 20.0839C142.562 18.5895 142.409 16.9484 142.732 15.3673C143.054 13.7862 143.837 12.336 144.983 11.1994C146.128 10.0627 147.584 9.29065 149.168 8.98042C150.752 8.67019 152.392 8.83569 153.882 9.45608C155.37 10.0764 156.643 11.1239 157.539 12.4665C158.433 13.809 158.912 15.3865 158.912 17.0002C158.912 18.078 158.698 19.1451 158.284 20.1401C157.871 21.1352 157.263 22.0385 156.5 22.798C155.735 23.5576 154.828 24.1584 153.83 24.566C152.832 24.9735 151.763 25.1797 150.686 25.1727H150.676ZM150.676 21.1644C152.929 21.1644 154.576 19.4139 154.576 17.0002C154.576 14.5865 152.948 12.8359 150.676 12.8359C148.404 12.8359 146.775 14.5914 146.775 17.0002C146.775 19.409 148.428 21.1644 150.686 21.1644H150.676ZM168.119 8.83747C168.981 8.81534 169.836 8.9931 170.619 9.35686C171.401 9.72061 172.09 10.2605 172.629 10.9342V1.34277H176.92V24.8313H172.629V23.0759C172.09 23.7505 171.402 24.291 170.619 24.6549C169.837 25.0186 168.981 25.196 168.119 25.1727C163.954 25.1727 160.76 21.4473 160.76 17.0002C160.76 12.5531 163.954 8.83747 168.119 8.83747ZM169.005 12.7384C166.66 12.7384 165.06 14.5524 165.06 16.9953C165.06 19.4383 166.66 21.2571 169.005 21.2571C171.351 21.2571 172.955 19.4383 172.955 16.9953C172.955 14.5524 171.375 12.7384 169.005 12.7384ZM187.613 25.1727C182.82 25.1727 179.407 21.7301 179.407 16.9709C179.407 12.3044 182.883 8.82772 187.642 8.82772C192.245 8.82772 196.035 12.1143 195.815 18.0047H183.625C183.809 19.8527 185.19 21.4473 187.852 21.4473C189.354 21.4473 190.671 20.789 191.168 19.726H195.649C194.688 22.8906 191.587 25.1727 187.613 25.1727ZM183.76 15.1765H191.119C190.953 14.3539 190.502 13.6158 189.848 13.091C189.193 12.5661 188.375 12.2878 187.535 12.3044C186.666 12.2557 185.81 12.5181 185.118 13.0445C184.426 13.571 183.945 14.3269 183.76 15.1765Z" fill="#DDE1E6"/>
<path d="M108.98 12.7384L99.2273 15.5373V19.3554L102.543 18.3801C102.443 19.3418 102.067 20.2541 101.46 21.0067C100.853 21.7593 100.042 22.3202 99.123 22.6215C98.2042 22.9229 97.2179 22.9519 96.2832 22.7049C95.3483 22.458 94.505 21.9457 93.855 21.23C93.2049 20.5142 92.776 19.6257 92.6199 18.6715C92.4639 17.7173 92.5873 16.7384 92.9755 15.8527C93.3636 14.9673 93.9998 14.213 94.8072 13.6812C95.6147 13.1493 96.5588 12.8625 97.5255 12.8555H97.5548C98.9337 12.8535 100.271 12.3856 101.351 11.5277C102.43 10.6698 103.188 9.47223 103.501 8.12944C103.814 6.78666 103.664 5.37744 103.076 4.13055C102.487 2.88366 101.495 1.8723 100.259 1.26062C99.0231 0.648939 97.617 0.472854 96.2686 0.760948C94.9201 1.04904 93.7087 1.7844 92.8308 2.84766C91.953 3.91092 91.4603 5.23967 91.4326 6.61822C91.405 7.99676 91.8442 9.34417 92.6786 10.4417C91.369 11.2966 90.3083 12.4821 89.6039 13.8785C88.8996 15.2748 88.5765 16.8324 88.6673 18.3937C88.7583 19.955 89.2599 21.4646 90.1217 22.7698C90.9832 24.0749 92.1744 25.1294 93.5745 25.8264C94.9745 26.5235 96.5337 26.8383 98.0945 26.7393C99.6554 26.6401 101.162 26.1305 102.463 25.2621C103.764 24.3935 104.812 23.1969 105.501 21.7933C106.191 20.3896 106.498 18.8286 106.39 17.2684L108.985 16.5272L108.98 12.7384ZM97.5304 4.52692C98.1241 4.52692 98.6934 4.76273 99.113 5.18248C99.5329 5.60222 99.7686 6.1715 99.7686 6.7651C99.7686 7.3587 99.5329 7.92799 99.113 8.34772C98.6934 8.76747 98.1241 9.00327 97.5304 9.00327H97.5012C97.2074 9.00135 96.9166 8.94155 96.6459 8.8273C96.3751 8.71306 96.1294 8.54658 95.923 8.33738C95.5059 7.9149 95.2738 7.34407 95.2776 6.75047C95.2816 6.15687 95.5211 5.58913 95.9435 5.17214C96.3661 4.75513 96.9369 4.52305 97.5304 4.52692Z" fill="#DDE1E6"/>
</g>
</g>
<defs>
<clipPath id="clip0_1560_372444">
<rect width="195.048" height="32" fill="white" transform="translate(0.777344)"/>
</clipPath>
</defs>
</svg>
