<svg width="116" height="32" viewBox="0 0 116 32" fill="none" xmlns="http://www.w3.org/2000/svg">
<g clip-path="url(#clip0_1560_372441)">
<path fill-rule="evenodd" clip-rule="evenodd" d="M9.71468 0H6.25805V3.41388H9.71468V0ZM3.16504 1.18692e-05H0.0722656V24.9752H3.16504V1.18692e-05ZM40.9146 6.46686C37.7692 6.46686 35.3176 8.06568 34.0225 10.2127C33.0048 11.9029 32.6347 13.8215 32.6347 15.9685C32.6347 18.5266 33.3749 20.902 34.9013 22.6379C36.289 24.2824 38.3705 25.333 40.9609 25.333C42.6724 25.333 44.2914 24.8306 45.5866 23.9626C47.0667 22.9576 48.1307 21.3131 48.4082 19.5316H45.4014C45.1702 20.4908 44.8464 20.9933 44.3377 21.4959C43.5975 22.2724 42.3949 22.6835 40.9609 22.6835C39.5731 22.6835 38.463 22.2268 37.6303 21.4044C36.5203 20.3081 35.8727 18.5266 35.8727 16.8821H48.7783L48.8245 15.0548C48.8708 12.6338 47.992 10.304 46.5117 8.70521C45.1239 7.33478 43.2737 6.46686 40.9146 6.46686ZM35.9184 14.324C36.0108 11.6745 37.6298 9.02501 40.914 9.02501C42.533 9.02501 43.7358 9.66454 44.5221 10.6695C45.2622 11.6288 45.6323 12.9992 45.6323 14.324H35.9184ZM59.339 6.64924C57.3148 6.64924 54.9685 7.65167 53.9104 9.42874L53.3584 7.10489H51.0121V31.9837H54.0485V22.9162C55.0146 24.5567 57.3608 25.4678 59.2931 25.4678C61.4092 25.4678 63.0654 24.7389 64.2616 23.6453C66.1016 21.9137 67.0219 19.0886 67.0219 15.9902C67.0219 13.0284 66.1477 10.2945 64.3995 8.563C63.2954 7.37828 61.5472 6.64924 59.339 6.64924ZM58.8342 22.9639C57.5002 22.9639 56.626 22.417 55.8898 21.7792C54.3717 20.4578 53.8657 18.3161 53.8657 16.0834C53.8657 13.8507 54.3717 11.6635 55.8898 10.3877C56.626 9.74977 57.5002 9.20297 58.8342 9.20297C62.8827 9.20297 63.9408 12.8027 63.9408 16.0834C63.9408 19.3642 62.8827 22.9639 58.8342 22.9639ZM70.5929 10.2127C71.888 8.06568 74.3396 6.46686 77.4851 6.46686C79.8441 6.46686 81.6945 7.33478 83.0821 8.70521C84.5624 10.304 85.4412 12.6338 85.3949 15.0548L85.3486 16.8821H72.4431C72.4431 18.5266 73.0907 20.3081 74.2009 21.4044C75.0334 22.2268 76.1437 22.6835 77.5313 22.6835C78.9653 22.6835 80.1679 22.2724 80.9081 21.4959C81.4168 20.9933 81.7406 20.4908 81.972 19.5316H84.9786C84.7011 21.3131 83.6373 22.9576 82.157 23.9626C80.8618 24.8306 79.2428 25.333 77.5313 25.333C74.9409 25.333 72.8594 24.2824 71.4717 22.6379C69.9453 20.902 69.2051 18.5266 69.2051 15.9685C69.2051 13.8215 69.5752 11.9029 70.5929 10.2127ZM77.4841 9.02501C74.1998 9.02501 72.5808 11.6745 72.4884 14.324H82.2023C82.2023 12.9992 81.8323 11.6288 81.0921 10.6695C80.3057 9.66454 79.103 9.02501 77.4841 9.02501ZM95.6763 6.46747C92.5308 6.46747 90.0792 8.0663 88.784 10.2133C87.7664 11.9035 87.3963 13.8221 87.3963 15.9691C87.3963 18.5273 88.1364 20.9025 89.6629 22.6385C91.0506 24.2829 93.1322 25.3337 95.7226 25.3337C97.434 25.3337 99.053 24.8311 100.348 23.9631C101.828 22.9583 102.892 21.3138 103.17 19.5321H100.163C99.932 20.4914 99.6082 20.994 99.0992 21.4964C98.3591 22.2731 97.1565 22.6842 95.7226 22.6842C94.3349 22.6842 93.2246 22.2273 92.3921 21.4051C91.2819 20.3088 90.6343 18.5273 90.6343 16.8827H103.54L103.586 15.0555C103.632 12.6344 102.754 10.3047 101.273 8.70583C99.8857 7.33541 98.0353 6.46747 95.6763 6.46747ZM90.68 14.3239C90.7726 11.6745 92.3915 9.02496 95.6758 9.02496C97.2948 9.02496 98.4974 9.66449 99.2838 10.6695C100.024 11.6288 100.394 12.9992 100.394 14.3239H90.68ZM115.778 9.29316L115.087 7.09863L108.678 9.33888L108.124 7.00719H105.773V24.975H108.816V12.2192L115.778 9.29316ZM6.25783 7.00719H9.3506V24.975H6.25783V7.00719Z" fill="#DDE1E6"/>
<path fill-rule="evenodd" clip-rule="evenodd" d="M23.5894 6.58496H19.8266V10.3477H23.5894V6.58496ZM23.5894 21.636H19.8266V25.3988H23.5894V21.636ZM27.3521 6.58496H31.1149V10.3477H27.3521V6.58496ZM16.0636 6.58507H12.3008V10.3479H16.0636V6.58507ZM23.5893 14.1104H27.3521V17.8732H23.5893V14.1104ZM19.8266 14.1104H16.0638V17.8732H19.8266V14.1104Z" fill="#DDE1E6"/>
</g>
<defs>
<clipPath id="clip0_1560_372441">
<rect width="115.706" height="32" fill="white" transform="translate(0.0722656)"/>
</clipPath>
</defs>
</svg>
