<svg width="86" height="32" viewBox="0 0 86 32" fill="none" xmlns="http://www.w3.org/2000/svg">
<g clip-path="url(#clip0_1560_372413)">
<path fill-rule="evenodd" clip-rule="evenodd" d="M16.0096 31.8727C20.7318 31.8727 24.9744 29.8188 27.8926 26.5556C26.5351 25.3758 24.4894 25.3041 23.0442 26.4702L22.7681 26.693C20.122 28.8281 16.2664 28.5128 14.0024 25.9762C12.7676 24.5927 10.6529 24.4514 9.24506 25.6584L6.06183 28.3874C8.78823 30.5685 12.2466 31.8727 16.0096 31.8727ZM21.1766 24.1558C23.697 22.1221 27.2395 22.195 29.6635 24.1592C31.1124 21.7586 31.946 18.9448 31.946 15.9363C31.946 12.5934 30.9167 9.49098 29.1578 6.9285C28.0239 6.68701 26.7948 6.96905 25.8618 7.79581L25.5963 8.03112C23.0516 10.2861 19.1855 10.1491 16.8069 7.71961C15.5096 6.39459 13.3905 6.35106 12.0399 7.62174L8.33559 11.1067L6.2978 8.94069L10.0021 5.45571C12.5322 3.07544 16.5016 3.15694 18.9318 5.63906C20.2016 6.936 22.2655 7.00916 23.6239 5.80535L23.8894 5.57004C24.714 4.83932 25.6681 4.3467 26.667 4.08762C23.8436 1.54648 20.1072 0 16.0096 0C7.9197 0 1.23773 6.02803 0.210263 13.8374C2.66749 12.6583 5.69846 13.112 7.70199 15.1637C8.96682 16.4589 11.0034 16.5956 12.43 15.4811L14.5012 13.863C17.1041 11.8295 20.7837 11.9279 23.2742 14.0978L27.3065 17.6109L25.3529 19.8531L21.3206 16.34C19.9045 15.1062 17.8122 15.0502 16.332 16.2066L14.2609 17.8246C11.6398 19.8723 7.89808 19.6211 5.57426 17.2414C4.22298 15.8577 2.01292 15.8094 0.602493 17.1329L0.154297 17.5534C0.489714 20.8819 1.84939 23.9081 3.91334 26.3121L7.30939 23.4006C9.94663 21.1396 13.9081 21.4042 16.2212 23.9959C17.4298 25.3501 19.488 25.5184 20.9006 24.3786L21.1766 24.1558Z" fill="#DDE1E6"/>
<path d="M43.4238 21.0475C43.4238 24.3821 46.0413 26.5693 50.1647 26.5693C54.324 26.5693 57.1923 24.4538 57.1923 21.1192C57.1923 18.5017 55.7225 17.1392 52.7464 16.4221L49.6628 15.6691C47.9417 15.2389 47.0812 14.45 47.0812 13.2668C47.0812 11.6533 48.2644 10.721 50.3799 10.721C52.4237 10.721 53.6069 11.8325 53.6786 13.5895H56.9059C56.8342 10.2549 54.324 8.10352 50.4874 8.10352C46.615 8.10352 43.89 10.1473 43.89 13.3743C43.89 15.9559 45.3601 17.4978 48.4796 18.2507L51.5631 18.9678C53.3918 19.434 53.9655 20.1511 53.9655 21.3344C53.9655 22.9479 52.603 23.916 50.2365 23.916C48.0134 23.916 46.6509 22.8403 46.6509 21.0475H43.4238Z" fill="#DDE1E6"/>
<path d="M69.2148 26.5693C73.5535 26.5693 76.4937 24.4538 77.3544 20.689H74.1991C73.6253 22.6968 71.9044 23.7725 69.2865 23.7725C65.9519 23.7725 64.0159 21.7287 63.7649 18.0356L77.3185 17.9997V16.7448C77.3185 11.5457 74.0556 8.10352 69.0719 8.10352C63.98 8.10352 60.502 11.9042 60.502 17.3902C60.502 22.8403 64.0517 26.5693 69.2148 26.5693ZM69.0719 10.9361C72.0479 10.9361 73.948 12.8723 73.948 15.7767H63.8366C64.2669 12.6931 66.1312 10.9361 69.0719 10.9361Z" fill="#DDE1E6"/>
<path d="M83.4481 4.44614C84.6668 4.44614 85.671 3.44217 85.671 2.22307C85.671 0.96811 84.6668 0 83.4481 0C82.2287 0 81.2246 0.96811 81.2246 2.22307C81.2246 3.44217 82.2287 4.44614 83.4481 4.44614ZM81.7984 26.139H85.1689V8.60541H81.7984V26.139Z" fill="#DDE1E6"/>
</g>
<defs>
<clipPath id="clip0_1560_372413">
<rect width="85.5172" height="32" fill="white" transform="translate(0.154297)"/>
</clipPath>
</defs>
</svg>
