<svg width="137" height="32" viewBox="0 0 137 32" fill="none" xmlns="http://www.w3.org/2000/svg">
<g clip-path="url(#clip0_1560_372382)">
<path d="M0.761719 8.56696C0.761719 5.56822 0.761719 4.06887 1.34531 2.92351C1.85865 1.91603 2.67775 1.09693 3.68523 0.583587C4.83059 0 6.32994 0 9.32868 0H24.3128C27.3116 0 28.8109 0 29.9563 0.583587C30.9638 1.09693 31.7828 1.91603 32.2962 2.92351C32.8798 4.06887 32.8798 5.56822 32.8798 8.56696V23.433C32.8798 26.4318 32.8798 27.9311 32.2962 29.0765C31.7828 30.084 30.9638 30.903 29.9563 31.4164C28.8109 32 27.3116 32 24.3128 32H9.32868C6.32994 32 4.83059 32 3.68523 31.4164C2.67775 30.903 1.85865 30.084 1.34531 29.0765C0.761719 27.9311 0.761719 26.4318 0.761719 23.433V8.56696Z" fill="#DDE1E6"/>
<path d="M7.72746 8.00098C7.17703 8.00098 6.96496 8.67906 7.42682 8.96234L18.981 15.9035C19.269 16.0801 19.6531 16.0103 19.8514 15.7453L24.9315 9.10058C25.2768 8.63898 24.9279 8.00098 24.33 8.00098H7.72746Z" fill="#121619"/>
<path d="M25.8878 24.002C26.4382 24.002 26.6557 23.3201 26.194 23.0369L14.6364 16.0967C14.3484 15.9201 13.9736 15.9987 13.7754 16.2637L8.68546 22.9071C8.34015 23.3686 8.70003 24.002 9.29779 24.002H25.8878Z" fill="#121619"/>
<mask id="mask0_1560_372382" style="mask-type:luminance" maskUnits="userSpaceOnUse" x="43" y="8" width="89" height="17">
<path d="M131.366 8.00098H43.543V24.001H131.366V8.00098Z" fill="white"/>
</mask>
<g mask="url(#mask0_1560_372382)">
<path d="M43.543 23.3265L51.0187 10.957H44.3761V8.21777H56.0391V8.63081L48.7168 21.0004H55.7759V23.7613H43.543V23.3265Z" fill="#DDE1E6"/>
<path d="M59.9121 8.21777H70.1282V10.957H63.4417V14.5874H68.7909V17.1526H63.4417V21.0222H70.4789V23.7613H59.9121V8.21777Z" fill="#DDE1E6"/>
<path d="M74.5879 8.21777H80.2001C81.1211 8.21777 81.9539 8.31201 82.6995 8.50041C83.4451 8.68881 84.0803 8.97865 84.6067 9.37001C85.1331 9.76129 85.5347 10.254 85.8123 10.8483C86.1043 11.4424 86.2507 12.1381 86.2507 12.9352V13.0222C86.2507 13.6163 86.1707 14.1381 86.0099 14.5874C85.8491 15.0367 85.6227 15.4279 85.3299 15.7613C85.0379 16.0947 84.6947 16.3772 84.2995 16.6091C83.9051 16.841 83.4811 17.0222 83.0283 17.1526L87.1715 23.7613H83.4011L79.6521 17.7613H78.1175V23.7613H74.5879V8.21777ZM80.1125 15.37C81.0043 15.37 81.6691 15.1815 82.1075 14.8047C82.5603 14.4279 82.7867 13.87 82.7867 13.1308V13.0439C82.7867 12.2468 82.5531 11.6961 82.0859 11.3917C81.6323 11.0729 80.9747 10.9135 80.1125 10.9135H78.1175V15.37H80.1125Z" fill="#DDE1E6"/>
<path d="M90.9062 8.21777H94.4799V23.7613H90.9062V8.21777Z" fill="#DDE1E6"/>
<path d="M106.254 21.1967C106.911 21.1967 107.503 21.0735 108.03 20.8271C108.571 20.5807 109.031 20.2329 109.411 19.7836C109.776 19.3488 110.061 18.8126 110.266 18.1749C110.471 17.5372 110.572 16.8271 110.572 16.0444V15.8706C110.572 15.1169 110.471 14.4285 110.266 13.8053C110.075 13.1821 109.798 12.6459 109.432 12.1967C109.052 11.7474 108.592 11.3995 108.051 11.1531C107.511 10.9067 106.897 10.7836 106.21 10.7836C105.523 10.7836 104.909 10.9067 104.368 11.1531C103.843 11.3851 103.389 11.7183 103.009 12.1531C102.629 12.6024 102.337 13.1459 102.132 13.7836C101.943 14.4067 101.847 15.1097 101.847 15.8923V16.0662C101.847 16.8633 101.957 17.5807 102.176 18.2183C102.395 18.8415 102.703 19.3706 103.097 19.8053C103.477 20.2546 103.937 20.6024 104.478 20.8488C105.019 21.0807 105.611 21.1967 106.254 21.1967ZM106.188 24.001C104.96 24.001 103.85 23.8053 102.855 23.414C101.862 23.0083 101.022 22.4503 100.335 21.7401C99.633 21.0444 99.0922 20.2111 98.7122 19.2401C98.3322 18.2691 98.1426 17.2183 98.1426 16.0879V15.914C98.1426 14.7546 98.3394 13.6894 98.7346 12.7183C99.1434 11.7474 99.7138 10.914 100.444 10.2183C101.16 9.52274 102.008 8.97922 102.987 8.58794C103.967 8.19666 105.041 8.00098 106.21 8.00098C107.394 8.00098 108.475 8.18938 109.455 8.56618C110.448 8.94298 111.303 9.47202 112.019 10.1531C112.721 10.8488 113.269 11.6749 113.663 12.6314C114.073 13.5879 114.278 14.6531 114.278 15.8271V16.001C114.278 17.1604 114.08 18.2329 113.686 19.2183C113.306 20.1894 112.765 21.0299 112.063 21.7401C111.362 22.4503 110.514 23.0083 109.52 23.414C108.527 23.8053 107.415 24.001 106.188 24.001Z" fill="#DDE1E6"/>
<path d="M118.123 8.21777H122.245L128.208 18.457V8.21777H131.365V23.7613H127.813L121.28 12.6961V23.7613H118.123V8.21777Z" fill="#DDE1E6"/>
</g>
</g>
<defs>
<clipPath id="clip0_1560_372382">
<rect width="136" height="32" fill="white" transform="translate(0.761719)"/>
</clipPath>
</defs>
</svg>
