<svg width="194" height="194" viewBox="0 0 194 194" fill="none" xmlns="http://www.w3.org/2000/svg">
<path d="M192.34 96.67C192.34 149.507 149.507 192.34 96.67 192.34C43.8329 192.34 1 149.507 1 96.67C1 43.8329 43.8329 1 96.67 1C149.507 1 192.34 43.8329 192.34 96.67Z" stroke="white" stroke-width="2"/>
<path d="M164.99 165.05L144.89 92.3602C144.89 92.3602 139.78 69.0502 115.36 58.4002C90.9403 47.7502 68.7503 59.0702 63.4203 61.9602C58.0903 64.8502 37.0103 79.9402 44.1203 103.03C51.2303 126.12 82.7503 126.77 82.7503 126.77L98.7303 127.21C98.7303 127.21 105.62 164.28 106.51 170.94C107.4 177.6 108.75 192.58 108.75 192.58" fill="white"/>
<path d="M164.99 165.05L144.89 92.3602C144.89 92.3602 139.78 69.0502 115.36 58.4002C90.9403 47.7502 68.7503 59.0702 63.4203 61.9602C58.0903 64.8502 37.0103 79.9402 44.1203 103.03C51.2303 126.12 82.7503 126.77 82.7503 126.77L98.7303 127.21C98.7303 127.21 105.62 164.28 106.51 170.94C107.4 177.6 108.75 192.58 108.75 192.58" stroke="white" stroke-width="2" stroke-miterlimit="10"/>
<path d="M99.1702 82.69C102.467 82.69 105.14 80.0171 105.14 76.72C105.14 73.4229 102.467 70.75 99.1702 70.75C95.8731 70.75 93.2002 73.4229 93.2002 76.72C93.2002 80.0171 95.8731 82.69 99.1702 82.69Z" fill="#33257F"/>
<path d="M130 186L113.5 190.5L118.5 185.5L161 167L148 177.5L130 186Z" fill="white" stroke="white" stroke-width="2"/>
</svg>
