<svg width="196" height="196" viewBox="0 0 196 196" fill="none" xmlns="http://www.w3.org/2000/svg">
<path d="M98.0318 70.0574H81.2181C70.1368 70.0574 61.1452 61.0658 61.1452 49.9845C61.1452 38.9031 70.1368 29.9115 81.2181 29.9115H98.0318V1.95898H25.0062C12.3528 1.95898 2 12.3118 2 24.9652V97.9908L29.9526 98.1825V114.67H29.9717C30.2018 125.56 39.0784 134.302 50.0255 134.302C60.9726 134.302 69.8492 125.541 70.0793 114.67H70.0984V98.1825C70.0984 98.1825 70.0984 98.0675 70.0984 97.9908H98.051V70.0382L98.0318 70.0574Z" fill="white" stroke="#33257F" stroke-width="3" stroke-miterlimit="10"/>
<path d="M70.0984 97.9899V114.804C70.0984 125.885 61.1068 134.877 50.0255 134.877C38.9442 134.877 29.9526 125.885 29.9526 114.804V97.9899H2V171.015C2 183.669 12.3528 194.022 25.0062 194.022H98.0318L98.2235 166.069H114.711C125.601 165.82 134.343 156.924 134.343 145.996C134.343 135.068 125.582 126.172 114.711 125.942H98.2235C98.2235 125.942 98.1085 125.923 98.0318 125.923V97.9707H70.0793L70.0984 97.9899Z" fill="white" stroke="#33257F" stroke-width="3" stroke-miterlimit="10"/>
<path d="M171.077 1.95898H98.0322V29.9115H81.2184C70.1371 29.9115 61.1455 38.9031 61.1455 49.9845C61.1455 61.0658 70.1371 70.0574 81.2184 70.0574H98.0322V98.01H125.985V97.8183V81.3305H126.004C126.234 70.4408 135.111 61.6985 146.058 61.6985C157.005 61.6985 165.881 70.46 166.111 81.3305H166.131V97.8183L194.083 98.01V24.9652C194.083 12.3118 183.73 1.95898 171.077 1.95898Z" fill="white" stroke="#33257F" stroke-width="3" stroke-miterlimit="10"/>
<rect x="54.041" y="80" width="14" height="24" fill="white"/>
</svg>
