<svg width="196" height="237" viewBox="0 0 196 237" fill="none" xmlns="http://www.w3.org/2000/svg">
<path d="M38.3057 60.9051V62.371L36.889 61.9942C34.8046 61.4399 32.6298 61.1223 30.3866 61.0827L30.3833 61.0862H29.9021C14.5045 61.0862 1.93741 74.1368 1.93741 90.3358C1.93741 106.535 14.5045 119.586 29.9021 119.586H91.2124H91.2491L91.2858 119.588C92.4353 119.663 93.5793 119.708 94.7338 119.708C95.8883 119.708 97.0323 119.663 98.1818 119.588L98.2185 119.586H98.2552H152.282H152.321L152.361 119.588C153.322 119.656 154.271 119.708 155.226 119.708C177.074 119.708 194.872 101.195 194.872 78.2599C194.872 55.3247 177.074 36.8125 155.234 36.8199H155.233C152.637 36.8199 150.103 37.0865 147.647 37.5833L146.744 37.7658L146.385 36.9177C137.611 16.1749 117.782 1.73642 94.7411 1.73642C63.6141 1.73642 38.2985 28.0988 38.3057 60.7217V60.722V60.7224V60.7227V60.7231V60.7234V60.7238V60.7241V60.7245V60.7249V60.7252V60.7256V60.7259V60.7263V60.7266V60.727V60.7274V60.7277V60.7281V60.7284V60.7288V60.7291V60.7295V60.7299V60.7302V60.7306V60.7309V60.7313V60.7316V60.732V60.7324V60.7327V60.7331V60.7334V60.7338V60.7341V60.7345V60.7349V60.7352V60.7356V60.7359V60.7363V60.7367V60.737V60.7374V60.7377V60.7381V60.7384V60.7388V60.7392V60.7395V60.7399V60.7402V60.7406V60.7409V60.7413V60.7417V60.742V60.7424V60.7427V60.7431V60.7434V60.7438V60.7442V60.7445V60.7449V60.7452V60.7456V60.7459V60.7463V60.7467V60.747V60.7474V60.7477V60.7481V60.7485V60.7488V60.7492V60.7495V60.7499V60.7502V60.7506V60.751V60.7513V60.7517V60.752V60.7524V60.7527V60.7531V60.7535V60.7538V60.7542V60.7545V60.7549V60.7552V60.7556V60.756V60.7563V60.7567V60.757V60.7574V60.7578V60.7581V60.7585V60.7588V60.7592V60.7595V60.7599V60.7603V60.7606V60.761V60.7613V60.7617V60.762V60.7624V60.7628V60.7631V60.7635V60.7638V60.7642V60.7645V60.7649V60.7653V60.7656V60.766V60.7663V60.7667V60.767V60.7674V60.7678V60.7681V60.7685V60.7688V60.7692V60.7696V60.7699V60.7703V60.7706V60.771V60.7713V60.7717V60.7721V60.7724V60.7728V60.7731V60.7735V60.7738V60.7742V60.7746V60.7749V60.7753V60.7756V60.776V60.7763V60.7767V60.7771V60.7774V60.7778V60.7781V60.7785V60.7788V60.7792V60.7796V60.7799V60.7803V60.7806V60.781V60.7814V60.7817V60.7821V60.7824V60.7828V60.7831V60.7835V60.7839V60.7842V60.7846V60.7849V60.7853V60.7856V60.786V60.7864V60.7867V60.7871V60.7874V60.7878V60.7881V60.7885V60.7889V60.7892V60.7896V60.7899V60.7903V60.7906V60.791V60.7914V60.7917V60.7921V60.7924V60.7928V60.7932V60.7935V60.7939V60.7942V60.7946V60.7949V60.7953V60.7957V60.796V60.7964V60.7967V60.7971V60.7974V60.7978V60.7982V60.7985V60.7989V60.7992V60.7996V60.7999V60.8003V60.8007V60.801V60.8014V60.8017V60.8021V60.8024V60.8028V60.8032V60.8035V60.8039V60.8042V60.8046V60.805V60.8053V60.8057V60.806V60.8064V60.8067V60.8071V60.8075V60.8078V60.8082V60.8085V60.8089V60.8092V60.8096V60.81V60.8103V60.8107V60.811V60.8114V60.8117V60.8121V60.8125V60.8128V60.8132V60.8135V60.8139V60.8142V60.8146V60.815V60.8153V60.8157V60.816V60.8164V60.8168V60.8171V60.8175V60.8178V60.8182V60.8185V60.8189V60.8193V60.8196V60.82V60.8203V60.8207V60.821V60.8214V60.8218V60.8221V60.8225V60.8228V60.8232V60.8235V60.8239V60.8243V60.8246V60.825V60.8253V60.8257V60.826V60.8264V60.8268V60.8271V60.8275V60.8278V60.8282V60.8286V60.8289V60.8293V60.8296V60.83V60.8303V60.8307V60.8311V60.8314V60.8318V60.8321V60.8325V60.8328V60.8332V60.8336V60.8339V60.8343V60.8346V60.835V60.8353V60.8357V60.8361V60.8364V60.8368V60.8371V60.8375V60.8378V60.8382V60.8386V60.8389V60.8393V60.8396V60.84V60.8404V60.8407V60.8411V60.8414V60.8418V60.8421V60.8425V60.8429V60.8432V60.8436V60.8439V60.8443V60.8446V60.845V60.8454V60.8457V60.8461V60.8464V60.8468V60.8471V60.8475V60.8479V60.8482V60.8486V60.8489V60.8493V60.8497V60.85V60.8504V60.8507V60.8511V60.8514V60.8518V60.8522V60.8525V60.8529V60.8532V60.8536V60.8539V60.8543V60.8547V60.855V60.8554V60.8557V60.8561V60.8564V60.8568V60.8572V60.8575V60.8579V60.8582V60.8586V60.8589V60.8593V60.8597V60.86V60.8604V60.8607V60.8611V60.8615V60.8618V60.8622V60.8625V60.8629V60.8632V60.8636V60.864V60.8643V60.8647V60.865V60.8654V60.8657V60.8661V60.8665V60.8668V60.8672V60.8675V60.8679V60.8682V60.8686V60.869V60.8693V60.8697V60.87V60.8704V60.8707V60.8711V60.8715V60.8718V60.8722V60.8725V60.8729V60.8732V60.8736V60.874V60.8743V60.8747V60.875V60.8754V60.8758V60.8761V60.8765V60.8768V60.8772V60.8775V60.8779V60.8783V60.8786V60.879V60.8793V60.8797V60.88V60.8804V60.8808V60.8811V60.8815V60.8818V60.8822V60.8825V60.8829V60.8833V60.8836V60.884V60.8843V60.8847V60.8851V60.8854V60.8858V60.8861V60.8865V60.8868V60.8872V60.8876V60.8879V60.8883V60.8886V60.889V60.8893V60.8897V60.8901V60.8904V60.8908V60.8911V60.8915V60.8918V60.8922V60.8926V60.8929V60.8933V60.8936V60.894V60.8943V60.8947V60.8951V60.8954V60.8958V60.8961V60.8965V60.8969V60.8972V60.8976V60.8979V60.8983V60.8986V60.899V60.8994V60.8997V60.9001V60.9004V60.9008V60.9011V60.9015V60.9019V60.9022V60.9026V60.9029V60.9033V60.9036V60.904V60.9044V60.9047V60.9051Z" stroke="white" stroke-width="2.25406"/>
<path d="M83.3501 122.01V158.504L65.7896 172.143V185.783" stroke="white" stroke-width="1.84848"/>
<circle cx="65.7897" cy="193.177" r="9.24239" fill="white"/>
<path d="M123.884 122.01V158.504L141.444 172.143V185.783" stroke="white" stroke-width="1.84848"/>
<circle r="9.24239" transform="matrix(-1 0 0 1 141.444 193.177)" fill="white"/>
<circle cx="104.5" cy="227.374" r="9.24239" fill="white"/>
<line x1="104.5" y1="121.087" x2="104.5" y2="227.374" stroke="white" stroke-width="1.84848"/>
<path d="M101.057 39.2469C92.5933 39.2469 85.728 46.1121 85.728 54.5759V73.7713H116.386V54.569C116.386 46.1053 109.521 39.2469 101.057 39.2469ZM110.395 67.7804H91.7189V54.569C91.7189 49.4184 95.9064 45.2309 101.057 45.2309C106.208 45.2309 110.395 49.4184 110.395 54.569V67.7804Z" fill="white" stroke="white" stroke-width="0.398115" stroke-linejoin="round"/>
<path d="M122.906 61.1171H79.2097C77.7404 61.1171 76.5493 62.3082 76.5493 63.7775V93.9661C76.5493 95.4354 77.7404 96.6265 79.2097 96.6265H122.906C124.375 96.6265 125.567 95.4354 125.567 93.9661V63.7775C125.567 62.3082 124.375 61.1171 122.906 61.1171Z" fill="white" stroke="#33257F" stroke-width="0.924239" stroke-linejoin="round"/>
<path d="M95.5942 74.7076C95.5942 74.7076 95.5605 75.2876 94.4477 77.1693C93.1527 79.3545 93.0313 81.9107 94.3533 84.0487C97.1455 88.5473 104.72 88.4663 107.525 84.0487C108.611 82.3423 108.921 80.3797 108.55 78.3901C108.55 78.3901 107.653 74.2354 104.585 71.6118C104.632 71.6523 104.753 72.2053 104.774 72.4481C104.841 73.1765 104.774 73.9387 104.531 74.6334C104.349 75.1459 104.106 75.5843 103.681 75.9216C103.681 75.8002 103.654 75.5911 103.647 75.5169C103.627 74.0668 103.067 72.7179 102.15 71.5916C101.354 70.6069 100.255 69.9324 99.1014 69.4401C99.1284 69.5413 99.1823 69.9527 99.1891 70.0336C99.2498 70.7215 99.2565 71.6793 99.1688 72.3605C99.0812 73.0417 98.926 73.4194 98.717 74.0601C98.4 75.0313 97.9683 75.7529 97.422 76.6162C97.3208 76.7781 97.0173 77.2098 96.8555 77.4323C96.8555 77.4323 96.5789 75.6788 95.5875 74.6873L95.5942 74.7076Z" fill="#33257F"/>
</svg>
