<svg width="104" height="32" viewBox="0 0 104 32" fill="none" xmlns="http://www.w3.org/2000/svg">
<g clip-path="url(#clip0_1824_168572)">
<path d="M50.9053 27.4375H45.6543C45.1381 27.0117 45.0499 26.2264 45.0237 24.3365C43.9878 25.2495 42.9325 26.1401 41.8584 27.0078C41.1306 27.5927 40.5781 27.7936 40.0166 27.7936C38.1061 27.7936 36.1755 25.9518 36.1755 23.7064C36.1755 21.461 36.3764 16.4991 36.3764 14.3441C36.3764 11.0427 36.085 10.5265 34.8711 10.4383C36.7565 10.4617 39.4534 10.2139 40.3944 10.0777C40.3944 14.189 40.1935 20.0461 40.1935 21.4414C40.1935 22.3417 40.3297 23.5077 40.779 24.0217C41.5883 24.9867 42.5081 25.3668 43.3397 25.3668C43.7003 25.3668 44.374 24.8271 45.0259 24.2874V23.3218C45.0259 20.2665 45.0499 15.2399 45.0499 14.0249C45.0499 11.1745 44.758 10.5225 43.5446 10.4338C45.4294 10.4578 48.1269 10.2094 49.0679 10.0732C49.0679 13.1932 49.0484 20.0204 49.0484 23.5227C49.0484 26.876 50.1496 27.327 50.9098 27.4375M59.1837 10.2825C61.2739 11.7638 62.1479 12.3276 62.9103 12.3276C63.3356 12.3276 63.4953 12.2176 64.1455 11.7231C61.0903 14.6874 60.3948 15.0245 59.6782 15.0245C58.7321 15.0245 57.8363 14.3743 56.2668 13.2731L59.1837 10.2825ZM55.3269 27.6647C55.1483 27.7746 54.9217 27.8656 54.7425 27.8656C54.4272 27.8656 53.4856 27.5307 52.9453 27.0792C52.3152 26.5847 52.0261 25.959 52.0261 25.1034V12.5503C52.0261 10.935 51.7347 10.5287 50.5213 10.4383C52.4062 10.4617 54.8782 10.3283 56.0441 10.0777C56.0441 15.7797 56.0636 23.0561 56.1351 24.0217C56.3137 24.5162 57.4155 25.1877 58.0651 25.1877C58.3353 25.1877 58.8661 24.9823 59.3907 24.639C58.9481 24.9778 56.1848 27.1222 55.3297 27.6619" fill="#c1c7cd"/>
<path d="M73.5598 27.4379C72.9743 26.9434 72.9291 25.9566 72.9291 23.3267C72.9291 22.3812 73.13 17.8251 73.13 16.4348C73.13 15.5345 72.9938 14.3685 72.5451 13.8545C71.7352 12.8889 70.8154 12.5094 69.9844 12.5094C69.6043 12.5094 68.9501 13.0491 68.2977 13.6106C68.2977 17.0219 68.3434 21.5819 68.4338 25.9589C68.4534 27.1483 68.6348 27.3297 69.1097 27.4396H63.8325C63.9883 27.3492 64.1479 27.2387 64.1674 26.1832C64.2774 20.7509 64.2774 15.2493 64.2774 14.0337C64.2774 11.1832 63.986 10.5313 62.7726 10.4432C64.6575 10.4666 67.3544 10.2182 68.2954 10.0826V13.5632C69.3235 12.6757 70.4097 11.7341 71.4612 10.8685C72.1801 10.2746 72.7416 10.0826 73.3025 10.0826C75.2136 10.0826 77.1436 11.9245 77.1436 14.1699C77.1436 16.4152 76.9432 21.3771 76.9432 23.5321C76.9432 26.8787 78.0444 27.3274 78.8085 27.4379H73.5598ZM84.338 8.17153V10.4169C86.383 10.3974 88.4688 10.3522 90.5803 10.3717L86.8536 13.5821C86.3373 13.5587 85.5537 13.5174 84.338 13.4917C84.338 21.664 84.3832 23.3501 84.5842 23.6398C84.8543 24.0193 86.4495 25.0301 87.3006 25.0301C87.635 25.0301 87.9503 24.8292 90.4206 22.4934C87.9743 24.9849 85.3678 27.3643 84.5585 27.8158C84.3793 27.9062 84.1332 27.971 83.9535 27.971C83.5739 27.971 82.1122 27.2303 81.2376 26.4205C80.6526 25.8807 80.3177 25.3003 80.3177 24.4446L80.4082 13.5107C79.778 13.5107 78.0634 13.5308 78.0634 13.5308L84.338 8.16706V8.17153ZM22.1998 15.491C21.3726 14.5254 21.021 13.6664 21.021 12.8158C21.021 12.3129 21.0746 11.9976 21.1438 11.7079C20.738 12.5674 20.5996 13.2093 20.5996 13.8154C20.5996 17.0219 23.541 17.4366 23.541 19.706C23.541 20.2541 23.2491 20.9992 22.2684 22.394C25.2266 18.4469 25.9784 17.0264 25.9784 16.0419C25.9784 13.2846 23.0504 12.8225 23.0504 9.72204C23.0504 9.0132 23.4562 8.1626 24.2119 7.05078C24.2119 7.05078 23.493 8.0638 23.1045 8.60353C21.7204 10.5291 21.1845 13.0296 22.202 15.4932L22.1998 15.491Z" fill="#c1c7cd"/>
<path d="M30.6143 24.6517C27.8331 24.6517 22.461 22.1406 20.2652 22.1406C18.7644 22.1406 16.9811 24.0924 13.3516 27.6383C14.7704 26.2519 16.0072 25.2824 17.1235 25.2824C20.887 25.2824 24.3631 27.8152 28.2042 27.8152C28.5609 27.8152 28.7121 27.7175 28.8868 27.5322C29.3445 27.0528 30.4775 25.8461 31.778 24.4597C31.37 24.6154 31.0133 24.6517 30.6115 24.6517M29.4941 14.0091L26.3283 16.6887C29.9512 17.3149 31.9934 19.6167 31.9934 22.6887C31.9934 23.4533 31.9248 23.9049 31.7847 24.4552C33.3475 22.7864 35.1358 20.8926 35.1871 20.8429C35.1871 16.749 32.2513 14.4863 29.4941 14.0068" fill="#c1c7cd"/>
<path d="M21.3157 19.3516C22.2896 19.3516 23.0387 19.1641 23.0387 19.1641C23.0387 19.1641 22.3477 19.3276 21.3157 19.3276C17.5438 19.3276 15.0455 16.5927 15.0455 13.4783C15.0455 10.365 17.8586 6.78512 23.2463 6.78512C27.7823 6.78512 30.4814 10.1797 30.5116 13.2372L33.8822 10.456C32.8413 6.87163 29.402 4 24.5138 4C18.6472 4 14.7129 8.89265 14.7129 12.7812C14.7129 16.6698 17.306 19.3516 21.3157 19.3516Z" fill="#c1c7cd"/>
</g>
<defs>
<clipPath id="clip0_1824_168572">
<rect width="77.5814" height="24" fill="#c1c7cd" transform="translate(13 4)"/>
</clipPath>
</defs>
</svg>
