<svg width="120" height="32" viewBox="0 0 120 32" fill="none" xmlns="http://www.w3.org/2000/svg">
<g clip-path="url(#clip0_1822_168571)">
<path fill-rule="evenodd" clip-rule="evenodd" d="M87.1598 27.112C88.6274 27.7107 90.2006 28.0122 91.787 27.9994C93.3734 28.0149 94.9478 27.7151 96.4166 27.1178C97.886 26.5202 99.2204 25.6368 100.342 24.5196C101.465 23.4026 102.352 22.0737 102.952 20.611C103.552 19.1483 103.854 17.5811 103.839 16.0011C103.854 14.4209 103.553 12.8534 102.953 11.3905C102.352 9.92758 101.466 8.59853 100.344 7.48108C99.221 6.36365 97.8866 5.48027 96.4172 4.88265C94.9478 4.28503 93.374 3.98515 91.787 4.00057C90.2006 3.98776 88.628 4.28935 87.1598 4.88777C85.6922 5.48619 84.3584 6.36946 83.237 7.48616C82.1156 8.60284 81.2282 9.93062 80.627 11.3921C80.0258 12.8536 79.7222 14.4197 79.7348 15.999C79.7222 17.5785 80.0252 19.1447 80.6258 20.6064C81.227 22.0682 82.1144 23.3962 83.2364 24.5132C84.3578 25.63 85.6916 26.5136 87.1598 27.112ZM100.783 15.999C100.783 21.0987 96.9086 25.1217 91.787 25.1217C86.6972 25.1217 82.8224 21.1008 82.8224 15.999C82.8224 10.8971 86.6972 6.87626 91.787 6.87626C96.9086 6.87626 100.783 10.8992 100.783 15.999Z" fill="#697077"/>
<path d="M73.6327 27.4857H76.7654V9.11204C76.7636 7.84275 76.256 6.62593 75.3548 5.72841C74.4538 4.83089 73.2317 4.32591 71.9569 4.32422C71.0446 4.32663 70.1516 4.58639 69.3815 5.07341C68.6113 5.56043 67.9956 6.25478 67.6056 7.07599L60.169 22.8368C60.0328 23.1228 59.8182 23.3649 59.5497 23.5347C59.2812 23.7044 58.97 23.7948 58.6521 23.7959C58.4319 23.7959 58.214 23.7528 58.0106 23.669C57.8075 23.5852 57.6227 23.4622 57.467 23.3074C57.3116 23.1522 57.188 22.9684 57.1038 22.7661C57.0197 22.5635 56.9765 22.3467 56.9765 22.1273V10.6653C56.9747 8.98402 56.3032 7.37213 55.1093 6.18333C53.9154 4.99453 52.2966 4.32592 50.6082 4.32422C48.9201 4.32648 47.3021 4.99533 46.1085 6.18409C44.9151 7.37283 44.2437 8.98439 44.2422 10.6653V27.4834H47.3749V10.6653C47.376 9.81149 47.7169 8.99299 48.323 8.38909C48.929 7.7852 49.7508 7.44515 50.6082 7.44345C51.4659 7.44459 52.2883 7.78438 52.8948 8.38834C53.5014 8.99229 53.8427 9.81113 53.8437 10.6653V22.1273C53.8448 23.3969 54.3519 24.6141 55.2533 25.5117C56.1549 26.4093 57.377 26.9141 58.6521 26.9153C59.5644 26.9132 60.4574 26.6535 61.2276 26.1665C61.9977 25.6792 62.6135 24.9848 63.0034 24.1635L70.44 8.40273C70.5763 8.11671 70.7911 7.87487 71.0594 7.70515C71.3279 7.53541 71.6389 7.4447 71.9569 7.44345C72.401 7.44401 72.827 7.61998 73.1412 7.93277C73.4552 8.24558 73.632 8.66967 73.6327 9.11204V27.4857Z" fill="#697077"/>
<path d="M36.9902 4.33496H40.0264V27.4879H36.9902V4.33496Z" fill="#697077"/>
<path fill-rule="evenodd" clip-rule="evenodd" d="M33.7381 15.9103C33.7381 9.28944 28.4984 4.33496 21.36 4.33496H14.5586L14.5586 27.4677H17.7253L21.36 27.4879C28.4984 27.4879 33.7381 22.5312 33.7381 15.9103ZM17.7253 7.17221L21.36 7.17219C26.96 7.17219 30.6591 10.8897 30.6591 15.9103C30.6591 20.931 26.96 24.6506 21.36 24.6506H17.7253V7.17221Z" fill="#697077"/>
</g>
<defs>
<clipPath id="clip0_1822_168571">
<rect width="89.4" height="24" fill="white" transform="translate(14.5586 4)"/>
</clipPath>
</defs>
</svg>
