<svg width="97" height="32" viewBox="0 0 97 32" fill="none" xmlns="http://www.w3.org/2000/svg">
<g clip-path="url(#clip0_1560_372353)">
<path d="M25.7734 27.8415C25.5416 28.0354 23.004 27.9142 22.7415 28.0655C22.479 28.2168 21.3417 30.4565 21.0565 30.5606C20.7715 30.6646 18.4289 29.6951 18.1298 29.7487C17.8307 29.8024 15.985 31.5235 15.6809 31.5252C15.3769 31.5268 13.512 29.8259 13.2123 29.7754C12.9125 29.725 10.5811 30.72 10.2948 30.6191C10.0084 30.5181 8.84612 28.291 8.58204 28.1425C8.31786 27.9941 5.78178 28.1429 5.5478 27.9515C5.31381 27.76 4.99427 25.2753 4.79756 25.0468C4.60084 24.8183 2.16604 24.103 2.01257 23.8442C1.85909 23.5855 2.42086 21.1428 2.31531 20.8617C2.20974 20.5806 0.169932 19.0875 0.115478 18.7926C0.0610336 18.4977 1.43634 16.3918 1.43467 16.092C1.43299 15.7923 0.0342069 13.7015 0.0853536 13.406C0.136492 13.1105 2.15948 11.5953 2.26189 11.3131C2.36429 11.0309 1.77523 8.59443 1.9258 8.33407C2.07637 8.07363 4.50301 7.33194 4.69716 7.10125C4.89131 6.87058 5.18302 4.38248 5.41485 4.18855C5.64668 3.99463 8.18426 4.11586 8.44675 3.96456C8.70924 3.81327 9.84658 1.57359 10.1316 1.46951C10.4168 1.36545 12.7594 2.33502 13.0585 2.28134C13.3576 2.22766 15.2033 0.506537 15.5074 0.504884C15.8114 0.503231 17.6763 2.20418 17.976 2.2546C18.2757 2.30502 20.6072 1.31004 20.8935 1.411C21.1798 1.51197 22.3421 3.73914 22.6062 3.88758C22.8704 4.03601 25.4065 3.88719 25.6404 4.07858C25.8745 4.26999 26.194 6.75474 26.3907 6.98329C26.5874 7.21185 29.0222 7.92714 29.1757 8.1859C29.3292 8.44465 28.7674 10.8873 28.873 11.1684C28.9785 11.4495 31.0183 12.9426 31.0728 13.2375C31.1272 13.5324 29.7519 15.6383 29.7536 15.9381C29.7553 16.2378 31.154 18.3287 31.1029 18.6241C31.0517 18.9196 29.0288 20.4348 28.9264 20.717C28.824 20.9992 29.4131 23.4356 29.2625 23.696C29.1119 23.9564 26.6852 24.6982 26.4911 24.9288C26.297 25.1595 26.0052 27.6476 25.7734 27.8415Z" fill="#c1c7cd"/>
<path d="M19.9079 22.2953C19.9338 22.2712 19.9567 22.2429 19.9748 22.2104C20.0664 22.0458 20.0063 21.8386 19.8405 21.7475C19.0657 21.3222 18.6795 20.7525 18.6795 20.7525C18.4217 20.2322 18.1945 19.8041 18.0275 18.8763C18.0257 18.8669 17.9724 18.3832 17.9685 18.2396L17.7338 15.9909C17.7111 15.7734 17.8413 15.5598 18.0444 15.4804L23.4699 13.3624C23.8317 13.2214 23.889 12.7138 23.5636 12.5352L21.2861 11.2848C21.1765 11.2247 21.0443 11.2178 20.9226 11.2655L15.5717 13.5178C15.4553 13.5669 15.3223 13.5691 15.2079 13.5155C15.0295 13.4313 15.0033 13.2691 15.1609 12.9854L17.0923 9.50985C17.2161 9.28674 17.1482 9.01341 16.9402 8.89919L15.2434 7.96792C15.0355 7.8537 14.7665 7.94197 14.6425 8.16526L13.812 9.65981C13.7733 9.73341 13.6285 9.64176 13.5889 9.6231C13.511 9.58612 13.5889 9.6231 13.5169 9.58345L11.9309 8.71299C11.6781 8.57406 11.3511 8.68152 11.2006 8.95279L10.6004 10.0326C10.4497 10.3038 10.5324 10.6363 10.7852 10.7748L12.3712 11.6455C12.4433 11.685 12.4909 11.7213 12.5694 11.7683C12.6067 11.7907 12.6213 11.8025 12.5989 11.8428L10.8433 14.9667C10.8409 14.9697 10.8017 15.038 10.7486 15.1242C10.7031 15.1984 10.6191 15.1655 10.5156 15.1138C10.5001 15.1059 10.4884 15.0902 10.4643 15.0771L8.8782 14.2066C8.62557 14.0677 8.29846 14.175 8.14797 14.4461L7.54789 15.5263C7.39722 15.7973 7.47997 16.1296 7.7326 16.2683L9.31872 17.139C9.39072 17.1786 9.45579 17.1996 9.51721 17.2477C9.55134 17.2747 9.55001 17.3298 9.52752 17.3703L8.70104 18.8575C8.57722 19.0806 8.64513 19.3539 8.85295 19.4682L10.5499 20.3995C10.7577 20.5137 11.0268 20.4254 11.1506 20.2021L12.493 17.7868C12.5481 17.6875 12.6355 17.6104 12.7382 17.5701L14.1617 17.0133C14.4308 16.9079 14.9742 17.1624 15.0039 17.45L15.129 18.6587L15.1293 18.6629C15.1285 18.746 15.1796 21.3948 16.5825 23.4365C16.5825 23.4365 16.8299 23.8217 17.4666 24.1804C17.5825 24.2439 17.7187 24.2339 17.8217 24.1659L17.8233 24.1682L17.8393 24.1539C17.8545 24.1421 17.8688 24.1292 17.8821 24.1153L19.9079 22.2953Z" fill="#121619"/>
<path d="M50.3656 8L43.6502 15.3532V8H40.9277V23.5818H43.6502V18.7015L45.9088 16.3161L50.5068 23.5818H53.7536L47.8448 14.3465L53.7536 8H50.3656Z" fill="#c1c7cd"/>
<path d="M60.1596 12.1143C58.6673 12.1143 57.6186 12.8583 57.054 14.3027V12.2893H54.5938V23.5817H57.1347V17.8479C57.1347 16.8194 57.3767 16.0316 57.9011 15.5063C58.4254 14.9811 59.1715 14.6966 60.1394 14.6966H60.7848V12.158C60.5832 12.1361 60.3815 12.1143 60.1596 12.1143Z" fill="#c1c7cd"/>
<path d="M71.5036 18.1331C71.5036 16.3167 71.0398 14.8505 70.1122 13.7124C69.1845 12.5963 67.9342 12.0273 66.3612 12.0273C64.8285 12.0273 63.5782 12.5745 62.6304 13.6468C61.6826 14.741 61.2188 16.1635 61.2188 17.9361C61.2188 19.7307 61.6826 21.1532 62.6506 22.2255C63.5984 23.3197 64.8487 23.8449 66.4015 23.8449C67.6317 23.8449 68.6803 23.5167 69.5475 22.8383C70.3945 22.1599 70.9591 21.2407 71.2415 20.0809H68.8013C68.3577 21.1751 67.5712 21.7003 66.4217 21.7003C65.6352 21.7003 65.01 21.4595 64.5462 20.9781C64.0824 20.4967 63.8001 19.7526 63.7194 18.7897H71.5036V18.1331ZM66.3411 14.1721C67.067 14.1721 67.6518 14.4128 68.1157 14.8942C68.5594 15.3757 68.8417 16.0322 68.9627 16.8638H63.7395C63.9816 15.0693 64.8487 14.1721 66.3411 14.1721Z" fill="#c1c7cd"/>
<path d="M78.9102 12.0268C77.4985 12.0268 76.4095 12.6176 75.6836 13.7556V8H73.1426V23.5818H75.5828V21.9623C76.3289 23.2316 77.438 23.8444 78.9102 23.8444C80.3219 23.8444 81.4713 23.3191 82.3183 22.2249C83.1452 21.1526 83.5686 19.7301 83.5686 17.9356C83.5686 16.1411 83.1452 14.7186 82.3183 13.6244C81.4713 12.5739 80.3219 12.0268 78.9102 12.0268ZM76.3491 20.6274C75.8651 20.0146 75.623 19.1173 75.623 17.9356C75.623 16.7756 75.8449 15.8784 76.3289 15.2437C76.7927 14.631 77.4582 14.3028 78.3052 14.3028C79.1522 14.3028 79.8177 14.6092 80.2815 15.2219C80.7453 15.8347 80.9873 16.71 80.9873 17.848C80.9873 19.0298 80.7453 19.949 80.2815 20.5836C79.7975 21.2401 79.132 21.5684 78.3052 21.5684C77.4582 21.5684 76.7927 21.262 76.3491 20.6274Z" fill="#c1c7cd"/>
<path d="M87.6767 10.8226V8.24023H85.1763V10.8226H87.6767ZM87.6971 23.5813V12.2888H85.1562V23.5813H87.6971Z" fill="#c1c7cd"/>
<path d="M95.1716 12.2895H93.1138V9.00684H90.5938V12.2895H88.9805V14.3905H90.5938V20.7807C90.5938 21.7874 90.8356 22.5315 91.36 22.991C91.8845 23.4507 92.7111 23.6695 93.84 23.6695C94.1627 23.6695 94.6062 23.6475 95.1716 23.5819V21.4811H94.304C93.8605 21.4811 93.5582 21.4154 93.376 21.2622C93.1947 21.1308 93.1138 20.8683 93.1138 20.4963V14.3905H95.1716V12.2895Z" fill="#c1c7cd"/>
</g>
<defs>
<clipPath id="clip0_1560_372353">
<rect width="96" height="32" fill="white" transform="translate(0.0390625)"/>
</clipPath>
</defs>
</svg>
