<svg width="186" height="39" viewBox="0 0 186 39" fill="none" xmlns="http://www.w3.org/2000/svg">
<g clip-path="url(#clip0_465_6740)">
<path d="M19.72 0C20.23 0.05 20.75 0.11 21.26 0.16C24.68 0.51 27.8 1.68 30.57 3.7C34.69 6.72 37.26 10.75 38.22 15.76C40.18 25.98 33.49 36 23.32 38.15C21.43 38.55 19.52 38.74 17.61 38.5C9.66004 37.54 4.15004 33.35 1.17004 25.91C0.460043 24.15 0.140043 22.28 0.0300431 20.36C-0.479957 11.2 5.55004 2.93 14.55 0.64C15.78 0.33 17.02 0.12 18.29 0.08C18.46 0.08 18.62 0.03 18.79 0H19.73L19.72 0ZM16.51 30.68C17.14 30.84 17.74 30.96 18.34 31.14C18.65 31.23 18.74 31.14 18.81 30.86C19.04 29.91 19.29 28.97 19.51 28.03C19.56 27.8 19.62 27.73 19.89 27.77C20.81 27.88 21.73 27.99 22.66 28C23.61 28.01 24.53 27.79 25.33 27.24C26.45 26.48 26.98 25.36 27.28 24.1C27.72 22.22 27.17 20.92 25.54 19.88C25.46 19.83 25.38 19.77 25.29 19.7C25.34 19.66 25.36 19.64 25.38 19.63C27.68 19.01 28.21 16.36 27.72 14.85C27.39 13.83 26.65 13.14 25.74 12.64C25.06 12.26 24.34 11.95 23.62 11.61L24.47 8.18L22.28 7.64L21.43 11.02C20.97 10.91 20.54 10.8 20.11 10.71C19.88 10.67 19.82 10.6 19.88 10.35C20.13 9.42 20.33 8.48 20.58 7.56C20.66 7.27 20.55 7.2 20.32 7.14C19.97 7.06 19.62 6.97 19.27 6.88C18.46 6.67 18.46 6.67 18.26 7.48C18.04 8.36 17.82 9.25 17.59 10.15C17.43 10.12 17.3 10.1 17.17 10.07C16 9.78 14.84 9.48 13.67 9.2C13.53 9.17 13.32 9.05 13.26 9.31C13.08 10.01 12.91 10.7 12.74 11.42C12.89 11.46 13 11.5 13.11 11.53C13.56 11.65 14.02 11.75 14.47 11.89C15.11 12.09 15.37 12.58 15.21 13.24C15.14 13.52 15.07 13.8 15 14.08C14.32 16.83 13.64 19.58 12.95 22.32C12.79 22.96 12.47 23.15 11.83 23C11.56 22.94 11.29 22.87 11.02 22.8C10.3 22.63 10.42 22.55 10.13 23.21C9.90004 23.74 9.67004 24.27 9.44004 24.8C9.40004 24.89 9.37004 25 9.34004 25.11C9.43004 25.14 9.50004 25.17 9.56004 25.19C10.78 25.5 12 25.82 13.23 26.12C13.51 26.19 13.57 26.29 13.49 26.57C13.24 27.51 13.02 28.46 12.78 29.4C12.71 29.66 12.78 29.77 13.04 29.83C13.57 29.95 14.1 30.07 14.62 30.22C14.85 30.28 14.93 30.22 14.97 30.01C15.06 29.61 15.16 29.22 15.26 28.82C15.43 28.16 15.59 27.5 15.77 26.81L17.37 27.23L16.51 30.68Z" fill="#33257F"/>
<path d="M55.5001 0C55.3201 0.82 55.1501 1.64 54.9501 2.46C54.1701 5.71 53.3801 8.96 52.6001 12.22C52.5701 12.33 52.5601 12.45 52.5401 12.57C53.2601 12.35 53.9401 12.06 54.6601 11.93C58.0401 11.32 61.0501 11.97 63.3801 14.68C64.6001 16.1 65.2101 17.82 65.4701 19.65C66.1801 24.74 64.9301 29.3 61.5601 33.2C58.9401 36.23 55.6001 38.03 51.6001 38.47C47.7801 38.89 44.0401 38.43 40.4301 37.1C39.5101 36.76 39.5101 36.75 39.7401 35.82C42.4601 24.39 45.1901 12.95 47.9101 1.51C47.9601 1.29 48.0501 1.18 48.3001 1.14C50.5901 0.8 52.8701 0.44 55.1601 0.08C55.2501 0.07 55.3401 0.03 55.4301 0H55.5001V0ZM47.7801 32.38C47.8601 32.42 47.8901 32.44 47.9201 32.45C50.1601 32.86 52.2901 32.67 54.2101 31.33C57.4701 29.06 59.2201 24.26 58.1401 20.21C57.8501 19.1 57.2901 18.18 56.0801 17.92C55.4401 17.79 54.7601 17.76 54.1101 17.8C53.0801 17.87 52.0801 18.12 51.2601 18.8C51.1101 18.93 50.9701 19.13 50.9201 19.32C50.0901 22.68 49.2801 26.05 48.4701 29.42C48.2301 30.4 48.0001 31.38 47.7601 32.38H47.7801Z" fill="#33257F"/>
<path d="M185.08 20.54C184.99 21.21 184.95 21.88 184.8 22.54C184.33 24.67 183.83 26.79 183.33 28.9C182.64 31.8 181.94 34.7 181.25 37.6C181.2 37.83 181.11 37.92 180.87 37.92C178.66 37.92 176.45 37.92 174.24 37.92C174.15 37.92 174.05 37.9 173.92 37.89C174.13 36.99 174.34 36.12 174.55 35.24C175.47 31.35 176.4 27.47 177.3 23.58C177.56 22.47 177.78 21.34 177.65 20.18C177.49 18.79 176.6 17.9 175.2 17.78C174.06 17.68 172.93 17.79 171.82 18.01C171.7 18.03 171.56 18.21 171.53 18.34C170.85 21.16 170.17 23.98 169.5 26.8C168.65 30.38 167.79 33.96 166.94 37.54C166.87 37.82 166.77 37.93 166.46 37.93C164.3 37.91 162.14 37.93 159.98 37.93C159.86 37.93 159.74 37.92 159.59 37.91C159.82 36.94 160.05 35.99 160.27 35.05C161.98 27.99 163.68 20.92 165.38 13.86C165.46 13.54 165.59 13.4 165.91 13.29C167.8 12.69 169.7 12.16 171.67 11.93C174.19 11.64 176.72 11.46 179.23 12.04C182.65 12.82 184.77 15.33 185 18.84C185.01 19.01 185.05 19.17 185.08 19.33V20.56V20.54Z" fill="#33257F"/>
<path d="M146.2 22.2199C146.11 26.2199 145.08 29.9299 142.62 33.1499C140.55 35.8599 137.89 37.6999 134.49 38.3499C132.21 38.7799 129.92 38.7499 127.7 37.9899C124.72 36.9699 122.94 34.8199 122.08 31.8499C121.56 30.0599 121.47 28.2199 121.65 26.3699C121.91 23.7299 122.63 21.2199 123.96 18.9099C125.71 15.8999 128.13 13.6099 131.42 12.3499C134.04 11.3499 136.76 11.2699 139.46 11.9999C142.82 12.8999 144.82 15.1799 145.73 18.4699C146.07 19.6999 146.2 20.9499 146.19 22.2299L146.2 22.2199ZM139 23.1399C138.98 21.7199 138.88 20.5799 138.43 19.4999C138.02 18.5199 137.3 17.9299 136.25 17.7599C134.39 17.4499 132.81 18.0299 131.61 19.4399C128.99 22.5399 128.26 26.1299 129.16 30.0299C129.56 31.7799 130.64 32.4799 132.43 32.4699C134.12 32.4699 135.4 31.6599 136.44 30.4099C138.25 28.2199 138.89 25.6299 138.99 23.1299L139 23.1399Z" fill="#33257F"/>
<path d="M91.7601 12.2399H99.8601C99.8301 12.3999 99.8001 12.5199 99.7701 12.6499C99.3501 14.3699 98.9201 16.0799 98.5101 17.7999C98.4401 18.0799 98.3401 18.1799 98.0301 18.1799C95.6001 18.1699 93.1801 18.1799 90.7501 18.1599C90.4201 18.1599 90.3001 18.2599 90.2302 18.5799C89.5101 21.6399 88.7601 24.6899 88.0601 27.7499C87.9101 28.3999 87.8501 29.0899 87.8501 29.7499C87.8601 31.3299 88.7501 32.2399 90.3201 32.4099C92.0501 32.5999 93.7101 32.2999 95.3401 31.7899C95.4801 31.7499 95.6101 31.6999 95.7901 31.6499C95.8701 32.4199 95.9501 33.1599 96.0201 33.8899C96.1101 34.8399 96.2001 35.7799 96.3001 36.7299C96.3301 37.0399 96.3001 37.1999 95.9401 37.3299C93.2401 38.2899 90.4601 38.6499 87.6101 38.4399C86.3101 38.3399 85.0301 38.1099 83.8501 37.4799C82.0301 36.4999 81.0401 34.9399 80.6901 32.9399C80.3901 31.2399 80.5401 29.5399 80.8901 27.8799C81.5901 24.5699 82.3801 21.2899 83.1501 17.9899C84.0801 14.0399 85.0201 10.0999 85.9501 6.14993C86.0101 5.88993 86.1101 5.80993 86.3701 5.76993C88.6201 5.42993 90.8701 5.07993 93.1201 4.72993C93.2501 4.70993 93.3801 4.69993 93.5701 4.67993C92.9501 7.20993 92.3401 9.68993 91.7201 12.2199L91.7601 12.2399Z" fill="#33257F"/>
<path d="M122.06 13.0699L119.59 18.6899C118.93 18.4699 118.3 18.2299 117.66 18.0499C115.8 17.5299 113.94 17.5399 112.11 18.1799C110.55 18.7299 109.34 19.7599 108.53 21.1899C107.02 23.8299 106.7 26.6499 107.52 29.5599C108.03 31.3599 109.28 32.2599 111.14 32.4299C113.11 32.6099 115.01 32.2899 116.85 31.6199C116.96 31.5799 117.08 31.5399 117.23 31.4799C117.29 32.1199 117.36 32.7399 117.42 33.3599C117.53 34.5699 117.64 35.7799 117.74 36.9999C117.74 37.0999 117.66 37.2799 117.57 37.3199C114.2 38.6499 110.71 39.0699 107.18 38.2099C103.13 37.2199 100.59 34.6199 99.8801 30.4799C99.0501 25.5699 100.04 21.0299 103.14 17.0599C105.39 14.1799 108.4 12.4599 112 11.8399C115.31 11.2699 118.56 11.5499 121.68 12.8999C121.8 12.9499 121.92 13.0099 122.08 13.0799L122.06 13.0699Z" fill="#33257F"/>
<path d="M160.25 12.24C159.95 13.48 159.67 14.66 159.39 15.83C157.66 23.03 155.94 30.24 154.22 37.45C154.14 37.8 154.02 37.93 153.63 37.93C151.54 37.91 149.46 37.92 147.37 37.92C147.23 37.92 147.09 37.91 146.9 37.9C147.07 37.17 147.23 36.48 147.39 35.8C149.22 28.12 151.04 20.45 152.87 12.77C153 12.24 152.99 12.24 153.54 12.24C155.63 12.24 157.72 12.24 159.8 12.24H160.26H160.25Z" fill="#33257F"/>
<path d="M79.6904 12.24C79.4404 13.28 79.2003 14.29 78.9604 15.29C77.1804 22.72 75.4004 30.14 73.6204 37.57C73.5704 37.78 73.5303 37.92 73.2703 37.92C71.0303 37.92 68.7804 37.92 66.5404 37.92C66.4904 37.92 66.4504 37.9 66.3604 37.89C66.4004 37.69 66.4304 37.51 66.4704 37.33C68.4304 29.1 70.3804 20.88 72.3304 12.65C72.4004 12.34 72.5204 12.24 72.8604 12.24C75.0004 12.26 77.1303 12.24 79.2703 12.24H79.7003H79.6904Z" fill="#33257F"/>
<path d="M82.0798 4.59997C81.9998 6.11997 81.1098 7.56997 79.4198 8.47997C77.7998 9.34997 76.1598 9.31997 74.5698 8.33997C73.3398 7.57997 73.0298 6.37997 73.1298 5.04997C73.3698 1.97997 76.5598 -0.170029 79.4898 0.719971C81.2198 1.23997 82.0698 2.37997 82.0698 4.59997H82.0798Z" fill="#33257F"/>
<path d="M162.64 3.99991C162.67 6.55991 160.69 8.76991 158.28 9.03991C157.36 9.13991 156.48 9.03991 155.64 8.62991C154.17 7.91991 153.55 6.82991 153.7 5.09991C153.94 2.35991 156.24 0.409907 158.99 0.529907C159.96 0.569907 160.83 0.909907 161.57 1.52991C162.38 2.20991 162.65 3.12991 162.64 3.99991Z" fill="#33257F"/>
<path d="M16.4697 24.17C16.8397 22.7 17.1897 21.28 17.5597 19.87C17.5797 19.78 17.7597 19.63 17.8297 19.65C19.1097 19.94 20.3897 20.2 21.5497 20.85C22.0597 21.14 22.5197 21.49 22.7897 22.03C23.3697 23.2 22.6197 24.55 21.2597 24.79C20.0297 25 18.8397 24.76 17.6597 24.48C17.2797 24.39 16.8997 24.28 16.4797 24.17H16.4697Z" fill="#33257F"/>
<path d="M18.1797 17.36C18.4597 16.25 18.7197 15.18 18.9897 14.11C19.0497 13.89 19.0897 13.66 19.1697 13.45C19.2097 13.36 19.3597 13.25 19.4297 13.27C20.4497 13.5 21.4797 13.71 22.3997 14.23C22.5497 14.31 22.6897 14.41 22.8197 14.51C23.5797 15.11 23.8097 15.83 23.5197 16.68C23.2697 17.41 22.5697 17.86 21.6897 17.91C20.4897 17.97 19.3597 17.7 18.1797 17.36Z" fill="#33257F"/>
</g>
<defs>
<clipPath id="clip0_465_6740">
<rect width="185.08" height="38.64" fill="white"/>
</clipPath>
</defs>
</svg>
