<svg xmlns="http://www.w3.org/2000/svg" version="1.0" width="150.000000pt" height="32.000000pt" viewBox="0 0 300.000000 56.000000" preserveAspectRatio="xMidYMid meet">
<metadata>
Created by potrace 1.10, written by Peter Selinger 2001-2011
</metadata>
<g transform="translate(0.000000,56.000000) scale(0.100000,-0.100000)" fill="#33257F" stroke="none">
<path d="M866 484 c-43 -47 -51 -52 -69 -42 -73 39 -168 26 -226 -30 -59 -57 -75 -134 -43 -206 l18 -39 -58 -55 -58 -55 22 -24 22 -23 57 56 57 56 46 -17 c81 -31 178 -2 224 67 33 51 41 128 18 183 l-17 40 56 54 c53 51 55 54 39 72 -9 11 -22 19 -28 18 -6 -1 -33 -25 -60 -55z m-121 -84 c25 -10 25 -10 -62 -94 -48 -47 -91 -83 -95 -80 -12 8 -9 86 5 114 16 31 73 70 103 70 12 0 34 -4 49 -10z m79 -94 c15 -79 -46 -156 -123 -156 -75 0 -73 13 19 105 46 47 88 85 91 85 4 0 10 -15 13 -34z"/>
<path d="M127 456 c-82 -30 -119 -89 -119 -184 1 -80 30 -129 94 -161 69 -33 157 -22 210 26 16 14 16 17 0 37 l-16 23 -34 -24 c-61 -41 -146 -23 -177 37 -8 16 -15 50 -15 75 0 37 6 52 33 81 44 48 97 56 149 21 l36 -25 23 24 c20 21 21 27 9 35 -65 43 -135 56 -193 35z"/>
<path d="M2315 465 c-5 -2 -22 -6 -37 -9 -41 -9 -95 -61 -114 -111 -20 -55 -13 -125 17 -170 82 -119 267 -108 329 20 58 119 -13 250 -145 268 -22 3 -44 4 -50 2z m112 -99 c27 -29 33 -44 33 -81 0 -82 -47 -135 -120 -135 -101 0 -159 132 -93 210 34 41 58 51 108 45 30 -3 48 -13 72 -39z"/>
<path d="M1148 444 c-35 -19 -48 -43 -48 -92 0 -51 30 -79 106 -99 32 -8 67 -19 76 -24 21 -11 24 -49 6 -67 -20 -20 -97 -14 -136 10 l-35 21 -18 -24 c-18 -24 -18 -24 19 -46 109 -66 242 -23 242 79 0 52 -32 81 -115 103 -36 10 -70 24 -76 31 -16 20 -7 47 23 63 25 14 31 14 77 -6 l51 -21 15 20 c18 26 12 36 -31 54 -43 18 -121 17 -156 -2z"/>
<path d="M1575 280 l0 -180 33 0 34 0 -4 130 c-2 72 -2 130 -1 130 1 0 27 -39 58 -86 31 -49 60 -83 65 -78 4 5 31 45 59 89 l51 80 0 -132 0 -133 30 0 30 0 0 180 0 180 -34 0 c-31 0 -37 -6 -86 -85 -29 -47 -54 -85 -56 -85 -1 0 -26 38 -56 85 -50 80 -55 85 -88 85 l-35 0 0 -180z"/>
<path d="M2782 444 c-33 -23 -54 -70 -47 -105 9 -42 41 -67 105 -85 94 -27 119 -53 84 -88 -22 -23 -92 -20 -133 5 -31 19 -34 19 -52 3 -26 -23 -25 -27 20 -52 75 -42 174 -38 216 8 11 13 18 37 19 66 1 38 -4 50 -27 70 -15 13 -53 31 -85 40 -71 20 -84 31 -80 63 5 40 47 50 108 24 l49 -21 16 24 c15 23 14 24 -25 44 -48 25 -136 27 -168 4z"/>
</g>
</svg>
