<!-- <svg width="200" height="42" viewBox="0 0 200 42" fill="none" xmlns="http://www.w3.org/2000/svg">
<g clip-path="url(#clip0_465_6786)">
<path d="M37.5202 41.94C36.3402 40.83 35.1502 39.71 33.9502 38.58L42.9002 29.65C38.2602 22.78 40.1902 14.7 44.5302 10.43C49.3802 5.67 57.6502 4.67 63.9102 8.77C65.3602 7.3 66.8202 5.81 68.2802 4.33C69.7402 2.86 71.2002 1.41 72.6202 0L76.1402 3.47L67.3702 12.22C69.7102 15.63 70.5202 19.36 69.8902 23.37C69.3702 26.73 67.7802 29.55 65.2802 31.87C61.1202 35.74 53.0002 37.46 46.4102 33.12C44.9302 34.6 43.4302 36.09 41.9502 37.58C40.5002 39.03 39.0602 40.48 37.6202 41.93H37.5002L37.5202 41.94ZM60.1202 12.23C56.7302 9.87 51.4602 10.45 48.3702 13.56C44.9402 17.01 44.8202 22.61 46.6802 25.73C51.1502 21.24 55.6302 16.74 60.1302 12.23H60.1202ZM63.6602 16.1L50.1702 29.6C51.0602 30.26 52.2602 30.74 53.9602 30.94C57.3302 31.33 60.2202 30.33 62.4302 27.72C64.3502 25.46 65.0002 22.77 64.7602 19.86C64.6502 18.54 64.3002 17.28 63.6602 16.1Z" fill="#33257F"/>
<path d="M137.72 28.1701C134.72 23.7001 131.79 19.3401 128.87 14.9801L128.74 15.0101V35.0001H123.76V6.64009C123.92 6.63009 124.08 6.60009 124.25 6.60009C125.71 6.60009 127.16 6.61009 128.62 6.59009C128.97 6.59009 129.16 6.71009 129.35 7.00009C131.97 11.0701 134.59 15.1301 137.22 19.1901C137.38 19.4401 137.55 19.6901 137.76 20.0101C138.47 18.9201 139.14 17.9001 139.8 16.8801C141.94 13.5701 144.07 10.2601 146.22 6.96009C146.33 6.80009 146.56 6.62009 146.74 6.62009C148.39 6.59009 150.03 6.60009 151.73 6.60009V34.9901H146.82V14.9401L146.66 14.8901C143.7 19.2801 140.75 23.6701 137.72 28.1701Z" fill="#33257F"/>
<path d="M168.92 21C168.91 12.62 175.41 6.15999 183.87 6.12999C192.28 6.09999 198.82 12.48 198.82 20.72C198.82 29.24 192.36 35.72 183.83 35.72C175.36 35.72 168.93 29.38 168.92 20.99V21ZM183.91 31.07C186.69 31.06 189.08 30.11 190.93 28.01C193.03 25.64 193.76 22.84 193.45 19.73C192.96 14.64 188.71 10.42 183.19 10.81C180.92 10.97 178.92 11.74 177.31 13.33C174.54 16.06 173.7 19.41 174.43 23.16C175.35 27.9 179.2 31.08 183.89 31.08L183.91 31.07Z" fill="#33257F"/>
<path d="M85.0403 31.14L88.0403 27.57C88.5903 27.99 89.1103 28.4 89.6503 28.79C91.9503 30.46 94.5003 31.37 97.3703 31.26C98.6103 31.21 99.7803 30.95 100.83 30.21C102.46 29.06 102.59 26.13 100.69 25.03C99.2103 24.17 97.5903 23.75 95.9603 23.33C94.0203 22.83 92.0603 22.39 90.2503 21.48C87.0703 19.89 86.0203 17.43 86.1503 14.24C86.3103 10.41 89.0703 7.35 93.3103 6.6C97.9503 5.79 102.16 6.88 105.9 9.75C105.97 9.81 106.04 9.87001 106.16 9.97001L103.5 13.72C102.74 13.25 102.03 12.77 101.28 12.36C99.1703 11.22 96.9403 10.54 94.5003 10.92C93.0103 11.15 91.8003 11.82 91.2703 13.32C90.7603 14.73 91.2503 16.24 92.6203 16.91C94.0003 17.59 95.4803 18.07 96.9603 18.5C99.0003 19.09 101.08 19.55 102.98 20.53C105.17 21.65 106.65 23.35 106.99 25.84C107.62 30.43 105.15 34.19 100.6 35.24C94.9703 36.54 89.9103 35.2 85.4703 31.52C85.3403 31.41 85.2103 31.29 85.0303 31.13L85.0403 31.14Z" fill="#33257F"/>
<path d="M26.05 10.5401L22.77 14.3001C22.32 13.9401 21.91 13.5801 21.48 13.2501C19.51 11.7301 17.35 10.7401 14.78 10.7801C11.26 10.8301 8.59996 12.3601 6.77996 15.3101C4.53996 18.9401 4.88996 24.2101 7.45996 27.5201C10.67 31.6501 16.26 31.8901 19.72 29.7901C20.86 29.1001 21.91 28.2501 22.99 27.4801L26.23 30.6601C25.59 31.2501 24.98 31.8501 24.33 32.3901C21.12 35.0601 17.38 35.9701 13.28 35.6401C9.51996 35.3401 6.32996 33.8301 3.80996 31.0401C0.769959 27.7001 -0.380041 23.6901 0.109959 19.2301C0.579959 14.8401 2.59996 11.2901 6.23996 8.73011C9.17996 6.67011 12.49 5.94011 16.04 6.17011C18.63 6.34011 21.07 6.98011 23.24 8.42011C24.21 9.06011 25.09 9.81011 26.05 10.5401Z" fill="#33257F"/>
</g>
<defs>
<clipPath id="clip0_465_6786">
<rect width="235.65" height="41.94" fill="white"/>
</clipPath>
</defs>
</svg> -->

<svg xmlns="http://www.w3.org/2000/svg" version="1.0" width="150.000000pt" height="32.000000pt" viewBox="0 0 300.000000 56.000000" preserveAspectRatio="xMidYMid meet">
<metadata>
Created by potrace 1.10, written by Peter Selinger 2001-2011
</metadata>
<g transform="translate(0.000000,56.000000) scale(0.100000,-0.100000)" fill="#33257F" stroke="none">
<path d="M866 484 c-43 -47 -51 -52 -69 -42 -73 39 -168 26 -226 -30 -59 -57 -75 -134 -43 -206 l18 -39 -58 -55 -58 -55 22 -24 22 -23 57 56 57 56 46 -17 c81 -31 178 -2 224 67 33 51 41 128 18 183 l-17 40 56 54 c53 51 55 54 39 72 -9 11 -22 19 -28 18 -6 -1 -33 -25 -60 -55z m-121 -84 c25 -10 25 -10 -62 -94 -48 -47 -91 -83 -95 -80 -12 8 -9 86 5 114 16 31 73 70 103 70 12 0 34 -4 49 -10z m79 -94 c15 -79 -46 -156 -123 -156 -75 0 -73 13 19 105 46 47 88 85 91 85 4 0 10 -15 13 -34z"/>
<path d="M127 456 c-82 -30 -119 -89 -119 -184 1 -80 30 -129 94 -161 69 -33 157 -22 210 26 16 14 16 17 0 37 l-16 23 -34 -24 c-61 -41 -146 -23 -177 37 -8 16 -15 50 -15 75 0 37 6 52 33 81 44 48 97 56 149 21 l36 -25 23 24 c20 21 21 27 9 35 -65 43 -135 56 -193 35z"/>
<path d="M2315 465 c-5 -2 -22 -6 -37 -9 -41 -9 -95 -61 -114 -111 -20 -55 -13 -125 17 -170 82 -119 267 -108 329 20 58 119 -13 250 -145 268 -22 3 -44 4 -50 2z m112 -99 c27 -29 33 -44 33 -81 0 -82 -47 -135 -120 -135 -101 0 -159 132 -93 210 34 41 58 51 108 45 30 -3 48 -13 72 -39z"/>
<path d="M1148 444 c-35 -19 -48 -43 -48 -92 0 -51 30 -79 106 -99 32 -8 67 -19 76 -24 21 -11 24 -49 6 -67 -20 -20 -97 -14 -136 10 l-35 21 -18 -24 c-18 -24 -18 -24 19 -46 109 -66 242 -23 242 79 0 52 -32 81 -115 103 -36 10 -70 24 -76 31 -16 20 -7 47 23 63 25 14 31 14 77 -6 l51 -21 15 20 c18 26 12 36 -31 54 -43 18 -121 17 -156 -2z"/>
<path d="M1575 280 l0 -180 33 0 34 0 -4 130 c-2 72 -2 130 -1 130 1 0 27 -39 58 -86 31 -49 60 -83 65 -78 4 5 31 45 59 89 l51 80 0 -132 0 -133 30 0 30 0 0 180 0 180 -34 0 c-31 0 -37 -6 -86 -85 -29 -47 -54 -85 -56 -85 -1 0 -26 38 -56 85 -50 80 -55 85 -88 85 l-35 0 0 -180z"/>
<path d="M2782 444 c-33 -23 -54 -70 -47 -105 9 -42 41 -67 105 -85 94 -27 119 -53 84 -88 -22 -23 -92 -20 -133 5 -31 19 -34 19 -52 3 -26 -23 -25 -27 20 -52 75 -42 174 -38 216 8 11 13 18 37 19 66 1 38 -4 50 -27 70 -15 13 -53 31 -85 40 -71 20 -84 31 -80 63 5 40 47 50 108 24 l49 -21 16 24 c15 23 14 24 -25 44 -48 25 -136 27 -168 4z"/>
</g>
</svg>
