<svg width="246" height="61" viewBox="0 0 246 61" fill="none" xmlns="http://www.w3.org/2000/svg">
<g clip-path="url(#clip0_465_6755)">
<path d="M53.4604 35.9501C53.6604 39.1601 56.2804 43.1601 60.7204 43.1701C63.7504 43.1701 65.5904 41.7701 66.8804 39.9701C67.1104 39.6501 67.6104 39.6001 67.9504 39.8001C68.1304 39.9101 68.2604 40.0801 68.3104 40.2901C68.3604 40.4901 68.3104 40.7101 68.2004 40.8801C67.0204 42.6401 64.5104 44.8801 60.6104 44.7001C57.7404 44.7001 55.6504 43.2001 54.1204 41.5501C52.8904 40.2101 51.9404 37.9501 51.9404 35.2301C51.9404 32.5101 52.7504 30.3801 54.3704 28.7301C55.9904 27.0801 57.9304 25.8801 60.6104 25.8801C63.2904 25.8801 65.2504 26.8901 66.7904 28.5401C68.7804 30.6701 69.3204 32.8701 69.4004 35.1901C69.4004 35.4001 69.3304 35.6001 69.1904 35.7501C69.0504 35.9001 68.8504 35.9801 68.6404 35.9801H53.4704L53.4604 35.9501ZM60.6104 27.3201C58.6304 27.3301 57.1504 28.2101 55.8804 29.3301C54.6104 30.4501 53.7404 32.5601 53.5304 34.5201H67.6704C67.5504 32.5601 66.6204 30.7401 65.4704 29.5201C64.3404 28.3201 63.1704 27.3001 60.6004 27.3201H60.6104Z" fill="#33257F"/>
<path d="M123.48 35.9501C123.68 39.1601 126.3 43.1601 130.74 43.1701C133.77 43.1701 135.61 41.7701 136.9 39.9701C137.13 39.6501 137.63 39.6001 137.97 39.8001C138.15 39.9101 138.28 40.0801 138.33 40.2901C138.38 40.4901 138.33 40.7101 138.22 40.8801C137.04 42.6401 134.53 44.8801 130.63 44.7001C127.76 44.7001 125.67 43.2001 124.14 41.5501C122.91 40.2101 121.96 37.9501 121.96 35.2301C121.96 32.5101 122.77 30.3801 124.39 28.7301C126.01 27.0801 127.95 25.8801 130.63 25.8801C133.31 25.8801 135.27 26.8901 136.81 28.5401C138.8 30.6701 139.34 32.8701 139.42 35.1901C139.42 35.4001 139.35 35.6001 139.21 35.7501C139.07 35.9001 138.87 35.9801 138.66 35.9801H123.49L123.48 35.9501ZM130.63 27.3201C128.65 27.3301 127.17 28.2101 125.9 29.3301C124.63 30.4501 123.76 32.5601 123.55 34.5201H137.69C137.57 32.5601 136.64 30.7401 135.49 29.5201C134.36 28.3201 133.19 27.3001 130.62 27.3201H130.63Z" fill="#33257F"/>
<path d="M166.81 35.9501C167.01 39.1601 169.63 43.1601 174.07 43.1701C177.1 43.1701 178.94 41.7701 180.23 39.9701C180.46 39.6501 180.96 39.6001 181.3 39.8001C181.48 39.9101 181.61 40.0801 181.66 40.2901C181.71 40.4901 181.66 40.7101 181.55 40.8801C180.37 42.6401 177.86 44.8801 173.96 44.7001C171.09 44.7001 169 43.2001 167.47 41.5501C166.24 40.2101 165.29 37.9501 165.29 35.2301C165.29 32.5101 166.1 30.3801 167.72 28.7301C169.34 27.0801 171.28 25.8801 173.96 25.8801C176.64 25.8801 178.6 26.8901 180.14 28.5401C182.13 30.6701 182.67 32.8701 182.75 35.1901C182.75 35.4001 182.68 35.6001 182.54 35.7501C182.4 35.9001 182.2 35.9801 181.99 35.9801H166.82L166.81 35.9501ZM173.96 27.3201C171.98 27.3301 170.5 28.2101 169.23 29.3301C167.96 30.4501 167.09 32.5601 166.88 34.5201H181.02C180.9 32.5601 179.97 30.7401 178.82 29.5201C177.69 28.3201 176.52 27.3001 173.95 27.3201H173.96Z" fill="#33257F"/>
<path d="M83.5804 27.6401V43.7301C83.5804 44.1201 83.2604 44.4401 82.8704 44.4401C82.4804 44.4401 82.1604 44.1201 82.1604 43.7301V27.6401H78.1204C77.7404 27.6401 77.4404 27.3301 77.4404 26.9601C77.4404 26.5901 77.7504 26.2801 78.1204 26.2801H82.1604V20.3201C82.1604 19.9301 82.4804 19.6101 82.8704 19.6101H82.8904C83.2704 19.6101 83.5704 19.9201 83.5704 20.2901V26.2801H87.7404C88.1204 26.2801 88.4204 26.5901 88.4204 26.9601C88.4204 27.3301 88.1104 27.6401 87.7404 27.6401H83.5704H83.5804Z" fill="#33257F"/>
<path d="M106.36 26.0701C103.55 25.6801 100.89 26.6201 99.0604 29.6501V11.7901C99.0604 11.4101 98.7504 11.1101 98.3804 11.1101H98.3604C97.9704 11.1101 97.6504 11.4301 97.6504 11.8201V43.7301C97.6504 44.1201 97.9704 44.4401 98.3604 44.4401C98.7504 44.4401 99.0704 44.1201 99.0704 43.7301V32.9501C99.0704 29.9301 102.9 26.6801 106.37 27.4501C108.61 27.9501 110.84 30.1701 110.83 33.7201V43.7301C110.83 44.1201 111.15 44.4401 111.54 44.4401C111.93 44.4401 112.25 44.1201 112.25 43.7301V33.7501C112.45 30.7101 110.35 26.6201 106.38 26.0701H106.36Z" fill="#33257F"/>
<path d="M198.281 44.7401C201.091 45.1301 203.751 44.1901 205.581 41.1601V43.7301C205.581 44.1101 205.891 44.4101 206.261 44.4101H206.281C206.671 44.4101 206.991 44.0901 206.991 43.7001V27.0801C206.991 26.6901 206.671 26.3701 206.281 26.3701C205.891 26.3701 205.571 26.6901 205.571 27.0801L205.661 35.8901C205.661 40.4601 202.091 44.1201 198.361 43.3301C196.121 42.8501 193.801 40.6501 193.811 37.1001V27.0901C193.811 26.7001 193.491 26.3801 193.101 26.3801C192.711 26.3801 192.391 26.7001 192.391 27.0901V37.0701C192.391 40.8001 194.291 44.2001 198.261 44.7501L198.281 44.7401Z" fill="#33257F"/>
<path d="M239.23 26.0702C236.47 25.6902 233 26.8802 231.54 30.7802C230.69 28.5302 228.79 26.4502 226.03 26.0702C223.22 25.6802 220.53 26.5402 218.7 29.5702V27.0002C218.7 26.6202 218.39 26.3202 218.02 26.3202H218C217.61 26.3202 217.29 26.6402 217.29 27.0302V43.6502C217.29 44.0402 217.61 44.3602 218 44.3602C218.39 44.3602 218.71 44.0402 218.71 43.6502L218.62 34.8402C218.62 30.2702 222.21 26.6902 225.94 27.4802C228.1 27.9402 230.32 30.0002 230.48 33.3202V43.6502C230.48 43.6502 230.48 43.7002 230.49 43.7202C230.49 44.1102 230.92 44.4302 231.31 44.4302C231.7 44.4302 232.02 44.1102 232.02 43.7202V41.3102C232.02 39.7302 232.03 37.6402 232.03 36.0302C232.03 31.0902 234.26 26.7202 239.13 27.4702C241.4 27.8202 243.69 30.1502 243.68 33.7002V43.7102C243.68 44.1002 244 44.4202 244.39 44.4202C244.78 44.4202 245.1 44.1002 245.1 43.7102V33.7302C245.3 30.6902 243.2 26.6002 239.23 26.0502V26.0702Z" fill="#33257F"/>
<path d="M157.941 27.06C157.941 26.85 157.841 26.64 157.681 26.51C157.511 26.38 157.301 26.36 157.091 26.37C154.181 26.44 151.431 28.82 150.721 30.63V26.94C150.721 26.56 150.411 26.26 150.041 26.26H150.021C149.631 26.26 149.311 26.58 149.311 26.97V43.59C149.311 43.98 149.631 44.3 150.021 44.3C150.411 44.3 150.731 43.98 150.731 43.59L150.781 35.27C150.781 31.28 153.861 27.9 157.411 27.73C157.731 27.71 157.961 27.39 157.961 27.07L157.941 27.06Z" fill="#33257F"/>
<path d="M18.5498 45.25V60.3601L37.0998 34.3L18.5498 45.25Z" fill="#33257F"/>
<path d="M18.5498 22.3501V41.7501L37.0998 30.7801L18.5498 22.3501Z" fill="#33257F"/>
<path d="M18.5498 0V22.35L37.0998 30.78L18.5498 0Z" fill="#33257F"/>
<path d="M18.55 45.25V60.3601L0 34.3L18.55 45.25Z" fill="#33257F"/>
<path d="M18.55 22.3501V41.7501L0 30.7801L18.55 22.3501Z" fill="#33257F"/>
<path d="M18.55 0V22.35L0 30.78L18.55 0Z" fill="#33257F"/>
</g>
<defs>
<clipPath id="clip0_465_6755">
<rect width="245.12" height="60.36" fill="white"/>
</clipPath>
</defs>
</svg>
