<svg width="138" height="57" viewBox="0 0 138 57" fill="none" xmlns="http://www.w3.org/2000/svg">
<g clip-path="url(#clip0_465_6731)">
<path d="M24.21 0H24.46C24.9 0.29 25.34 0.6 25.8 0.87C33.07 5.07 40.35 9.28 47.64 13.46C48.29 13.83 48.69 14.17 48.68 15.04C48.64 23.72 48.64 32.39 48.68 41.07C48.68 41.84 48.42 42.24 47.76 42.61C44.76 44.29 41.79 46.01 38.82 47.74C34.03 50.52 29.25 53.32 24.47 56.12H24.22C23.78 55.83 23.34 55.52 22.88 55.25C15.61 51.05 8.33 46.84 1.04 42.66C0.39 42.28 0 41.94 0 41.07C0.04 32.39 0.04 23.72 0 15.04C0 14.27 0.26 13.87 0.92 13.5C3.92 11.82 6.89 10.11 9.86 8.38C14.66 5.6 19.43 2.8 24.21 0ZM21.8 3.42C21.55 3.55 21.32 3.65 21.11 3.77C15.73 6.88 10.34 9.98 4.97 13.09C3.88 13.72 3.89 14.32 4.99 14.96C10.37 18.07 15.75 21.18 21.15 24.24C21.49 24.43 22.02 24.3 22.46 24.3C23.67 24.3 24.9 24.12 26.07 24.31C26.66 24.41 27.08 24.52 27.63 24.2C32.93 21.12 38.24 18.06 43.55 14.99C44.8 14.26 44.81 13.72 43.55 13C38.24 9.93 32.94 6.86 27.61 3.83C27.23 3.61 26.58 3.58 26.17 3.74C24.9 4.25 23.68 4.3 22.44 3.71C22.22 3.61 22 3.5 21.77 3.4L21.8 3.42ZM22.71 42.03C22.71 39 22.74 35.97 22.68 32.94C22.68 32.47 22.35 31.88 21.99 31.56C20.98 30.67 20.29 29.68 20.17 28.3C20.14 27.9 19.8 27.39 19.45 27.19C14.05 24.03 8.64 20.91 3.22 17.79C2.24 17.23 1.75 17.5 1.75 18.64C1.74 24.91 1.73 31.18 1.77 37.45C1.77 37.85 2.06 38.38 2.38 38.62C3.44 39.42 4.11 40.45 4.2 41.74C4.25 42.49 4.57 42.82 5.15 43.15C10.43 46.17 15.7 49.22 20.98 52.25C22.22 52.96 22.71 52.68 22.71 51.25C22.71 48.18 22.71 45.11 22.71 42.03ZM46.94 27.96C46.94 24.84 46.94 21.73 46.94 18.61C46.94 17.42 46.43 17.11 45.41 17.71C40 20.85 34.59 24 29.21 27.18C28.87 27.38 28.55 27.9 28.5 28.3C28.35 29.67 27.71 30.69 26.67 31.56C26.32 31.85 26 32.4 26 32.83C25.96 38.98 25.97 45.13 25.98 51.27C25.98 52.52 26.51 52.81 27.59 52.19C32.94 49.11 38.29 46.03 43.61 42.91C44.01 42.68 44.18 42.06 44.44 41.61C45.03 40.6 45.47 39.46 46.24 38.61C46.7 38.1 46.95 37.72 46.95 37.05C46.93 34.02 46.95 30.98 46.95 27.95L46.94 27.96Z" fill="#33257F"/>
<path d="M137.37 35.0999C137.28 35.7899 137.22 36.4999 137.08 37.1799C136.38 40.6299 134.2 42.7599 130.89 43.5699C125.75 44.8399 120.77 44.1199 116 41.8699C115.86 41.7999 115.73 41.6999 115.55 41.5899L116.61 38.6399C116.84 38.7299 117.04 38.8099 117.23 38.8899C120.67 40.4699 124.28 41.1499 128.05 40.8999C130.02 40.7699 131.8 40.1399 132.81 38.2699C133.69 36.6399 133.82 34.8899 133.32 33.1099C133.02 32.0299 132.34 31.1599 131.3 30.7499C129.85 30.1799 128.34 29.7199 126.84 29.2899C124.98 28.7599 123.09 28.3499 121.24 27.7999C119.82 27.3799 118.52 26.6699 117.47 25.5899C115.83 23.9199 115.42 21.8599 115.65 19.6199C116.04 15.8099 118.37 13.6299 122.16 12.7199C126.34 11.7099 130.49 11.9899 134.52 13.5499C135.08 13.7699 135.61 14.0699 136.18 14.3399L135.16 17.2199C134.15 16.8499 133.19 16.4499 132.19 16.1599C129.24 15.2899 126.25 15.0199 123.24 15.7599C121.49 16.1899 120.09 17.0999 119.56 18.9699C118.86 21.4399 119.7 23.3999 122.1 24.2999C123.82 24.9499 125.66 25.3199 127.45 25.7899C129.44 26.3099 131.46 26.6699 133.31 27.6499C135.78 28.9599 137.11 30.9899 137.29 33.7799C137.3 33.9799 137.36 34.1699 137.39 34.3699V35.0999H137.37Z" fill="#33257F"/>
<path d="M74.7899 43.65H71.1299V12.8C71.2599 12.78 71.3499 12.75 71.4499 12.75C75.2599 12.78 79.0799 12.76 82.8899 12.87C84.7199 12.92 86.4599 13.47 88.0499 14.42C89.6999 15.41 90.7399 16.85 91.1799 18.69C91.6999 20.85 91.5799 23.02 90.8899 25.13C89.9899 27.87 87.9799 29.39 85.2799 30.12C82.5499 30.86 79.7699 30.82 76.9899 30.67C76.2899 30.63 75.5799 30.57 74.7999 30.51V43.64L74.7899 43.65ZM74.7999 16.09V27.5C74.9199 27.52 75.0099 27.56 75.1099 27.56C77.0899 27.56 79.0699 27.67 81.0399 27.55C82.3299 27.47 83.6099 27.13 84.8599 26.76C85.9999 26.42 86.7399 25.56 87.1999 24.46C87.7899 23.06 87.8299 21.6 87.6299 20.13C87.4299 18.66 86.6399 17.61 85.3299 16.94C84.1899 16.36 82.9799 16.12 81.7099 16.1C79.8399 16.08 77.9599 16.1 76.0799 16.09C75.6599 16.09 75.2399 16.09 74.7999 16.09Z" fill="#33257F"/>
<path d="M99.2799 16.3099V26.9899H111.86V30.0399H99.2599V43.6499H95.6699V13.1499H112.66L112.51 16.3099H99.2799Z" fill="#33257F"/>
<path d="M60.7402 43.6499V13.1399H64.2602V43.6499H60.7402Z" fill="#33257F"/>
</g>
<defs>
<clipPath id="clip0_465_6731">
<rect width="137.37" height="56.11" fill="white"/>
</clipPath>
</defs>
</svg>
