<svg width="267" height="59" viewBox="0 0 267 59" fill="none" xmlns="http://www.w3.org/2000/svg">
<g clip-path="url(#clip0_465_6775)">
<path d="M0 11.9501C0.12 11.7101 0.28 11.4701 0.37 11.2201C0.72 10.2201 1.33 9.45009 2.27 8.93009C6.95 6.29009 11.63 3.65009 16.31 1.01009C17.98 0.070094 19.61 0.090094 21.28 1.06009C25.79 3.67009 30.31 6.25009 34.83 8.84009C36.31 9.68009 37.05 10.9401 37.06 12.6301C37.06 14.0901 37.09 15.5601 37.04 17.0201C37.03 17.3801 36.88 17.9001 36.63 18.0601C34.73 19.2201 32.79 20.3001 30.7 21.5001C30.7 19.6601 30.66 18.0001 30.71 16.3501C30.76 14.5801 30 13.2901 28.51 12.4201C25.94 10.9301 23.36 9.46009 20.75 8.04009C19.29 7.24009 17.78 7.29009 16.32 8.11009C13.73 9.57009 11.12 11.0001 8.55 12.4801C7.17 13.2801 6.51 14.5301 6.5 16.1201C6.5 18.9701 6.53 21.8101 6.49 24.6601C6.46 26.4201 7.22 27.7501 8.68 28.6101C11.27 30.1501 13.9 31.6201 16.53 33.0801C18.12 33.9601 19.7 33.8301 21.28 32.9201C26.22 30.0801 31.19 27.2801 36.13 24.4501C39.63 22.4501 43.14 20.4701 46.6 18.4101C48.43 17.3301 50.12 17.2901 51.98 18.3901C56.37 20.9601 60.81 23.4501 65.26 25.9101C67.13 26.9401 68 28.3301 67.95 30.5301C67.84 35.5301 67.87 40.5301 67.93 45.5301C67.95 47.4501 67.21 48.7801 65.55 49.7101C60.86 52.3301 56.19 55.0001 51.5 57.6101C50.18 58.3501 48.78 58.4301 47.41 57.6601C42.55 54.9301 37.69 52.2001 32.85 49.4401C31.55 48.7001 30.9 47.5401 30.92 46.0101C30.94 44.4701 30.94 42.9201 30.92 41.3801C30.92 40.8401 31.07 40.4601 31.57 40.1801C33.34 39.1801 35.1 38.1601 37.1 37.0101C37.1 37.8801 37.1 38.5801 37.1 39.2801C37.1 40.2101 37.07 41.1501 37.1 42.0801C37.16 43.7801 37.88 45.1501 39.37 46.0201C41.9 47.4901 44.44 48.9501 47.03 50.3301C48.6 51.1601 50.23 51.1401 51.81 50.2101C54.16 48.8301 56.52 47.4501 58.9 46.1301C60.68 45.1401 61.52 43.6701 61.51 41.6501C61.49 39.0901 61.51 36.5301 61.51 33.9701C61.51 31.9701 60.67 30.4601 58.9 29.4701C56.66 28.2201 54.41 26.9901 52.2 25.6901C50.21 24.5101 48.35 24.5601 46.34 25.7201C38.01 30.5101 29.64 35.2201 21.3 39.9901C19.59 40.9701 18 41.0401 16.26 40.0201C11.83 37.4501 7.35 34.9501 2.86 32.4601C1.55 31.7301 0.53 30.8401 0.25 29.2901C0.23 29.1901 0.1 29.1101 0.01 29.0201C0.01 23.3301 0.01 17.6401 0.01 11.9501H0Z" fill="#33257F"/>
<path d="M149.96 0C150.03 0.35 150.16 0.7 150.16 1.05C150.17 14.02 150.16 26.98 150.16 39.95C150.16 40.15 150.13 40.35 150.11 40.63H142.96C142.93 40.41 142.85 40.14 142.85 39.88C142.85 26.59 142.85 13.3 142.85 0H149.94L149.96 0Z" fill="#33257F"/>
<path d="M200.4 19.7299C201.04 18.7433 202.016 18.2499 203.33 18.2499C204.76 18.2499 206.18 18.2699 207.61 18.2799C207.68 18.2799 207.75 18.3399 207.99 18.4299V19.7799C207.99 26.3199 207.81 32.8699 208.04 39.4099C208.27 46.0699 203.88 49.8299 199.51 51.1699C193.53 52.9999 188.01 52.1199 183.16 47.9999C183.04 47.8999 182.94 47.7699 182.75 47.5599L186.89 42.7799C187.97 43.4899 188.91 44.2399 189.95 44.7599C192.58 46.0699 195.28 46.0999 197.95 44.8299C199.55 44.0599 200.42 42.7399 200.55 40.9899C200.62 39.9499 200.56 38.8899 200.56 37.8399L200.17 37.5099C200.07 37.7699 200.04 38.0899 199.86 38.2799C197.65 40.6699 194.78 41.3499 191.66 41.3099C186.39 41.2399 181.95 37.2199 180.69 32.2999C179.39 27.1999 181.5 21.7999 185.99 18.9599C190.3 16.2299 196.14 16.5299 200.17 19.6699C200.23 19.7099 200.32 19.7199 200.4 19.7399V19.7299ZM200.58 29.3299C200.58 28.7999 200.54 28.2699 200.58 27.7499C200.73 26.2799 200.01 25.2499 198.92 24.4399C197.43 23.3299 195.72 22.8399 193.88 22.9499C190.5 23.1499 187.92 25.6699 187.87 28.8299C187.83 31.5999 189.01 33.7399 191.56 34.8899C194.2 36.0699 196.73 35.5799 199.02 33.8799C200.12 33.0699 200.81 32.0199 200.58 30.5499C200.52 30.1499 200.58 29.7399 200.58 29.3299Z" fill="#33257F"/>
<path d="M82.71 17.66H88.88L89.5 19.97C91.37 19.13 93.13 18.05 95.05 17.52C99.61 16.25 103.73 17.17 106.89 20.88C109.07 23.44 109.75 26.56 109.65 29.87C109.6 31.64 109.26 33.33 108.49 34.93C106.6 38.9 103.19 40.6 99.07 41.19C96.94 41.49 94.83 41.33 92.84 40.45C91.89 40.03 91 39.47 89.95 38.9V51.35H82.71V17.66ZM90.01 29.27C90.01 29.88 90.05 30.49 90.01 31.1C89.94 32.01 90.27 32.76 90.81 33.46C92.5 35.66 95.95 36.31 98.7 34.94C101.43 33.58 102.71 30.78 101.9 27.78C100.77 23.58 96.95 22.32 93.2 23.7C90.88 24.56 90.02 25.95 90.02 28.42C90.02 28.7 90.02 28.99 90.02 29.27H90.01Z" fill="#33257F"/>
<path d="M225.61 41.24C221.63 41.09 218.28 40.15 215.54 37.49C210.84 32.93 210.61 21.99 219.49 18.27C223.71 16.5 227.95 16.49 232.11 18.55C236.75 20.85 238.9 25.96 238.35 30.5C237.65 36.4 233.62 40.13 227.86 40.98C227.02 41.1 226.17 41.18 225.61 41.24ZM224.78 35.39C227.72 35.41 229.67 34.04 230.45 31.72C230.88 30.43 230.97 29.11 230.72 27.76C230.34 25.69 229.29 24.13 227.26 23.43C225.18 22.72 223.25 23.06 221.59 24.56C219.46 26.5 219.1 29.74 220.63 32.62C221.63 34.5 223.2 35.35 224.79 35.39H224.78Z" fill="#33257F"/>
<path d="M125.26 41.3901C123.16 41.2901 121.12 40.9601 119.19 40.1201C115.18 38.3901 112.91 35.2801 112.41 31.0201C111.85 26.2501 113.22 22.1701 117.41 19.4001C122.09 16.3101 129.01 16.3201 133.33 19.4401C137.56 22.5001 139.06 26.7801 138.06 31.7601C137.06 36.7801 133.74 39.7901 128.76 40.9201C127.62 41.1801 126.43 41.2401 125.26 41.3901ZM130.92 28.9901C130.84 28.5001 130.79 27.7601 130.61 27.0601C129.58 23.1301 124.91 21.6401 121.75 24.2001C119.55 25.9901 119.04 30.1901 120.7 32.8101C122.27 35.2901 125.4 36.1301 127.97 34.7401C130.16 33.5501 130.81 31.5301 130.93 28.9901H130.92Z" fill="#33257F"/>
<path d="M250.05 40.65H242.92V18.33H249.45C249.62 19.32 249.79 20.34 250 21.56C250.33 21.18 250.55 20.93 250.76 20.67C253.32 17.45 258.39 16.13 262.16 17.73C265.05 18.96 266.47 21.15 266.45 24.31C266.42 29.02 266.45 33.73 266.45 38.44V40.6H259.1C259.08 40.22 259.05 39.8 259.05 39.37C259.05 35.47 259.05 31.57 259.05 27.67C259.05 27.39 259.06 27.1 259.05 26.82C258.99 25.53 258.8 24.27 257.5 23.6C256.09 22.87 254.65 23.01 253.32 23.82C251.68 24.82 250.92 26.45 250.52 28.22C250.25 29.44 250.17 30.71 250.14 31.96C250.08 34.4 250.13 36.83 250.12 39.27C250.12 39.7 250.08 40.14 250.06 40.63L250.05 40.65Z" fill="#33257F"/>
<path d="M167.5 31.5099C168.58 29.1399 169.58 26.9299 170.58 24.7299C171.42 22.8799 172.27 21.0499 173.07 19.1799C173.36 18.4899 173.75 18.1999 174.53 18.2299C176.32 18.2899 178.1 18.2499 180.07 18.2499C179.14 20.3499 178.27 22.2999 177.4 24.2499C173.54 32.9199 169.67 41.5799 165.85 50.2699C165.43 51.2199 164.94 51.6099 163.87 51.5499C162.05 51.4499 160.22 51.5199 158.21 51.5199C159.12 49.5299 159.95 47.6999 160.79 45.8699C161.62 44.0699 162.44 42.2499 163.31 40.4699C163.63 39.8199 163.58 39.3099 163.26 38.6699C160.16 32.4699 157.09 26.2399 154.02 20.0299C153.76 19.4999 153.51 18.9599 153.19 18.2599C155.9 18.2599 158.42 18.2299 160.94 18.2999C161.25 18.2999 161.68 18.7599 161.84 19.0999C163.44 22.5599 165 26.0299 166.57 29.5099C166.85 30.1299 167.14 30.7399 167.5 31.5299V31.5099Z" fill="#33257F"/>
</g>
<defs>
<clipPath id="clip0_465_6775">
<rect width="266.46" height="58.21" fill="white"/>
</clipPath>
</defs>
</svg>
