<svg width="244" height="30" viewBox="0 0 244 30" fill="none" xmlns="http://www.w3.org/2000/svg">
<g clip-path="url(#clip0_465_6772)">
<path d="M71.3602 11.85H53.5802V5.92999H75.9902V-9.76585e-06H53.5402C52.0002 -9.76585e-06 50.5002 0.60999 49.4002 1.69999C48.3002 2.78999 47.7002 4.29999 47.7002 5.83999V11.85C47.7002 13.39 48.3102 14.89 49.4002 15.99C50.4902 17.09 52.0002 17.69 53.5402 17.69H71.3202V23.62H48.0602V29.55H71.3602C72.9002 29.55 74.4002 28.94 75.5002 27.85C76.6002 26.76 77.2002 25.25 77.2002 23.71V17.7C77.2002 16.16 76.5902 14.66 75.5002 13.56C74.4402 12.46 72.9402 11.86 71.3602 11.86V11.85ZM105.86 -9.76585e-06H88.0002C87.2302 -9.76585e-06 86.4602 0.15999 85.7702 0.44999C85.0402 0.72999 84.3902 1.17999 83.8602 1.70999C83.3302 2.23999 82.8902 2.88999 82.6002 3.61999C82.3102 4.34999 82.1502 5.07999 82.1502 5.84999V23.75C82.1502 24.52 82.3102 25.29 82.6002 25.98C82.8802 26.71 83.3302 27.36 83.8602 27.89C84.3902 28.42 85.0402 28.86 85.7702 29.15C86.5002 29.44 87.2302 29.6 88.0002 29.6H105.86C107.4 29.6 108.9 28.99 110 27.9C111.1 26.81 111.7 25.3 111.7 23.76V5.88999C111.7 4.34999 111.09 2.84999 110 1.74999C108.9 0.64999 107.4 -9.76585e-06 105.86 -9.76585e-06ZM105.82 23.71H88.0802V5.96999H105.82V23.71ZM168.37 -9.76585e-06H150.96C149.42 -9.76585e-06 147.92 0.60999 146.82 1.69999C145.72 2.78999 145.12 4.29999 145.12 5.83999V29.55H151.01V19.81H168.34V29.55H174.27V5.88999C174.27 5.11999 174.11 4.34999 173.82 3.65999C173.54 2.92999 173.09 2.27999 172.56 1.74999C172.03 1.21999 171.38 0.77999 170.65 0.48999C169.92 0.16999 169.15 -9.76585e-06 168.38 -9.76585e-06H168.37ZM168.33 13.96H151V5.92999H168.33V13.96ZM237.66 -9.76585e-06H220.25C219.48 -9.76585e-06 218.71 0.15999 217.98 0.44999C217.25 0.73999 216.6 1.17999 216.07 1.70999C215.54 2.23999 215.1 2.88999 214.81 3.61999C214.53 4.34999 214.36 5.07999 214.36 5.84999V29.55H220.29V19.81H237.62V29.55H243.55V5.88999C243.55 4.34999 242.94 2.84999 241.85 1.74999C240.71 0.64999 239.25 -9.76585e-06 237.67 -9.76585e-06H237.66ZM237.62 13.96H220.29V5.92999H237.62V13.96ZM203.2 23.7H200.85L192.37 2.46999C192.09 1.73999 191.56 1.12999 190.95 0.67999C190.3 0.22999 189.53 -0.0100098 188.76 -0.0100098H183.48C182.42 -0.0100098 181.45 0.39999 180.72 1.12999C179.99 1.85999 179.58 2.87999 179.58 3.88999V29.59H185.51V5.92999H187.86L196.34 27.16C196.62 27.89 197.11 28.5 197.76 28.95C198.41 29.4 199.18 29.64 199.95 29.64H205.23C206.29 29.64 207.26 29.23 207.99 28.5C208.72 27.77 209.13 26.75 209.13 25.74V0.0399902H203.2V23.71V23.7ZM122.87 -9.76585e-06H116.94V23.75C116.94 25.29 117.55 26.79 118.64 27.89C119.73 28.99 121.24 29.59 122.78 29.59H140.56V23.66H122.82V-9.76585e-06H122.86H122.87Z" fill="#33257F"/>
<path d="M5.63977 22.57C5.75977 22.45 5.87977 22.3701 6.00977 22.2901C6.12977 22.2101 6.28977 22.21 6.45977 22.21H32.2798C32.3998 22.21 32.4798 22.25 32.5998 22.2901C32.6798 22.3301 32.7598 22.4501 32.7998 22.5301C32.8398 22.6101 32.8398 22.73 32.8398 22.85C32.8398 22.9701 32.7598 23.05 32.7198 23.13L27.2398 29.22C27.1198 29.34 26.9998 29.42 26.8698 29.5C26.7398 29.58 26.5898 29.58 26.4198 29.58H0.569766C0.449766 29.58 0.369766 29.5401 0.249766 29.5C0.169766 29.46 0.0897656 29.34 0.0497656 29.26C0.00976562 29.18 0.00976562 29.0601 0.00976562 28.9401C0.00976562 28.82 0.0897656 28.74 0.129766 28.66L5.64977 22.57H5.63977ZM32.7098 17.5401C32.7898 17.6201 32.8298 17.7 32.8298 17.82C32.8298 17.9401 32.8298 18.02 32.7898 18.14C32.7498 18.22 32.6698 18.34 32.5898 18.38C32.5098 18.42 32.3898 18.46 32.2698 18.46L6.48977 18.5C6.32977 18.5 6.16977 18.4601 6.03977 18.42C5.90977 18.38 5.75977 18.26 5.66977 18.14L0.159766 12.1C0.0797656 12.02 0.0397656 11.94 0.0397656 11.82C0.0397656 11.7 0.0397656 11.62 0.0797656 11.5C0.119766 11.42 0.199766 11.3 0.279766 11.26C0.359766 11.22 0.479766 11.18 0.599766 11.18L26.4598 11.14C26.6198 11.14 26.7798 11.18 26.9098 11.22C27.0298 11.3 27.1898 11.38 27.2798 11.5L32.7198 17.55L32.7098 17.5401ZM5.63977 0.410049C5.75977 0.290049 5.87977 0.210049 6.00977 0.130049C6.13977 0.0500488 6.28977 0.0500488 6.45977 0.0500488L32.3198 0.0900488C32.4398 0.0900488 32.5198 0.130049 32.6398 0.170049C32.7198 0.210049 32.7998 0.330049 32.8398 0.410049C32.8798 0.490049 32.8798 0.610049 32.8798 0.730049C32.8798 0.850049 32.7998 0.930049 32.7598 1.01005L27.2798 7.06005C27.1598 7.18005 27.0398 7.26005 26.9098 7.34005C26.7798 7.42005 26.6298 7.42005 26.4598 7.42005H0.569766C0.449766 7.42005 0.369766 7.38005 0.249766 7.34005C0.169766 7.30005 0.0897656 7.18005 0.0497656 7.10005C0.00976562 7.02005 0.00976562 6.90005 0.00976562 6.78005C0.00976562 6.66005 0.0897656 6.58005 0.129766 6.50005L5.63977 0.410049Z" fill="#33257F"/>
</g>
<defs>
<clipPath id="clip0_465_6772">
<rect width="243.55" height="29.63" fill="white"/>
</clipPath>
</defs>
</svg>
