<svg width="215" height="267" viewBox="0 0 215 267" fill="none" xmlns="http://www.w3.org/2000/svg">
<path d="M108.538 265.78L116.783 256.469L116.221 251.23L111.647 245.221L115.97 239.705L111.712 233.904L115.719 228.18L115.734 221.982C124.408 218.574 129.674 209.359 127.8 199.891C125.681 189.251 115.344 182.332 104.705 184.44C94.0594 186.554 87.1458 196.886 89.2544 207.526C90.5709 214.185 95.1155 219.386 100.944 221.829L100.686 254.822L108.543 265.775L108.538 265.78ZM108.035 201.242C105.638 201.719 103.313 200.161 102.836 197.765C102.359 195.368 103.917 193.042 106.313 192.566C108.71 192.089 111.036 193.647 111.512 196.043C111.989 198.44 110.431 200.765 108.035 201.242Z" fill="white" stroke="white" stroke-width="1.01846" stroke-linejoin="round"/>
<path d="M20.5378 265.78L28.7835 256.469L28.2213 251.23L23.6468 245.221L27.9701 239.705L23.7124 233.904L27.719 228.18L27.7336 221.982C36.408 218.574 41.6738 209.359 39.8002 199.891C37.6811 189.251 27.3441 182.332 16.7046 184.44C6.05941 186.554 -0.854235 196.886 1.25439 207.526C2.5709 214.185 7.11548 219.386 12.944 221.829L12.6863 254.822L20.5435 265.775L20.5378 265.78ZM20.0346 201.242C17.638 201.719 15.3126 200.161 14.8358 197.765C14.3591 195.368 15.9169 193.042 18.3135 192.566C20.7101 192.089 23.0356 193.647 23.5123 196.043C23.989 198.44 22.4312 200.765 20.0346 201.242Z" fill="white" stroke="white" stroke-width="1.01846" stroke-linejoin="round"/>
<path d="M194.538 265.78L202.783 256.469L202.221 251.23L197.647 245.221L201.97 239.705L197.712 233.904L201.719 228.18L201.734 221.982C210.408 218.574 215.674 209.359 213.8 199.891C211.681 189.251 201.344 182.332 190.705 184.44C180.059 186.554 173.146 196.886 175.254 207.526C176.571 214.185 181.115 219.386 186.944 221.829L186.686 254.822L194.543 265.775L194.538 265.78ZM194.035 201.242C191.638 201.719 189.313 200.161 188.836 197.765C188.359 195.368 189.917 193.042 192.313 192.566C194.71 192.089 197.036 193.647 197.512 196.043C197.989 198.44 196.431 200.765 194.035 201.242Z" fill="white" stroke="white" stroke-width="1.01846" stroke-linejoin="round"/>
<circle cx="107" cy="67" r="66" stroke="white" stroke-width="2"/>
<path d="M123 131C88.2061 131 60 102.346 60 67C60 31.6538 88.2061 3 123 3" stroke="white" stroke-width="2"/>
<path d="M91 131C125.794 131 154 102.346 154 67C154 31.6538 125.794 3 91 3" stroke="white" stroke-width="2"/>
<path d="M173 67C173 57.6112 143.451 50 107 50C70.5492 50 41 57.6112 41 67" stroke="white" stroke-width="2"/>
<path d="M173 67C173 76.3888 143.451 84 107 84C70.5492 84 41 76.3888 41 67" stroke="white" stroke-width="2"/>
<line x1="107" y1="6" x2="107" y2="129" stroke="white" stroke-width="2"/>
<line x1="108" y1="165" x2="108" y2="186" stroke="white" stroke-width="2" stroke-dasharray="4 4"/>
</svg>
