<svg width="263" height="310" viewBox="0 0 263 310" fill="none" xmlns="http://www.w3.org/2000/svg">
<g clip-path="url(#clip0_205_8)">
<rect width="89.1825" height="80.6306" transform="translate(183.196 159.098) rotate(139.868)" fill="#33257F"/>
<path d="M63.986 155.007L76.1323 166.011L83.0433 165.348L91.0292 159.41L98.2328 165.189L105.94 159.665L113.422 165.029L121.588 165.141C125.949 176.621 138.013 183.697 150.516 181.369C164.568 178.735 173.839 165.218 171.219 151.168C168.593 137.11 155.081 127.846 141.031 130.466C132.237 132.102 125.317 138.012 122.01 145.656L78.5414 144.825L63.9923 155.015L63.986 155.007ZM149.031 155.305C148.438 152.14 150.525 149.099 153.69 148.507C156.855 147.914 159.896 150.002 160.489 153.167C161.081 156.331 158.994 159.372 155.829 159.965C152.664 160.557 149.623 158.47 149.031 155.305Z" fill="white"/>
</g>
<path d="M38.7362 225.705L62.6747 206C62.6747 206 71.4409 198.99 88.0268 201.596L136.476 209.208C136.476 209.208 152.217 208.748 149.889 223.565C149.889 223.565 147.447 234.885 133.795 232.74L101.602 227.681" stroke="white" stroke-width="1.85477" stroke-miterlimit="10"/>
<path d="M68.338 265.366L79.5315 257.824C79.5315 257.824 82.5963 255.298 95.6003 257.341L138.842 264.135C138.842 264.135 153.412 264.744 163.481 253.664L194.859 218.133C194.859 218.133 203.877 207.08 195.184 198.712C186.49 190.345 165.353 208.633 165.353 208.633L150.339 220.601" stroke="white" stroke-width="1.85477" stroke-miterlimit="10"/>
<path d="M72.985 272.39L30.8137 214.129L8.29259 230.254L50.2903 289.151L72.985 272.39Z" stroke="white" stroke-width="1.85477" stroke-miterlimit="10"/>
<path d="M224.228 85.0276L200.289 104.733C200.289 104.733 191.523 111.742 174.937 109.137L126.488 101.524C126.488 101.524 110.747 101.984 113.075 87.1679C113.075 87.1679 115.517 75.8479 129.169 77.9928L161.362 83.051" stroke="white" stroke-width="1.85477" stroke-miterlimit="10"/>
<path d="M194.626 45.3665L183.432 52.9088C183.432 52.9088 180.368 55.4343 167.364 53.3911L124.122 46.5972C124.122 46.5972 109.552 45.9882 99.4825 57.0679L68.1047 92.5995C68.1047 92.5995 59.0864 103.653 67.7803 112.02C76.4741 120.388 97.6105 102.1 97.6105 102.1L112.624 90.1312" stroke="white" stroke-width="1.85477" stroke-miterlimit="10"/>
<path d="M189.979 38.3428L232.15 96.6032L254.671 80.4784L212.674 21.5819L189.979 38.3428Z" stroke="white" stroke-width="1.85477" stroke-miterlimit="10"/>
<defs>
<clipPath id="clip0_205_8">
<rect width="89.1825" height="80.6306" fill="white" transform="translate(183.196 159.098) rotate(139.868)"/>
</clipPath>
</defs>
</svg>
