<svg width="804" height="527" viewBox="0 0 804 527" fill="none" xmlns="http://www.w3.org/2000/svg">
<rect y="63.7432" width="115.778" height="115.778" rx="9.64818" fill="url(#paint0_linear_1776_211628)"/>
<path d="M88.4561 122.356C88.4561 120.099 88.2535 117.928 87.8772 115.844H57.8906V128.174H75.0258C74.2732 132.14 72.0156 135.497 68.6291 137.755V145.772H78.9623C84.9827 140.215 88.4561 132.053 88.4561 122.356Z" fill="white"/>
<path d="M57.8884 153.468C66.4849 153.468 73.6921 150.631 78.96 145.768L68.6268 137.751C65.7902 139.661 62.1722 140.819 57.8884 140.819C49.6102 140.819 42.5767 135.233 40.0585 127.707H29.4648V135.927C34.7038 146.318 45.4422 153.468 57.8884 153.468Z" fill="white"/>
<path d="M40.056 127.685C39.4193 125.775 39.043 123.749 39.043 121.636C39.043 119.523 39.4193 117.497 40.056 115.586V107.366H29.4623C27.2915 111.65 26.0469 116.484 26.0469 121.636C26.0469 126.788 27.2915 131.622 29.4623 135.906L37.7115 129.48L40.056 127.685Z" fill="white"/>
<path d="M57.8884 102.472C62.5774 102.472 66.7454 104.093 70.074 107.219L79.1916 98.101C73.6632 92.9489 66.4849 89.7939 57.8884 89.7939C45.4422 89.7939 34.7038 96.9432 29.4648 107.363L40.0585 115.584C42.5767 108.058 49.6102 102.472 57.8884 102.472Z" fill="white"/>
<rect y="237.411" width="115.778" height="115.778" rx="9.64818" fill="url(#paint1_linear_1776_211628)"/>
<path d="M77.4981 269.148C77.2202 269.148 76.9424 269.078 76.6992 268.939C70.0304 265.501 64.2646 264.042 57.3527 264.042C50.4755 264.042 43.9456 265.674 38.0062 268.939C37.1726 269.391 36.1305 269.078 35.6443 268.244C35.1927 267.411 35.5053 266.334 36.3389 265.883C42.7994 262.374 49.885 260.568 57.3527 260.568C64.7509 260.568 71.2113 262.201 78.297 265.848C79.1653 266.299 79.4779 267.341 79.0264 268.175C78.7138 268.8 78.1233 269.148 77.4981 269.148ZM27.7945 287.383C27.4472 287.383 27.0999 287.278 26.7872 287.07C25.9884 286.514 25.8147 285.438 26.3704 284.639C29.8091 279.776 34.1855 275.955 39.3955 273.281C50.3018 267.654 64.2646 267.619 75.2057 273.246C80.4157 275.921 84.7921 279.706 88.2307 284.534C88.7865 285.299 88.6128 286.41 87.8139 286.966C87.0151 287.522 85.9383 287.348 85.3826 286.549C82.2566 282.173 78.297 278.734 73.6079 276.337C63.6394 271.232 50.8923 271.232 40.9585 276.372C36.2347 278.803 32.2751 282.277 29.1491 286.653C28.8713 287.139 28.3503 287.383 27.7945 287.383ZM49.5029 329.306C49.0514 329.306 48.5999 329.132 48.2873 328.785C45.2654 325.763 43.633 323.818 41.3058 319.615C38.9092 315.343 37.6588 310.133 37.6588 304.541C37.6588 294.225 46.4811 285.82 57.318 285.82C68.1548 285.82 76.9771 294.225 76.9771 304.541C76.9771 305.513 76.2129 306.278 75.2404 306.278C74.2679 306.278 73.5037 305.513 73.5037 304.541C73.5037 296.135 66.2445 289.293 57.318 289.293C48.3915 289.293 41.1322 296.135 41.1322 304.541C41.1322 309.543 42.2436 314.162 44.3624 317.913C46.5853 321.908 48.1136 323.61 50.7881 326.319C51.448 327.013 51.448 328.09 50.7881 328.785C50.406 329.132 49.9545 329.306 49.5029 329.306ZM74.4068 322.88C70.2735 322.88 66.6265 321.838 63.6394 319.789C58.4642 316.281 55.3729 310.585 55.3729 304.541C55.3729 303.568 56.137 302.804 57.1096 302.804C58.0821 302.804 58.8462 303.568 58.8462 304.541C58.8462 309.438 61.347 314.058 65.5845 316.906C68.0506 318.573 70.9335 319.372 74.4068 319.372C75.2404 319.372 76.6297 319.268 78.0191 319.025C78.9569 318.851 79.86 319.476 80.0336 320.449C80.2073 321.387 79.5821 322.29 78.6096 322.463C76.6297 322.845 74.8931 322.88 74.4068 322.88ZM67.4254 330.035C67.2865 330.035 67.1128 330.001 66.9739 329.966C61.4512 328.438 57.839 326.388 54.053 322.672C49.1903 317.844 46.5159 311.418 46.5159 304.541C46.5159 298.914 51.3091 294.329 57.2138 294.329C63.1184 294.329 67.9117 298.914 67.9117 304.541C67.9117 308.257 71.1419 311.279 75.1362 311.279C79.1306 311.279 82.3608 308.257 82.3608 304.541C82.3608 291.446 71.0724 280.818 57.179 280.818C47.3147 280.818 38.284 286.306 34.2202 294.816C32.8656 297.629 32.1709 300.929 32.1709 304.541C32.1709 307.25 32.4141 311.522 34.4981 317.08C34.8454 317.983 34.3939 318.99 33.4908 319.303C32.5877 319.65 31.5805 319.164 31.2679 318.295C29.5659 313.745 28.7323 309.23 28.7323 304.541C28.7323 300.373 29.5312 296.587 31.0942 293.287C35.7137 283.597 45.9601 277.31 57.179 277.31C72.9827 277.31 85.8341 289.501 85.8341 304.506C85.8341 310.133 81.0409 314.718 75.1362 314.718C69.2315 314.718 64.4383 310.133 64.4383 304.506C64.4383 300.79 61.2081 297.768 57.2138 297.768C53.2194 297.768 49.9892 300.79 49.9892 304.506C49.9892 310.446 52.2816 316.003 56.4844 320.171C59.784 323.436 62.9448 325.242 67.8422 326.597C68.78 326.84 69.301 327.812 69.0579 328.715C68.8842 329.514 68.1548 330.035 67.4254 330.035Z" fill="white"/>
<rect y="411.078" width="115.778" height="115.778" rx="9.64818" fill="url(#paint2_linear_1776_211628)"/>
<path d="M92.629 480.808C92.629 482.483 91.8158 484.089 90.3683 485.274C88.9208 486.458 86.9575 487.123 84.9105 487.123H38.5992L23.1621 495.017V449.232C23.1621 447.557 23.9753 445.951 25.4228 444.767C26.8703 443.582 28.8336 442.917 30.8807 442.917H84.9105C86.9575 442.917 88.9208 443.582 90.3683 444.767C91.8158 445.951 92.629 447.557 92.629 449.232V480.808Z" stroke="white" stroke-width="3.47335" stroke-linecap="round" stroke-linejoin="round"/>
<path d="M40.5985 468.15L38.2077 472.243L36.1006 471.027L38.4508 466.934H33.7503V464.503H38.4508L36.1006 460.41L38.2077 459.195L40.5985 463.287L42.9488 459.195L45.056 460.41L42.7057 464.503H47.4063V466.934H42.7057L45.056 471.027L42.9488 472.243L40.5985 468.15ZM58.8019 468.15L56.4111 472.243L54.304 471.027L56.6543 466.934H51.9537V464.503H56.6543L54.304 460.41L56.4111 459.195L58.8019 463.287L61.1522 459.195L63.2594 460.41L60.9091 464.503H65.6097V466.934H60.9091L63.2594 471.027L61.1522 472.243L58.8019 468.15ZM77.0053 468.15L74.6145 472.243L72.5074 471.027L74.8577 466.934H70.1571V464.503H74.8577L72.5074 460.41L74.6145 459.195L77.0053 463.287L79.3556 459.195L81.4628 460.41L79.1125 464.503H83.8131V466.934H79.1125L81.4628 471.027L79.3556 472.243L77.0053 468.15Z" fill="white"/>
<path d="M510.15 193.996C510.15 186.003 516.63 179.523 524.623 179.523H785.124C793.116 179.523 799.596 186.003 799.596 193.996V396.607C799.596 404.6 793.116 411.08 785.124 411.08H524.623C516.63 411.08 510.15 404.6 510.15 396.607V193.996Z" fill="url(#paint3_linear_1776_211628)"/>
<path d="M521.283 331.566V323.099H521.109L519.445 326.905H518.243V326.819L520.139 322.564H522.498V331.566H525.364V332.694H518.417V331.566H521.283Z" fill="white" fill-opacity="0.05"/>
<path d="M530.737 326.5C530.737 325.188 531.051 324.17 531.678 323.447C532.305 322.723 533.178 322.361 534.298 322.361C535.417 322.361 536.29 322.723 536.917 323.447C537.544 324.17 537.858 325.188 537.858 326.5V328.758C537.858 330.109 537.544 331.136 536.917 331.841C536.29 332.545 535.417 332.897 534.298 332.897C533.178 332.897 532.305 332.545 531.678 331.841C531.051 331.136 530.737 330.109 530.737 328.758V326.5ZM534.298 331.797C535.079 331.797 535.663 331.527 536.049 330.987C536.444 330.437 536.642 329.665 536.642 328.671V326.587C536.642 326.124 536.594 325.704 536.497 325.328C536.401 324.942 536.251 324.614 536.049 324.344C535.856 324.064 535.61 323.847 535.311 323.693C535.021 323.538 534.683 323.461 534.298 323.461C533.902 323.461 533.559 323.538 533.27 323.693C532.981 323.847 532.735 324.064 532.532 324.344C532.339 324.614 532.194 324.942 532.098 325.328C532.001 325.704 531.953 326.124 531.953 326.587V328.671C531.953 329.665 532.146 330.437 532.532 330.987C532.928 331.527 533.516 331.797 534.298 331.797ZM533.371 327.629C533.371 327.378 533.463 327.161 533.646 326.978C533.83 326.795 534.047 326.703 534.298 326.703C534.548 326.703 534.765 326.795 534.949 326.978C535.132 327.161 535.224 327.378 535.224 327.629C535.224 327.88 535.132 328.097 534.949 328.28C534.765 328.464 534.548 328.555 534.298 328.555C534.047 328.555 533.83 328.464 533.646 328.28C533.463 328.097 533.371 327.88 533.371 327.629Z" fill="white" fill-opacity="0.05"/>
<path d="M543.217 326.5C543.217 325.188 543.53 324.17 544.158 323.447C544.785 322.723 545.658 322.361 546.777 322.361C547.896 322.361 548.769 322.723 549.397 323.447C550.024 324.17 550.337 325.188 550.337 326.5V328.758C550.337 330.109 550.024 331.136 549.397 331.841C548.769 332.545 547.896 332.897 546.777 332.897C545.658 332.897 544.785 332.545 544.158 331.841C543.53 331.136 543.217 330.109 543.217 328.758V326.5ZM546.777 331.797C547.559 331.797 548.142 331.527 548.528 330.987C548.924 330.437 549.122 329.665 549.122 328.671V326.587C549.122 326.124 549.073 325.704 548.977 325.328C548.88 324.942 548.731 324.614 548.528 324.344C548.335 324.064 548.089 323.847 547.79 323.693C547.501 323.538 547.163 323.461 546.777 323.461C546.381 323.461 546.039 323.538 545.75 323.693C545.46 323.847 545.214 324.064 545.011 324.344C544.818 324.614 544.674 324.942 544.577 325.328C544.481 325.704 544.433 326.124 544.433 326.587V328.671C544.433 329.665 544.626 330.437 545.011 330.987C545.407 331.527 545.996 331.797 546.777 331.797ZM545.851 327.629C545.851 327.378 545.942 327.161 546.126 326.978C546.309 326.795 546.526 326.703 546.777 326.703C547.028 326.703 547.245 326.795 547.428 326.978C547.612 327.161 547.703 327.378 547.703 327.629C547.703 327.88 547.612 328.097 547.428 328.28C547.245 328.464 547.028 328.555 546.777 328.555C546.526 328.555 546.309 328.464 546.126 328.28C545.942 328.097 545.851 327.88 545.851 327.629Z" fill="white" fill-opacity="0.05"/>
<path d="M555.696 326.5C555.696 325.188 556.01 324.17 556.637 323.447C557.264 322.723 558.137 322.361 559.257 322.361C560.376 322.361 561.249 322.723 561.876 323.447C562.503 324.17 562.817 325.188 562.817 326.5V328.758C562.817 330.109 562.503 331.136 561.876 331.841C561.249 332.545 560.376 332.897 559.257 332.897C558.137 332.897 557.264 332.545 556.637 331.841C556.01 331.136 555.696 330.109 555.696 328.758V326.5ZM559.257 331.797C560.038 331.797 560.622 331.527 561.008 330.987C561.403 330.437 561.601 329.665 561.601 328.671V326.587C561.601 326.124 561.553 325.704 561.456 325.328C561.36 324.942 561.21 324.614 561.008 324.344C560.815 324.064 560.569 323.847 560.27 323.693C559.98 323.538 559.643 323.461 559.257 323.461C558.861 323.461 558.518 323.538 558.229 323.693C557.94 323.847 557.694 324.064 557.491 324.344C557.298 324.614 557.153 324.942 557.057 325.328C556.96 325.704 556.912 326.124 556.912 326.587V328.671C556.912 329.665 557.105 330.437 557.491 330.987C557.887 331.527 558.475 331.797 559.257 331.797ZM558.33 327.629C558.33 327.378 558.422 327.161 558.605 326.978C558.789 326.795 559.006 326.703 559.257 326.703C559.507 326.703 559.725 326.795 559.908 326.978C560.091 327.161 560.183 327.378 560.183 327.629C560.183 327.88 560.091 328.097 559.908 328.28C559.725 328.464 559.507 328.555 559.257 328.555C559.006 328.555 558.789 328.464 558.605 328.28C558.422 328.097 558.33 327.88 558.33 327.629Z" fill="white" fill-opacity="0.05"/>
<path d="M568.176 326.5C568.176 325.188 568.489 324.17 569.117 323.447C569.744 322.723 570.617 322.361 571.736 322.361C572.855 322.361 573.728 322.723 574.356 323.447C574.983 324.17 575.296 325.188 575.296 326.5V328.758C575.296 330.109 574.983 331.136 574.356 331.841C573.728 332.545 572.855 332.897 571.736 332.897C570.617 332.897 569.744 332.545 569.117 331.841C568.489 331.136 568.176 330.109 568.176 328.758V326.5ZM571.736 331.797C572.518 331.797 573.101 331.527 573.487 330.987C573.883 330.437 574.081 329.665 574.081 328.671V326.587C574.081 326.124 574.032 325.704 573.936 325.328C573.839 324.942 573.69 324.614 573.487 324.344C573.294 324.064 573.048 323.847 572.749 323.693C572.46 323.538 572.122 323.461 571.736 323.461C571.341 323.461 570.998 323.538 570.709 323.693C570.419 323.847 570.173 324.064 569.97 324.344C569.777 324.614 569.633 324.942 569.536 325.328C569.44 325.704 569.392 326.124 569.392 326.587V328.671C569.392 329.665 569.585 330.437 569.97 330.987C570.366 331.527 570.955 331.797 571.736 331.797ZM570.81 327.629C570.81 327.378 570.902 327.161 571.085 326.978C571.268 326.795 571.485 326.703 571.736 326.703C571.987 326.703 572.204 326.795 572.387 326.978C572.571 327.161 572.662 327.378 572.662 327.629C572.662 327.88 572.571 328.097 572.387 328.28C572.204 328.464 571.987 328.555 571.736 328.555C571.485 328.555 571.268 328.464 571.085 328.28C570.902 328.097 570.81 327.88 570.81 327.629Z" fill="white" fill-opacity="0.05"/>
<path d="M583.68 331.566V323.099H583.506L581.842 326.905H580.641V326.819L582.537 322.564H584.896V331.566H587.761V332.694H580.815V331.566H583.68Z" fill="white" fill-opacity="0.05"/>
<path d="M596.16 331.566V323.099H595.986L594.322 326.905H593.12V326.819L595.016 322.564H597.375V331.566H600.241V332.694H593.294V331.566H596.16Z" fill="white" fill-opacity="0.05"/>
<path d="M608.639 331.566V323.099H608.465L606.801 326.905H605.6V326.819L607.496 322.564H609.855V331.566H612.72V332.694H605.774V331.566H608.639Z" fill="white" fill-opacity="0.05"/>
<path d="M621.119 331.566V323.099H620.945L619.281 326.905H618.079V326.819L619.975 322.564H622.334V331.566H625.2V332.694H618.253V331.566H621.119Z" fill="white" fill-opacity="0.05"/>
<path d="M630.573 326.5C630.573 325.188 630.887 324.17 631.514 323.447C632.141 322.723 633.014 322.361 634.134 322.361C635.253 322.361 636.126 322.723 636.753 323.447C637.38 324.17 637.694 325.188 637.694 326.5V328.758C637.694 330.109 637.38 331.136 636.753 331.841C636.126 332.545 635.253 332.897 634.134 332.897C633.014 332.897 632.141 332.545 631.514 331.841C630.887 331.136 630.573 330.109 630.573 328.758V326.5ZM634.134 331.797C634.915 331.797 635.499 331.527 635.885 330.987C636.28 330.437 636.478 329.665 636.478 328.671V326.587C636.478 326.124 636.43 325.704 636.333 325.328C636.237 324.942 636.087 324.614 635.885 324.344C635.692 324.064 635.446 323.847 635.147 323.693C634.857 323.538 634.52 323.461 634.134 323.461C633.738 323.461 633.396 323.538 633.106 323.693C632.817 323.847 632.571 324.064 632.368 324.344C632.175 324.614 632.03 324.942 631.934 325.328C631.837 325.704 631.789 326.124 631.789 326.587V328.671C631.789 329.665 631.982 330.437 632.368 330.987C632.764 331.527 633.352 331.797 634.134 331.797ZM633.207 327.629C633.207 327.378 633.299 327.161 633.482 326.978C633.666 326.795 633.883 326.703 634.134 326.703C634.384 326.703 634.602 326.795 634.785 326.978C634.968 327.161 635.06 327.378 635.06 327.629C635.06 327.88 634.968 328.097 634.785 328.28C634.602 328.464 634.384 328.555 634.134 328.555C633.883 328.555 633.666 328.464 633.482 328.28C633.299 328.097 633.207 327.88 633.207 327.629Z" fill="white" fill-opacity="0.05"/>
<path d="M646.078 331.566V323.099H645.904L644.24 326.905H643.038V326.819L644.934 322.564H647.293V331.566H650.159V332.694H643.212V331.566H646.078Z" fill="white" fill-opacity="0.05"/>
<path d="M658.557 331.566V323.099H658.383L656.719 326.905H655.518V326.819L657.414 322.564H659.773V331.566H662.638V332.694H655.692V331.566H658.557Z" fill="white" fill-opacity="0.05"/>
<path d="M668.012 326.5C668.012 325.188 668.326 324.17 668.953 323.447C669.58 322.723 670.453 322.361 671.572 322.361C672.691 322.361 673.564 322.723 674.192 323.447C674.819 324.17 675.132 325.188 675.132 326.5V328.758C675.132 330.109 674.819 331.136 674.192 331.841C673.564 332.545 672.691 332.897 671.572 332.897C670.453 332.897 669.58 332.545 668.953 331.841C668.326 331.136 668.012 330.109 668.012 328.758V326.5ZM671.572 331.797C672.354 331.797 672.937 331.527 673.323 330.987C673.719 330.437 673.917 329.665 673.917 328.671V326.587C673.917 326.124 673.868 325.704 673.772 325.328C673.675 324.942 673.526 324.614 673.323 324.344C673.13 324.064 672.884 323.847 672.585 323.693C672.296 323.538 671.958 323.461 671.572 323.461C671.177 323.461 670.834 323.538 670.545 323.693C670.255 323.847 670.009 324.064 669.807 324.344C669.614 324.614 669.469 324.942 669.372 325.328C669.276 325.704 669.228 326.124 669.228 326.587V328.671C669.228 329.665 669.421 330.437 669.807 330.987C670.202 331.527 670.791 331.797 671.572 331.797ZM670.646 327.629C670.646 327.378 670.738 327.161 670.921 326.978C671.104 326.795 671.321 326.703 671.572 326.703C671.823 326.703 672.04 326.795 672.223 326.978C672.407 327.161 672.498 327.378 672.498 327.629C672.498 327.88 672.407 328.097 672.223 328.28C672.04 328.464 671.823 328.555 671.572 328.555C671.321 328.555 671.104 328.464 670.921 328.28C670.738 328.097 670.646 327.88 670.646 327.629Z" fill="white" fill-opacity="0.05"/>
<path d="M680.491 326.5C680.491 325.188 680.805 324.17 681.432 323.447C682.059 322.723 682.932 322.361 684.052 322.361C685.171 322.361 686.044 322.723 686.671 323.447C687.298 324.17 687.612 325.188 687.612 326.5V328.758C687.612 330.109 687.298 331.136 686.671 331.841C686.044 332.545 685.171 332.897 684.052 332.897C682.932 332.897 682.059 332.545 681.432 331.841C680.805 331.136 680.491 330.109 680.491 328.758V326.5ZM684.052 331.797C684.833 331.797 685.417 331.527 685.803 330.987C686.198 330.437 686.396 329.665 686.396 328.671V326.587C686.396 326.124 686.348 325.704 686.251 325.328C686.155 324.942 686.005 324.614 685.803 324.344C685.61 324.064 685.364 323.847 685.065 323.693C684.775 323.538 684.438 323.461 684.052 323.461C683.656 323.461 683.314 323.538 683.024 323.693C682.735 323.847 682.489 324.064 682.286 324.344C682.093 324.614 681.948 324.942 681.852 325.328C681.755 325.704 681.707 326.124 681.707 326.587V328.671C681.707 329.665 681.9 330.437 682.286 330.987C682.682 331.527 683.27 331.797 684.052 331.797ZM683.125 327.629C683.125 327.378 683.217 327.161 683.4 326.978C683.584 326.795 683.801 326.703 684.052 326.703C684.302 326.703 684.52 326.795 684.703 326.978C684.886 327.161 684.978 327.378 684.978 327.629C684.978 327.88 684.886 328.097 684.703 328.28C684.52 328.464 684.302 328.555 684.052 328.555C683.801 328.555 683.584 328.464 683.4 328.28C683.217 328.097 683.125 327.88 683.125 327.629Z" fill="white" fill-opacity="0.05"/>
<path d="M695.996 331.566V323.099H695.822L694.158 326.905H692.956V326.819L694.852 322.564H697.211V331.566H700.077V332.694H693.13V331.566H695.996Z" fill="white" fill-opacity="0.05"/>
<path d="M708.475 331.566V323.099H708.301L706.637 326.905H705.436V326.819L707.332 322.564H709.691V331.566H712.556V332.694H705.61V331.566H708.475Z" fill="white" fill-opacity="0.05"/>
<path d="M717.93 326.5C717.93 325.188 718.244 324.17 718.871 323.447C719.498 322.723 720.371 322.361 721.49 322.361C722.609 322.361 723.483 322.723 724.11 323.447C724.737 324.17 725.05 325.188 725.05 326.5V328.758C725.05 330.109 724.737 331.136 724.11 331.841C723.483 332.545 722.609 332.897 721.49 332.897C720.371 332.897 719.498 332.545 718.871 331.841C718.244 331.136 717.93 330.109 717.93 328.758V326.5ZM721.49 331.797C722.272 331.797 722.855 331.527 723.241 330.987C723.637 330.437 723.835 329.665 723.835 328.671V326.587C723.835 326.124 723.786 325.704 723.69 325.328C723.593 324.942 723.444 324.614 723.241 324.344C723.048 324.064 722.802 323.847 722.503 323.693C722.214 323.538 721.876 323.461 721.49 323.461C721.095 323.461 720.752 323.538 720.463 323.693C720.173 323.847 719.927 324.064 719.725 324.344C719.532 324.614 719.387 324.942 719.29 325.328C719.194 325.704 719.146 326.124 719.146 326.587V328.671C719.146 329.665 719.339 330.437 719.725 330.987C720.12 331.527 720.709 331.797 721.49 331.797ZM720.564 327.629C720.564 327.378 720.656 327.161 720.839 326.978C721.022 326.795 721.239 326.703 721.49 326.703C721.741 326.703 721.958 326.795 722.141 326.978C722.325 327.161 722.416 327.378 722.416 327.629C722.416 327.88 722.325 328.097 722.141 328.28C721.958 328.464 721.741 328.555 721.49 328.555C721.239 328.555 721.022 328.464 720.839 328.28C720.656 328.097 720.564 327.88 720.564 327.629Z" fill="white" fill-opacity="0.05"/>
<path d="M733.434 331.566V323.099H733.261L731.596 326.905H730.395V326.819L732.291 322.564H734.65V331.566H737.515V332.694H730.569V331.566H733.434Z" fill="white" fill-opacity="0.05"/>
<path d="M745.914 331.566V323.099H745.74L744.076 326.905H742.875V326.819L744.77 322.564H747.129V331.566H749.995V332.694H743.048V331.566H745.914Z" fill="white" fill-opacity="0.05"/>
<path d="M755.369 326.5C755.369 325.188 755.682 324.17 756.309 323.447C756.936 322.723 757.81 322.361 758.929 322.361C760.048 322.361 760.921 322.723 761.548 323.447C762.175 324.17 762.489 325.188 762.489 326.5V328.758C762.489 330.109 762.175 331.136 761.548 331.841C760.921 332.545 760.048 332.897 758.929 332.897C757.81 332.897 756.936 332.545 756.309 331.841C755.682 331.136 755.369 330.109 755.369 328.758V326.5ZM758.929 331.797C759.71 331.797 760.294 331.527 760.68 330.987C761.075 330.437 761.273 329.665 761.273 328.671V326.587C761.273 326.124 761.225 325.704 761.128 325.328C761.032 324.942 760.882 324.614 760.68 324.344C760.487 324.064 760.241 323.847 759.942 323.693C759.652 323.538 759.315 323.461 758.929 323.461C758.533 323.461 758.191 323.538 757.901 323.693C757.612 323.847 757.366 324.064 757.163 324.344C756.97 324.614 756.825 324.942 756.729 325.328C756.632 325.704 756.584 326.124 756.584 326.587V328.671C756.584 329.665 756.777 330.437 757.163 330.987C757.559 331.527 758.147 331.797 758.929 331.797ZM758.002 327.629C758.002 327.378 758.094 327.161 758.277 326.978C758.461 326.795 758.678 326.703 758.929 326.703C759.18 326.703 759.397 326.795 759.58 326.978C759.763 327.161 759.855 327.378 759.855 327.629C759.855 327.88 759.763 328.097 759.58 328.28C759.397 328.464 759.18 328.555 758.929 328.555C758.678 328.555 758.461 328.464 758.277 328.28C758.094 328.097 758.002 327.88 758.002 327.629Z" fill="white" fill-opacity="0.05"/>
<path d="M770.873 331.566V323.099H770.699L769.035 326.905H767.834V326.819L769.729 322.564H772.088V331.566H774.954V332.694H768.007V331.566H770.873Z" fill="white" fill-opacity="0.05"/>
<path d="M783.352 331.566V323.099H783.179L781.514 326.905H780.313V326.819L782.209 322.564H784.568V331.566H787.433V332.694H780.487V331.566H783.352Z" fill="white" fill-opacity="0.05"/>
<path d="M521.283 353.975V345.508H521.109L519.445 349.314H518.243V349.228L520.139 344.973H522.498V353.975H525.364V355.103H518.417V353.975H521.283Z" fill="white" fill-opacity="0.05"/>
<path d="M530.737 348.909C530.737 347.597 531.051 346.579 531.678 345.856C532.305 345.132 533.178 344.77 534.298 344.77C535.417 344.77 536.29 345.132 536.917 345.856C537.544 346.579 537.858 347.597 537.858 348.909V351.167C537.858 352.518 537.544 353.545 536.917 354.25C536.29 354.954 535.417 355.306 534.298 355.306C533.178 355.306 532.305 354.954 531.678 354.25C531.051 353.545 530.737 352.518 530.737 351.167V348.909ZM534.298 354.206C535.079 354.206 535.663 353.936 536.049 353.396C536.444 352.846 536.642 352.074 536.642 351.08V348.996C536.642 348.533 536.594 348.113 536.497 347.737C536.401 347.351 536.251 347.023 536.049 346.753C535.856 346.473 535.61 346.256 535.311 346.102C535.021 345.947 534.683 345.87 534.298 345.87C533.902 345.87 533.559 345.947 533.27 346.102C532.981 346.256 532.735 346.473 532.532 346.753C532.339 347.023 532.194 347.351 532.098 347.737C532.001 348.113 531.953 348.533 531.953 348.996V351.08C531.953 352.074 532.146 352.846 532.532 353.396C532.928 353.936 533.516 354.206 534.298 354.206ZM533.371 350.038C533.371 349.787 533.463 349.57 533.646 349.387C533.83 349.203 534.047 349.112 534.298 349.112C534.548 349.112 534.765 349.203 534.949 349.387C535.132 349.57 535.224 349.787 535.224 350.038C535.224 350.289 535.132 350.506 534.949 350.689C534.765 350.873 534.548 350.964 534.298 350.964C534.047 350.964 533.83 350.873 533.646 350.689C533.463 350.506 533.371 350.289 533.371 350.038Z" fill="white" fill-opacity="0.05"/>
<path d="M546.242 353.975V345.508H546.068L544.404 349.314H543.202V349.228L545.098 344.973H547.457V353.975H550.323V355.103H543.376V353.975H546.242Z" fill="white" fill-opacity="0.05"/>
<path d="M558.721 353.975V345.508H558.547L556.883 349.314H555.682V349.228L557.578 344.973H559.937V353.975H562.802V355.103H555.856V353.975H558.721Z" fill="white" fill-opacity="0.05"/>
<path d="M568.176 348.909C568.176 347.597 568.489 346.579 569.117 345.856C569.744 345.132 570.617 344.77 571.736 344.77C572.855 344.77 573.728 345.132 574.356 345.856C574.983 346.579 575.296 347.597 575.296 348.909V351.167C575.296 352.518 574.983 353.545 574.356 354.25C573.728 354.954 572.855 355.306 571.736 355.306C570.617 355.306 569.744 354.954 569.117 354.25C568.489 353.545 568.176 352.518 568.176 351.167V348.909ZM571.736 354.206C572.518 354.206 573.101 353.936 573.487 353.396C573.883 352.846 574.081 352.074 574.081 351.08V348.996C574.081 348.533 574.032 348.113 573.936 347.737C573.839 347.351 573.69 347.023 573.487 346.753C573.294 346.473 573.048 346.256 572.749 346.102C572.46 345.947 572.122 345.87 571.736 345.87C571.341 345.87 570.998 345.947 570.709 346.102C570.419 346.256 570.173 346.473 569.97 346.753C569.777 347.023 569.633 347.351 569.536 347.737C569.44 348.113 569.392 348.533 569.392 348.996V351.08C569.392 352.074 569.585 352.846 569.97 353.396C570.366 353.936 570.955 354.206 571.736 354.206ZM570.81 350.038C570.81 349.787 570.902 349.57 571.085 349.387C571.268 349.203 571.485 349.112 571.736 349.112C571.987 349.112 572.204 349.203 572.387 349.387C572.571 349.57 572.662 349.787 572.662 350.038C572.662 350.289 572.571 350.506 572.387 350.689C572.204 350.873 571.987 350.964 571.736 350.964C571.485 350.964 571.268 350.873 571.085 350.689C570.902 350.506 570.81 350.289 570.81 350.038Z" fill="white" fill-opacity="0.05"/>
<path d="M583.68 353.975V345.508H583.506L581.842 349.314H580.641V349.228L582.537 344.973H584.896V353.975H587.761V355.103H580.815V353.975H583.68Z" fill="white" fill-opacity="0.05"/>
<path d="M593.135 348.909C593.135 347.597 593.448 346.579 594.076 345.856C594.703 345.132 595.576 344.77 596.695 344.77C597.814 344.77 598.687 345.132 599.315 345.856C599.942 346.579 600.255 347.597 600.255 348.909V351.167C600.255 352.518 599.942 353.545 599.315 354.25C598.687 354.954 597.814 355.306 596.695 355.306C595.576 355.306 594.703 354.954 594.076 354.25C593.448 353.545 593.135 352.518 593.135 351.167V348.909ZM596.695 354.206C597.477 354.206 598.06 353.936 598.446 353.396C598.842 352.846 599.04 352.074 599.04 351.08V348.996C599.04 348.533 598.991 348.113 598.895 347.737C598.798 347.351 598.649 347.023 598.446 346.753C598.253 346.473 598.007 346.256 597.708 346.102C597.419 345.947 597.081 345.87 596.695 345.87C596.3 345.87 595.957 345.947 595.668 346.102C595.378 346.256 595.132 346.473 594.929 346.753C594.737 347.023 594.592 347.351 594.495 347.737C594.399 348.113 594.351 348.533 594.351 348.996V351.08C594.351 352.074 594.544 352.846 594.929 353.396C595.325 353.936 595.914 354.206 596.695 354.206ZM595.769 350.038C595.769 349.787 595.861 349.57 596.044 349.387C596.227 349.203 596.444 349.112 596.695 349.112C596.946 349.112 597.163 349.203 597.346 349.387C597.53 349.57 597.621 349.787 597.621 350.038C597.621 350.289 597.53 350.506 597.346 350.689C597.163 350.873 596.946 350.964 596.695 350.964C596.444 350.964 596.227 350.873 596.044 350.689C595.861 350.506 595.769 350.289 595.769 350.038Z" fill="white" fill-opacity="0.05"/>
<path d="M605.614 348.909C605.614 347.597 605.928 346.579 606.555 345.856C607.182 345.132 608.055 344.77 609.175 344.77C610.294 344.77 611.167 345.132 611.794 345.856C612.421 346.579 612.735 347.597 612.735 348.909V351.167C612.735 352.518 612.421 353.545 611.794 354.25C611.167 354.954 610.294 355.306 609.175 355.306C608.055 355.306 607.182 354.954 606.555 354.25C605.928 353.545 605.614 352.518 605.614 351.167V348.909ZM609.175 354.206C609.956 354.206 610.54 353.936 610.926 353.396C611.321 352.846 611.519 352.074 611.519 351.08V348.996C611.519 348.533 611.471 348.113 611.374 347.737C611.278 347.351 611.128 347.023 610.926 346.753C610.733 346.473 610.487 346.256 610.188 346.102C609.898 345.947 609.561 345.87 609.175 345.87C608.779 345.87 608.437 345.947 608.147 346.102C607.858 346.256 607.612 346.473 607.409 346.753C607.216 347.023 607.071 347.351 606.975 347.737C606.878 348.113 606.83 348.533 606.83 348.996V351.08C606.83 352.074 607.023 352.846 607.409 353.396C607.805 353.936 608.393 354.206 609.175 354.206ZM608.248 350.038C608.248 349.787 608.34 349.57 608.523 349.387C608.707 349.203 608.924 349.112 609.175 349.112C609.425 349.112 609.643 349.203 609.826 349.387C610.009 349.57 610.101 349.787 610.101 350.038C610.101 350.289 610.009 350.506 609.826 350.689C609.643 350.873 609.425 350.964 609.175 350.964C608.924 350.964 608.707 350.873 608.523 350.689C608.34 350.506 608.248 350.289 608.248 350.038Z" fill="white" fill-opacity="0.05"/>
<path d="M618.094 348.909C618.094 347.597 618.407 346.579 619.035 345.856C619.662 345.132 620.535 344.77 621.654 344.77C622.773 344.77 623.646 345.132 624.274 345.856C624.901 346.579 625.214 347.597 625.214 348.909V351.167C625.214 352.518 624.901 353.545 624.274 354.25C623.646 354.954 622.773 355.306 621.654 355.306C620.535 355.306 619.662 354.954 619.035 354.25C618.407 353.545 618.094 352.518 618.094 351.167V348.909ZM621.654 354.206C622.436 354.206 623.019 353.936 623.405 353.396C623.801 352.846 623.999 352.074 623.999 351.08V348.996C623.999 348.533 623.95 348.113 623.854 347.737C623.757 347.351 623.608 347.023 623.405 346.753C623.212 346.473 622.966 346.256 622.667 346.102C622.378 345.947 622.04 345.87 621.654 345.87C621.259 345.87 620.916 345.947 620.627 346.102C620.337 346.256 620.091 346.473 619.888 346.753C619.696 347.023 619.551 347.351 619.454 347.737C619.358 348.113 619.31 348.533 619.31 348.996V351.08C619.31 352.074 619.503 352.846 619.888 353.396C620.284 353.936 620.873 354.206 621.654 354.206ZM620.728 350.038C620.728 349.787 620.82 349.57 621.003 349.387C621.186 349.203 621.403 349.112 621.654 349.112C621.905 349.112 622.122 349.203 622.305 349.387C622.489 349.57 622.58 349.787 622.58 350.038C622.58 350.289 622.489 350.506 622.305 350.689C622.122 350.873 621.905 350.964 621.654 350.964C621.403 350.964 621.186 350.873 621.003 350.689C620.82 350.506 620.728 350.289 620.728 350.038Z" fill="white" fill-opacity="0.05"/>
<path d="M630.573 348.909C630.573 347.597 630.887 346.579 631.514 345.856C632.141 345.132 633.014 344.77 634.134 344.77C635.253 344.77 636.126 345.132 636.753 345.856C637.38 346.579 637.694 347.597 637.694 348.909V351.167C637.694 352.518 637.38 353.545 636.753 354.25C636.126 354.954 635.253 355.306 634.134 355.306C633.014 355.306 632.141 354.954 631.514 354.25C630.887 353.545 630.573 352.518 630.573 351.167V348.909ZM634.134 354.206C634.915 354.206 635.499 353.936 635.885 353.396C636.28 352.846 636.478 352.074 636.478 351.08V348.996C636.478 348.533 636.43 348.113 636.333 347.737C636.237 347.351 636.087 347.023 635.885 346.753C635.692 346.473 635.446 346.256 635.147 346.102C634.857 345.947 634.52 345.87 634.134 345.87C633.738 345.87 633.396 345.947 633.106 346.102C632.817 346.256 632.571 346.473 632.368 346.753C632.175 347.023 632.03 347.351 631.934 347.737C631.837 348.113 631.789 348.533 631.789 348.996V351.08C631.789 352.074 631.982 352.846 632.368 353.396C632.764 353.936 633.352 354.206 634.134 354.206ZM633.207 350.038C633.207 349.787 633.299 349.57 633.482 349.387C633.666 349.203 633.883 349.112 634.134 349.112C634.384 349.112 634.602 349.203 634.785 349.387C634.968 349.57 635.06 349.787 635.06 350.038C635.06 350.289 634.968 350.506 634.785 350.689C634.602 350.873 634.384 350.964 634.134 350.964C633.883 350.964 633.666 350.873 633.482 350.689C633.299 350.506 633.207 350.289 633.207 350.038Z" fill="white" fill-opacity="0.05"/>
<path d="M643.053 348.909C643.053 347.597 643.367 346.579 643.994 345.856C644.621 345.132 645.494 344.77 646.613 344.77C647.732 344.77 648.605 345.132 649.233 345.856C649.86 346.579 650.173 347.597 650.173 348.909V351.167C650.173 352.518 649.86 353.545 649.233 354.25C648.605 354.954 647.732 355.306 646.613 355.306C645.494 355.306 644.621 354.954 643.994 354.25C643.367 353.545 643.053 352.518 643.053 351.167V348.909ZM646.613 354.206C647.395 354.206 647.978 353.936 648.364 353.396C648.76 352.846 648.958 352.074 648.958 351.08V348.996C648.958 348.533 648.909 348.113 648.813 347.737C648.716 347.351 648.567 347.023 648.364 346.753C648.171 346.473 647.925 346.256 647.626 346.102C647.337 345.947 646.999 345.87 646.613 345.87C646.218 345.87 645.875 345.947 645.586 346.102C645.296 346.256 645.05 346.473 644.847 346.753C644.655 347.023 644.51 347.351 644.413 347.737C644.317 348.113 644.269 348.533 644.269 348.996V351.08C644.269 352.074 644.462 352.846 644.847 353.396C645.243 353.936 645.832 354.206 646.613 354.206ZM645.687 350.038C645.687 349.787 645.779 349.57 645.962 349.387C646.145 349.203 646.362 349.112 646.613 349.112C646.864 349.112 647.081 349.203 647.264 349.387C647.448 349.57 647.539 349.787 647.539 350.038C647.539 350.289 647.448 350.506 647.264 350.689C647.081 350.873 646.864 350.964 646.613 350.964C646.362 350.964 646.145 350.873 645.962 350.689C645.779 350.506 645.687 350.289 645.687 350.038Z" fill="white" fill-opacity="0.05"/>
<path d="M658.557 353.975V345.508H658.383L656.719 349.314H655.518V349.228L657.414 344.973H659.773V353.975H662.638V355.103H655.692V353.975H658.557Z" fill="white" fill-opacity="0.05"/>
<path d="M671.037 353.975V345.508H670.863L669.199 349.314H667.997V349.228L669.893 344.973H672.252V353.975H675.118V355.103H668.171V353.975H671.037Z" fill="white" fill-opacity="0.05"/>
<path d="M680.491 348.909C680.491 347.597 680.805 346.579 681.432 345.856C682.059 345.132 682.932 344.77 684.052 344.77C685.171 344.77 686.044 345.132 686.671 345.856C687.298 346.579 687.612 347.597 687.612 348.909V351.167C687.612 352.518 687.298 353.545 686.671 354.25C686.044 354.954 685.171 355.306 684.052 355.306C682.932 355.306 682.059 354.954 681.432 354.25C680.805 353.545 680.491 352.518 680.491 351.167V348.909ZM684.052 354.206C684.833 354.206 685.417 353.936 685.803 353.396C686.198 352.846 686.396 352.074 686.396 351.08V348.996C686.396 348.533 686.348 348.113 686.251 347.737C686.155 347.351 686.005 347.023 685.803 346.753C685.61 346.473 685.364 346.256 685.065 346.102C684.775 345.947 684.438 345.87 684.052 345.87C683.656 345.87 683.314 345.947 683.024 346.102C682.735 346.256 682.489 346.473 682.286 346.753C682.093 347.023 681.948 347.351 681.852 347.737C681.755 348.113 681.707 348.533 681.707 348.996V351.08C681.707 352.074 681.9 352.846 682.286 353.396C682.682 353.936 683.27 354.206 684.052 354.206ZM683.125 350.038C683.125 349.787 683.217 349.57 683.4 349.387C683.584 349.203 683.801 349.112 684.052 349.112C684.302 349.112 684.52 349.203 684.703 349.387C684.886 349.57 684.978 349.787 684.978 350.038C684.978 350.289 684.886 350.506 684.703 350.689C684.52 350.873 684.302 350.964 684.052 350.964C683.801 350.964 683.584 350.873 683.4 350.689C683.217 350.506 683.125 350.289 683.125 350.038Z" fill="white" fill-opacity="0.05"/>
<path d="M692.971 348.909C692.971 347.597 693.285 346.579 693.912 345.856C694.539 345.132 695.412 344.77 696.531 344.77C697.65 344.77 698.523 345.132 699.151 345.856C699.778 346.579 700.091 347.597 700.091 348.909V351.167C700.091 352.518 699.778 353.545 699.151 354.25C698.523 354.954 697.65 355.306 696.531 355.306C695.412 355.306 694.539 354.954 693.912 354.25C693.285 353.545 692.971 352.518 692.971 351.167V348.909ZM696.531 354.206C697.313 354.206 697.896 353.936 698.282 353.396C698.678 352.846 698.876 352.074 698.876 351.08V348.996C698.876 348.533 698.827 348.113 698.731 347.737C698.634 347.351 698.485 347.023 698.282 346.753C698.089 346.473 697.843 346.256 697.544 346.102C697.255 345.947 696.917 345.87 696.531 345.87C696.136 345.87 695.793 345.947 695.504 346.102C695.214 346.256 694.968 346.473 694.766 346.753C694.573 347.023 694.428 347.351 694.331 347.737C694.235 348.113 694.187 348.533 694.187 348.996V351.08C694.187 352.074 694.38 352.846 694.766 353.396C695.161 353.936 695.75 354.206 696.531 354.206ZM695.605 350.038C695.605 349.787 695.697 349.57 695.88 349.387C696.063 349.203 696.28 349.112 696.531 349.112C696.782 349.112 696.999 349.203 697.182 349.387C697.366 349.57 697.457 349.787 697.457 350.038C697.457 350.289 697.366 350.506 697.182 350.689C696.999 350.873 696.782 350.964 696.531 350.964C696.28 350.964 696.063 350.873 695.88 350.689C695.697 350.506 695.605 350.289 695.605 350.038Z" fill="white" fill-opacity="0.05"/>
<path d="M705.45 348.909C705.45 347.597 705.764 346.579 706.391 345.856C707.018 345.132 707.891 344.77 709.011 344.77C710.13 344.77 711.003 345.132 711.63 345.856C712.257 346.579 712.571 347.597 712.571 348.909V351.167C712.571 352.518 712.257 353.545 711.63 354.25C711.003 354.954 710.13 355.306 709.011 355.306C707.891 355.306 707.018 354.954 706.391 354.25C705.764 353.545 705.45 352.518 705.45 351.167V348.909ZM709.011 354.206C709.792 354.206 710.376 353.936 710.762 353.396C711.157 352.846 711.355 352.074 711.355 351.08V348.996C711.355 348.533 711.307 348.113 711.21 347.737C711.114 347.351 710.964 347.023 710.762 346.753C710.569 346.473 710.323 346.256 710.024 346.102C709.734 345.947 709.397 345.87 709.011 345.87C708.615 345.87 708.273 345.947 707.983 346.102C707.694 346.256 707.448 346.473 707.245 346.753C707.052 347.023 706.907 347.351 706.811 347.737C706.714 348.113 706.666 348.533 706.666 348.996V351.08C706.666 352.074 706.859 352.846 707.245 353.396C707.641 353.936 708.229 354.206 709.011 354.206ZM708.084 350.038C708.084 349.787 708.176 349.57 708.359 349.387C708.543 349.203 708.76 349.112 709.011 349.112C709.262 349.112 709.479 349.203 709.662 349.387C709.845 349.57 709.937 349.787 709.937 350.038C709.937 350.289 709.845 350.506 709.662 350.689C709.479 350.873 709.262 350.964 709.011 350.964C708.76 350.964 708.543 350.873 708.359 350.689C708.176 350.506 708.084 350.289 708.084 350.038Z" fill="white" fill-opacity="0.05"/>
<path d="M720.955 353.975V345.508H720.781L719.117 349.314H717.916V349.228L719.811 344.973H722.17V353.975H725.036V355.103H718.089V353.975H720.955Z" fill="white" fill-opacity="0.05"/>
<path d="M730.409 348.909C730.409 347.597 730.723 346.579 731.35 345.856C731.977 345.132 732.85 344.77 733.97 344.77C735.089 344.77 735.962 345.132 736.589 345.856C737.216 346.579 737.53 347.597 737.53 348.909V351.167C737.53 352.518 737.216 353.545 736.589 354.25C735.962 354.954 735.089 355.306 733.97 355.306C732.85 355.306 731.977 354.954 731.35 354.25C730.723 353.545 730.409 352.518 730.409 351.167V348.909ZM733.97 354.206C734.751 354.206 735.335 353.936 735.721 353.396C736.116 352.846 736.314 352.074 736.314 351.08V348.996C736.314 348.533 736.266 348.113 736.169 347.737C736.073 347.351 735.923 347.023 735.721 346.753C735.528 346.473 735.282 346.256 734.983 346.102C734.693 345.947 734.356 345.87 733.97 345.87C733.574 345.87 733.232 345.947 732.942 346.102C732.653 346.256 732.407 346.473 732.204 346.753C732.011 347.023 731.866 347.351 731.77 347.737C731.673 348.113 731.625 348.533 731.625 348.996V351.08C731.625 352.074 731.818 352.846 732.204 353.396C732.6 353.936 733.188 354.206 733.97 354.206ZM733.043 350.038C733.043 349.787 733.135 349.57 733.318 349.387C733.502 349.203 733.719 349.112 733.97 349.112C734.221 349.112 734.438 349.203 734.621 349.387C734.804 349.57 734.896 349.787 734.896 350.038C734.896 350.289 734.804 350.506 734.621 350.689C734.438 350.873 734.221 350.964 733.97 350.964C733.719 350.964 733.502 350.873 733.318 350.689C733.135 350.506 733.043 350.289 733.043 350.038Z" fill="white" fill-opacity="0.05"/>
<path d="M745.914 353.975V345.508H745.74L744.076 349.314H742.875V349.228L744.77 344.973H747.129V353.975H749.995V355.103H743.048V353.975H745.914Z" fill="white" fill-opacity="0.05"/>
<path d="M758.393 353.975V345.508H758.22L756.555 349.314H755.354V349.228L757.25 344.973H759.609V353.975H762.474V355.103H755.528V353.975H758.393Z" fill="white" fill-opacity="0.05"/>
<path d="M767.848 348.909C767.848 347.597 768.162 346.579 768.789 345.856C769.416 345.132 770.289 344.77 771.408 344.77C772.527 344.77 773.401 345.132 774.028 345.856C774.655 346.579 774.968 347.597 774.968 348.909V351.167C774.968 352.518 774.655 353.545 774.028 354.25C773.401 354.954 772.527 355.306 771.408 355.306C770.289 355.306 769.416 354.954 768.789 354.25C768.162 353.545 767.848 352.518 767.848 351.167V348.909ZM771.408 354.206C772.19 354.206 772.773 353.936 773.159 353.396C773.555 352.846 773.753 352.074 773.753 351.08V348.996C773.753 348.533 773.704 348.113 773.608 347.737C773.511 347.351 773.362 347.023 773.159 346.753C772.966 346.473 772.72 346.256 772.421 346.102C772.132 345.947 771.794 345.87 771.408 345.87C771.013 345.87 770.67 345.947 770.381 346.102C770.091 346.256 769.845 346.473 769.643 346.753C769.45 347.023 769.305 347.351 769.208 347.737C769.112 348.113 769.064 348.533 769.064 348.996V351.08C769.064 352.074 769.257 352.846 769.643 353.396C770.038 353.936 770.627 354.206 771.408 354.206ZM770.482 350.038C770.482 349.787 770.574 349.57 770.757 349.387C770.94 349.203 771.157 349.112 771.408 349.112C771.659 349.112 771.876 349.203 772.059 349.387C772.243 349.57 772.334 349.787 772.334 350.038C772.334 350.289 772.243 350.506 772.059 350.689C771.876 350.873 771.659 350.964 771.408 350.964C771.157 350.964 770.94 350.873 770.757 350.689C770.574 350.506 770.482 350.289 770.482 350.038Z" fill="white" fill-opacity="0.05"/>
<path d="M780.328 348.909C780.328 347.597 780.641 346.579 781.268 345.856C781.895 345.132 782.769 344.77 783.888 344.77C785.007 344.77 785.88 345.132 786.507 345.856C787.134 346.579 787.448 347.597 787.448 348.909V351.167C787.448 352.518 787.134 353.545 786.507 354.25C785.88 354.954 785.007 355.306 783.888 355.306C782.769 355.306 781.895 354.954 781.268 354.25C780.641 353.545 780.328 352.518 780.328 351.167V348.909ZM783.888 354.206C784.669 354.206 785.253 353.936 785.639 353.396C786.034 352.846 786.232 352.074 786.232 351.08V348.996C786.232 348.533 786.184 348.113 786.087 347.737C785.991 347.351 785.841 347.023 785.639 346.753C785.446 346.473 785.2 346.256 784.901 346.102C784.611 345.947 784.274 345.87 783.888 345.87C783.492 345.87 783.15 345.947 782.86 346.102C782.571 346.256 782.325 346.473 782.122 346.753C781.929 347.023 781.784 347.351 781.688 347.737C781.591 348.113 781.543 348.533 781.543 348.996V351.08C781.543 352.074 781.736 352.846 782.122 353.396C782.518 353.936 783.106 354.206 783.888 354.206ZM782.961 350.038C782.961 349.787 783.053 349.57 783.236 349.387C783.42 349.203 783.637 349.112 783.888 349.112C784.139 349.112 784.356 349.203 784.539 349.387C784.722 349.57 784.814 349.787 784.814 350.038C784.814 350.289 784.722 350.506 784.539 350.689C784.356 350.873 784.139 350.964 783.888 350.964C783.637 350.964 783.42 350.873 783.236 350.689C783.053 350.506 782.961 350.289 782.961 350.038Z" fill="white" fill-opacity="0.05"/>
<path d="M518.258 371.318C518.258 370.006 518.571 368.988 519.199 368.265C519.826 367.541 520.699 367.179 521.818 367.179C522.937 367.179 523.81 367.541 524.438 368.265C525.065 368.988 525.378 370.006 525.378 371.318V373.576C525.378 374.927 525.065 375.954 524.438 376.658C523.81 377.363 522.937 377.715 521.818 377.715C520.699 377.715 519.826 377.363 519.199 376.658C518.571 375.954 518.258 374.927 518.258 373.576V371.318ZM521.818 376.615C522.6 376.615 523.183 376.345 523.569 375.805C523.965 375.255 524.163 374.483 524.163 373.489V371.405C524.163 370.942 524.114 370.522 524.018 370.146C523.921 369.76 523.772 369.432 523.569 369.162C523.376 368.882 523.13 368.665 522.831 368.511C522.542 368.356 522.204 368.279 521.818 368.279C521.422 368.279 521.08 368.356 520.791 368.511C520.501 368.665 520.255 368.882 520.052 369.162C519.859 369.432 519.715 369.76 519.618 370.146C519.522 370.522 519.474 370.942 519.474 371.405V373.489C519.474 374.483 519.667 375.255 520.052 375.805C520.448 376.345 521.037 376.615 521.818 376.615ZM520.892 372.447C520.892 372.196 520.983 371.979 521.167 371.796C521.35 371.612 521.567 371.521 521.818 371.521C522.069 371.521 522.286 371.612 522.469 371.796C522.653 371.979 522.744 372.196 522.744 372.447C522.744 372.698 522.653 372.915 522.469 373.098C522.286 373.282 522.069 373.373 521.818 373.373C521.567 373.373 521.35 373.282 521.167 373.098C520.983 372.915 520.892 372.698 520.892 372.447Z" fill="white" fill-opacity="0.05"/>
<path d="M533.762 376.383V367.917H533.588L531.924 371.723H530.723V371.637L532.619 367.382H534.978V376.383H537.843V377.512H530.897V376.383H533.762Z" fill="white" fill-opacity="0.05"/>
<path d="M543.217 371.318C543.217 370.006 543.53 368.988 544.158 368.265C544.785 367.541 545.658 367.179 546.777 367.179C547.896 367.179 548.769 367.541 549.397 368.265C550.024 368.988 550.337 370.006 550.337 371.318V373.576C550.337 374.927 550.024 375.954 549.397 376.658C548.769 377.363 547.896 377.715 546.777 377.715C545.658 377.715 544.785 377.363 544.158 376.658C543.53 375.954 543.217 374.927 543.217 373.576V371.318ZM546.777 376.615C547.559 376.615 548.142 376.345 548.528 375.805C548.924 375.255 549.122 374.483 549.122 373.489V371.405C549.122 370.942 549.073 370.522 548.977 370.146C548.88 369.76 548.731 369.432 548.528 369.162C548.335 368.882 548.089 368.665 547.79 368.511C547.501 368.356 547.163 368.279 546.777 368.279C546.381 368.279 546.039 368.356 545.75 368.511C545.46 368.665 545.214 368.882 545.011 369.162C544.818 369.432 544.674 369.76 544.577 370.146C544.481 370.522 544.433 370.942 544.433 371.405V373.489C544.433 374.483 544.626 375.255 545.011 375.805C545.407 376.345 545.996 376.615 546.777 376.615ZM545.851 372.447C545.851 372.196 545.942 371.979 546.126 371.796C546.309 371.612 546.526 371.521 546.777 371.521C547.028 371.521 547.245 371.612 547.428 371.796C547.612 371.979 547.703 372.196 547.703 372.447C547.703 372.698 547.612 372.915 547.428 373.098C547.245 373.282 547.028 373.373 546.777 373.373C546.526 373.373 546.309 373.282 546.126 373.098C545.942 372.915 545.851 372.698 545.851 372.447Z" fill="white" fill-opacity="0.05"/>
<path d="M555.696 371.318C555.696 370.006 556.01 368.988 556.637 368.265C557.264 367.541 558.137 367.179 559.257 367.179C560.376 367.179 561.249 367.541 561.876 368.265C562.503 368.988 562.817 370.006 562.817 371.318V373.576C562.817 374.927 562.503 375.954 561.876 376.658C561.249 377.363 560.376 377.715 559.257 377.715C558.137 377.715 557.264 377.363 556.637 376.658C556.01 375.954 555.696 374.927 555.696 373.576V371.318ZM559.257 376.615C560.038 376.615 560.622 376.345 561.008 375.805C561.403 375.255 561.601 374.483 561.601 373.489V371.405C561.601 370.942 561.553 370.522 561.456 370.146C561.36 369.76 561.21 369.432 561.008 369.162C560.815 368.882 560.569 368.665 560.27 368.511C559.98 368.356 559.643 368.279 559.257 368.279C558.861 368.279 558.518 368.356 558.229 368.511C557.94 368.665 557.694 368.882 557.491 369.162C557.298 369.432 557.153 369.76 557.057 370.146C556.96 370.522 556.912 370.942 556.912 371.405V373.489C556.912 374.483 557.105 375.255 557.491 375.805C557.887 376.345 558.475 376.615 559.257 376.615ZM558.33 372.447C558.33 372.196 558.422 371.979 558.605 371.796C558.789 371.612 559.006 371.521 559.257 371.521C559.507 371.521 559.725 371.612 559.908 371.796C560.091 371.979 560.183 372.196 560.183 372.447C560.183 372.698 560.091 372.915 559.908 373.098C559.725 373.282 559.507 373.373 559.257 373.373C559.006 373.373 558.789 373.282 558.605 373.098C558.422 372.915 558.33 372.698 558.33 372.447Z" fill="white" fill-opacity="0.05"/>
<path d="M568.176 371.318C568.176 370.006 568.489 368.988 569.117 368.265C569.744 367.541 570.617 367.179 571.736 367.179C572.855 367.179 573.728 367.541 574.356 368.265C574.983 368.988 575.296 370.006 575.296 371.318V373.576C575.296 374.927 574.983 375.954 574.356 376.658C573.728 377.363 572.855 377.715 571.736 377.715C570.617 377.715 569.744 377.363 569.117 376.658C568.489 375.954 568.176 374.927 568.176 373.576V371.318ZM571.736 376.615C572.518 376.615 573.101 376.345 573.487 375.805C573.883 375.255 574.081 374.483 574.081 373.489V371.405C574.081 370.942 574.032 370.522 573.936 370.146C573.839 369.76 573.69 369.432 573.487 369.162C573.294 368.882 573.048 368.665 572.749 368.511C572.46 368.356 572.122 368.279 571.736 368.279C571.341 368.279 570.998 368.356 570.709 368.511C570.419 368.665 570.173 368.882 569.97 369.162C569.777 369.432 569.633 369.76 569.536 370.146C569.44 370.522 569.392 370.942 569.392 371.405V373.489C569.392 374.483 569.585 375.255 569.97 375.805C570.366 376.345 570.955 376.615 571.736 376.615ZM570.81 372.447C570.81 372.196 570.902 371.979 571.085 371.796C571.268 371.612 571.485 371.521 571.736 371.521C571.987 371.521 572.204 371.612 572.387 371.796C572.571 371.979 572.662 372.196 572.662 372.447C572.662 372.698 572.571 372.915 572.387 373.098C572.204 373.282 571.987 373.373 571.736 373.373C571.485 373.373 571.268 373.282 571.085 373.098C570.902 372.915 570.81 372.698 570.81 372.447Z" fill="white" fill-opacity="0.05"/>
<path d="M580.655 371.318C580.655 370.006 580.969 368.988 581.596 368.265C582.223 367.541 583.096 367.179 584.216 367.179C585.335 367.179 586.208 367.541 586.835 368.265C587.462 368.988 587.776 370.006 587.776 371.318V373.576C587.776 374.927 587.462 375.954 586.835 376.658C586.208 377.363 585.335 377.715 584.216 377.715C583.096 377.715 582.223 377.363 581.596 376.658C580.969 375.954 580.655 374.927 580.655 373.576V371.318ZM584.216 376.615C584.997 376.615 585.581 376.345 585.967 375.805C586.362 375.255 586.56 374.483 586.56 373.489V371.405C586.56 370.942 586.512 370.522 586.415 370.146C586.319 369.76 586.169 369.432 585.967 369.162C585.774 368.882 585.528 368.665 585.229 368.511C584.939 368.356 584.602 368.279 584.216 368.279C583.82 368.279 583.477 368.356 583.188 368.511C582.899 368.665 582.653 368.882 582.45 369.162C582.257 369.432 582.112 369.76 582.016 370.146C581.919 370.522 581.871 370.942 581.871 371.405V373.489C581.871 374.483 582.064 375.255 582.45 375.805C582.846 376.345 583.434 376.615 584.216 376.615ZM583.289 372.447C583.289 372.196 583.381 371.979 583.564 371.796C583.748 371.612 583.965 371.521 584.216 371.521C584.466 371.521 584.684 371.612 584.867 371.796C585.05 371.979 585.142 372.196 585.142 372.447C585.142 372.698 585.05 372.915 584.867 373.098C584.684 373.282 584.466 373.373 584.216 373.373C583.965 373.373 583.748 373.282 583.564 373.098C583.381 372.915 583.289 372.698 583.289 372.447Z" fill="white" fill-opacity="0.05"/>
<path d="M596.16 376.383V367.917H595.986L594.322 371.723H593.12V371.637L595.016 367.382H597.375V376.383H600.241V377.512H593.294V376.383H596.16Z" fill="white" fill-opacity="0.05"/>
<path d="M605.614 371.318C605.614 370.006 605.928 368.988 606.555 368.265C607.182 367.541 608.055 367.179 609.175 367.179C610.294 367.179 611.167 367.541 611.794 368.265C612.421 368.988 612.735 370.006 612.735 371.318V373.576C612.735 374.927 612.421 375.954 611.794 376.658C611.167 377.363 610.294 377.715 609.175 377.715C608.055 377.715 607.182 377.363 606.555 376.658C605.928 375.954 605.614 374.927 605.614 373.576V371.318ZM609.175 376.615C609.956 376.615 610.54 376.345 610.926 375.805C611.321 375.255 611.519 374.483 611.519 373.489V371.405C611.519 370.942 611.471 370.522 611.374 370.146C611.278 369.76 611.128 369.432 610.926 369.162C610.733 368.882 610.487 368.665 610.188 368.511C609.898 368.356 609.561 368.279 609.175 368.279C608.779 368.279 608.437 368.356 608.147 368.511C607.858 368.665 607.612 368.882 607.409 369.162C607.216 369.432 607.071 369.76 606.975 370.146C606.878 370.522 606.83 370.942 606.83 371.405V373.489C606.83 374.483 607.023 375.255 607.409 375.805C607.805 376.345 608.393 376.615 609.175 376.615ZM608.248 372.447C608.248 372.196 608.34 371.979 608.523 371.796C608.707 371.612 608.924 371.521 609.175 371.521C609.425 371.521 609.643 371.612 609.826 371.796C610.009 371.979 610.101 372.196 610.101 372.447C610.101 372.698 610.009 372.915 609.826 373.098C609.643 373.282 609.425 373.373 609.175 373.373C608.924 373.373 608.707 373.282 608.523 373.098C608.34 372.915 608.248 372.698 608.248 372.447Z" fill="white" fill-opacity="0.05"/>
<path d="M621.119 376.383V367.917H620.945L619.281 371.723H618.079V371.637L619.975 367.382H622.334V376.383H625.2V377.512H618.253V376.383H621.119Z" fill="white" fill-opacity="0.05"/>
<path d="M633.598 376.383V367.917H633.424L631.76 371.723H630.559V371.637L632.455 367.382H634.814V376.383H637.679V377.512H630.733V376.383H633.598Z" fill="white" fill-opacity="0.05"/>
<path d="M646.078 376.383V367.917H645.904L644.24 371.723H643.038V371.637L644.934 367.382H647.293V376.383H650.159V377.512H643.212V376.383H646.078Z" fill="white" fill-opacity="0.05"/>
<path d="M658.557 376.383V367.917H658.383L656.719 371.723H655.518V371.637L657.414 367.382H659.773V376.383H662.638V377.512H655.692V376.383H658.557Z" fill="white" fill-opacity="0.05"/>
<path d="M668.012 371.318C668.012 370.006 668.326 368.988 668.953 368.265C669.58 367.541 670.453 367.179 671.572 367.179C672.691 367.179 673.564 367.541 674.192 368.265C674.819 368.988 675.132 370.006 675.132 371.318V373.576C675.132 374.927 674.819 375.954 674.192 376.658C673.564 377.363 672.691 377.715 671.572 377.715C670.453 377.715 669.58 377.363 668.953 376.658C668.326 375.954 668.012 374.927 668.012 373.576V371.318ZM671.572 376.615C672.354 376.615 672.937 376.345 673.323 375.805C673.719 375.255 673.917 374.483 673.917 373.489V371.405C673.917 370.942 673.868 370.522 673.772 370.146C673.675 369.76 673.526 369.432 673.323 369.162C673.13 368.882 672.884 368.665 672.585 368.511C672.296 368.356 671.958 368.279 671.572 368.279C671.177 368.279 670.834 368.356 670.545 368.511C670.255 368.665 670.009 368.882 669.807 369.162C669.614 369.432 669.469 369.76 669.372 370.146C669.276 370.522 669.228 370.942 669.228 371.405V373.489C669.228 374.483 669.421 375.255 669.807 375.805C670.202 376.345 670.791 376.615 671.572 376.615ZM670.646 372.447C670.646 372.196 670.738 371.979 670.921 371.796C671.104 371.612 671.321 371.521 671.572 371.521C671.823 371.521 672.04 371.612 672.223 371.796C672.407 371.979 672.498 372.196 672.498 372.447C672.498 372.698 672.407 372.915 672.223 373.098C672.04 373.282 671.823 373.373 671.572 373.373C671.321 373.373 671.104 373.282 670.921 373.098C670.738 372.915 670.646 372.698 670.646 372.447Z" fill="white" fill-opacity="0.05"/>
<path d="M683.516 376.383V367.917H683.342L681.678 371.723H680.477V371.637L682.373 367.382H684.732V376.383H687.597V377.512H680.651V376.383H683.516Z" fill="white" fill-opacity="0.05"/>
<path d="M692.971 371.318C692.971 370.006 693.285 368.988 693.912 368.265C694.539 367.541 695.412 367.179 696.531 367.179C697.65 367.179 698.523 367.541 699.151 368.265C699.778 368.988 700.091 370.006 700.091 371.318V373.576C700.091 374.927 699.778 375.954 699.151 376.658C698.523 377.363 697.65 377.715 696.531 377.715C695.412 377.715 694.539 377.363 693.912 376.658C693.285 375.954 692.971 374.927 692.971 373.576V371.318ZM696.531 376.615C697.313 376.615 697.896 376.345 698.282 375.805C698.678 375.255 698.876 374.483 698.876 373.489V371.405C698.876 370.942 698.827 370.522 698.731 370.146C698.634 369.76 698.485 369.432 698.282 369.162C698.089 368.882 697.843 368.665 697.544 368.511C697.255 368.356 696.917 368.279 696.531 368.279C696.136 368.279 695.793 368.356 695.504 368.511C695.214 368.665 694.968 368.882 694.766 369.162C694.573 369.432 694.428 369.76 694.331 370.146C694.235 370.522 694.187 370.942 694.187 371.405V373.489C694.187 374.483 694.38 375.255 694.766 375.805C695.161 376.345 695.75 376.615 696.531 376.615ZM695.605 372.447C695.605 372.196 695.697 371.979 695.88 371.796C696.063 371.612 696.28 371.521 696.531 371.521C696.782 371.521 696.999 371.612 697.182 371.796C697.366 371.979 697.457 372.196 697.457 372.447C697.457 372.698 697.366 372.915 697.182 373.098C696.999 373.282 696.782 373.373 696.531 373.373C696.28 373.373 696.063 373.282 695.88 373.098C695.697 372.915 695.605 372.698 695.605 372.447Z" fill="white" fill-opacity="0.05"/>
<path d="M708.475 376.383V367.917H708.301L706.637 371.723H705.436V371.637L707.332 367.382H709.691V376.383H712.556V377.512H705.61V376.383H708.475Z" fill="white" fill-opacity="0.05"/>
<path d="M717.93 371.318C717.93 370.006 718.244 368.988 718.871 368.265C719.498 367.541 720.371 367.179 721.49 367.179C722.609 367.179 723.483 367.541 724.11 368.265C724.737 368.988 725.05 370.006 725.05 371.318V373.576C725.05 374.927 724.737 375.954 724.11 376.658C723.483 377.363 722.609 377.715 721.49 377.715C720.371 377.715 719.498 377.363 718.871 376.658C718.244 375.954 717.93 374.927 717.93 373.576V371.318ZM721.49 376.615C722.272 376.615 722.855 376.345 723.241 375.805C723.637 375.255 723.835 374.483 723.835 373.489V371.405C723.835 370.942 723.786 370.522 723.69 370.146C723.593 369.76 723.444 369.432 723.241 369.162C723.048 368.882 722.802 368.665 722.503 368.511C722.214 368.356 721.876 368.279 721.49 368.279C721.095 368.279 720.752 368.356 720.463 368.511C720.173 368.665 719.927 368.882 719.725 369.162C719.532 369.432 719.387 369.76 719.29 370.146C719.194 370.522 719.146 370.942 719.146 371.405V373.489C719.146 374.483 719.339 375.255 719.725 375.805C720.12 376.345 720.709 376.615 721.49 376.615ZM720.564 372.447C720.564 372.196 720.656 371.979 720.839 371.796C721.022 371.612 721.239 371.521 721.49 371.521C721.741 371.521 721.958 371.612 722.141 371.796C722.325 371.979 722.416 372.196 722.416 372.447C722.416 372.698 722.325 372.915 722.141 373.098C721.958 373.282 721.741 373.373 721.49 373.373C721.239 373.373 721.022 373.282 720.839 373.098C720.656 372.915 720.564 372.698 720.564 372.447Z" fill="white" fill-opacity="0.05"/>
<path d="M730.409 371.318C730.409 370.006 730.723 368.988 731.35 368.265C731.977 367.541 732.85 367.179 733.97 367.179C735.089 367.179 735.962 367.541 736.589 368.265C737.216 368.988 737.53 370.006 737.53 371.318V373.576C737.53 374.927 737.216 375.954 736.589 376.658C735.962 377.363 735.089 377.715 733.97 377.715C732.85 377.715 731.977 377.363 731.35 376.658C730.723 375.954 730.409 374.927 730.409 373.576V371.318ZM733.97 376.615C734.751 376.615 735.335 376.345 735.721 375.805C736.116 375.255 736.314 374.483 736.314 373.489V371.405C736.314 370.942 736.266 370.522 736.169 370.146C736.073 369.76 735.923 369.432 735.721 369.162C735.528 368.882 735.282 368.665 734.983 368.511C734.693 368.356 734.356 368.279 733.97 368.279C733.574 368.279 733.232 368.356 732.942 368.511C732.653 368.665 732.407 368.882 732.204 369.162C732.011 369.432 731.866 369.76 731.77 370.146C731.673 370.522 731.625 370.942 731.625 371.405V373.489C731.625 374.483 731.818 375.255 732.204 375.805C732.6 376.345 733.188 376.615 733.97 376.615ZM733.043 372.447C733.043 372.196 733.135 371.979 733.318 371.796C733.502 371.612 733.719 371.521 733.97 371.521C734.221 371.521 734.438 371.612 734.621 371.796C734.804 371.979 734.896 372.196 734.896 372.447C734.896 372.698 734.804 372.915 734.621 373.098C734.438 373.282 734.221 373.373 733.97 373.373C733.719 373.373 733.502 373.282 733.318 373.098C733.135 372.915 733.043 372.698 733.043 372.447Z" fill="white" fill-opacity="0.05"/>
<path d="M745.914 376.383V367.917H745.74L744.076 371.723H742.875V371.637L744.77 367.382H747.129V376.383H749.995V377.512H743.048V376.383H745.914Z" fill="white" fill-opacity="0.05"/>
<path d="M758.393 376.383V367.917H758.22L756.555 371.723H755.354V371.637L757.25 367.382H759.609V376.383H762.474V377.512H755.528V376.383H758.393Z" fill="white" fill-opacity="0.05"/>
<path d="M770.873 376.383V367.917H770.699L769.035 371.723H767.834V371.637L769.729 367.382H772.088V376.383H774.954V377.512H768.007V376.383H770.873Z" fill="white" fill-opacity="0.05"/>
<path d="M780.328 371.318C780.328 370.006 780.641 368.988 781.268 368.265C781.895 367.541 782.769 367.179 783.888 367.179C785.007 367.179 785.88 367.541 786.507 368.265C787.134 368.988 787.448 370.006 787.448 371.318V373.576C787.448 374.927 787.134 375.954 786.507 376.658C785.88 377.363 785.007 377.715 783.888 377.715C782.769 377.715 781.895 377.363 781.268 376.658C780.641 375.954 780.328 374.927 780.328 373.576V371.318ZM783.888 376.615C784.669 376.615 785.253 376.345 785.639 375.805C786.034 375.255 786.232 374.483 786.232 373.489V371.405C786.232 370.942 786.184 370.522 786.087 370.146C785.991 369.76 785.841 369.432 785.639 369.162C785.446 368.882 785.2 368.665 784.901 368.511C784.611 368.356 784.274 368.279 783.888 368.279C783.492 368.279 783.15 368.356 782.86 368.511C782.571 368.665 782.325 368.882 782.122 369.162C781.929 369.432 781.784 369.76 781.688 370.146C781.591 370.522 781.543 370.942 781.543 371.405V373.489C781.543 374.483 781.736 375.255 782.122 375.805C782.518 376.345 783.106 376.615 783.888 376.615ZM782.961 372.447C782.961 372.196 783.053 371.979 783.236 371.796C783.42 371.612 783.637 371.521 783.888 371.521C784.139 371.521 784.356 371.612 784.539 371.796C784.722 371.979 784.814 372.196 784.814 372.447C784.814 372.698 784.722 372.915 784.539 373.098C784.356 373.282 784.139 373.373 783.888 373.373C783.637 373.373 783.42 373.282 783.236 373.098C783.053 372.915 782.961 372.698 782.961 372.447Z" fill="white" fill-opacity="0.05"/>
<path d="M518.258 393.727C518.258 392.415 518.571 391.397 519.199 390.674C519.826 389.95 520.699 389.588 521.818 389.588C522.937 389.588 523.81 389.95 524.438 390.674C525.065 391.397 525.378 392.415 525.378 393.727V395.985C525.378 397.336 525.065 398.363 524.438 399.067C523.81 399.772 522.937 400.124 521.818 400.124C520.699 400.124 519.826 399.772 519.199 399.067C518.571 398.363 518.258 397.336 518.258 395.985V393.727ZM521.818 399.024C522.6 399.024 523.183 398.754 523.569 398.214C523.965 397.664 524.163 396.892 524.163 395.898V393.814C524.163 393.351 524.114 392.931 524.018 392.555C523.921 392.169 523.772 391.841 523.569 391.571C523.376 391.291 523.13 391.074 522.831 390.92C522.542 390.765 522.204 390.688 521.818 390.688C521.422 390.688 521.08 390.765 520.791 390.92C520.501 391.074 520.255 391.291 520.052 391.571C519.859 391.841 519.715 392.169 519.618 392.555C519.522 392.931 519.474 393.351 519.474 393.814V395.898C519.474 396.892 519.667 397.664 520.052 398.214C520.448 398.754 521.037 399.024 521.818 399.024ZM520.892 394.856C520.892 394.605 520.983 394.388 521.167 394.205C521.35 394.021 521.567 393.93 521.818 393.93C522.069 393.93 522.286 394.021 522.469 394.205C522.653 394.388 522.744 394.605 522.744 394.856C522.744 395.107 522.653 395.324 522.469 395.507C522.286 395.691 522.069 395.782 521.818 395.782C521.567 395.782 521.35 395.691 521.167 395.507C520.983 395.324 520.892 395.107 520.892 394.856Z" fill="white" fill-opacity="0.05"/>
<path d="M530.737 393.727C530.737 392.415 531.051 391.397 531.678 390.674C532.305 389.95 533.178 389.588 534.298 389.588C535.417 389.588 536.29 389.95 536.917 390.674C537.544 391.397 537.858 392.415 537.858 393.727V395.985C537.858 397.336 537.544 398.363 536.917 399.067C536.29 399.772 535.417 400.124 534.298 400.124C533.178 400.124 532.305 399.772 531.678 399.067C531.051 398.363 530.737 397.336 530.737 395.985V393.727ZM534.298 399.024C535.079 399.024 535.663 398.754 536.049 398.214C536.444 397.664 536.642 396.892 536.642 395.898V393.814C536.642 393.351 536.594 392.931 536.497 392.555C536.401 392.169 536.251 391.841 536.049 391.571C535.856 391.291 535.61 391.074 535.311 390.92C535.021 390.765 534.683 390.688 534.298 390.688C533.902 390.688 533.559 390.765 533.27 390.92C532.981 391.074 532.735 391.291 532.532 391.571C532.339 391.841 532.194 392.169 532.098 392.555C532.001 392.931 531.953 393.351 531.953 393.814V395.898C531.953 396.892 532.146 397.664 532.532 398.214C532.928 398.754 533.516 399.024 534.298 399.024ZM533.371 394.856C533.371 394.605 533.463 394.388 533.646 394.205C533.83 394.021 534.047 393.93 534.298 393.93C534.548 393.93 534.765 394.021 534.949 394.205C535.132 394.388 535.224 394.605 535.224 394.856C535.224 395.107 535.132 395.324 534.949 395.507C534.765 395.691 534.548 395.782 534.298 395.782C534.047 395.782 533.83 395.691 533.646 395.507C533.463 395.324 533.371 395.107 533.371 394.856Z" fill="white" fill-opacity="0.05"/>
<path d="M543.217 393.727C543.217 392.415 543.53 391.397 544.158 390.674C544.785 389.95 545.658 389.588 546.777 389.588C547.896 389.588 548.769 389.95 549.397 390.674C550.024 391.397 550.337 392.415 550.337 393.727V395.985C550.337 397.336 550.024 398.363 549.397 399.067C548.769 399.772 547.896 400.124 546.777 400.124C545.658 400.124 544.785 399.772 544.158 399.067C543.53 398.363 543.217 397.336 543.217 395.985V393.727ZM546.777 399.024C547.559 399.024 548.142 398.754 548.528 398.214C548.924 397.664 549.122 396.892 549.122 395.898V393.814C549.122 393.351 549.073 392.931 548.977 392.555C548.88 392.169 548.731 391.841 548.528 391.571C548.335 391.291 548.089 391.074 547.79 390.92C547.501 390.765 547.163 390.688 546.777 390.688C546.381 390.688 546.039 390.765 545.75 390.92C545.46 391.074 545.214 391.291 545.011 391.571C544.818 391.841 544.674 392.169 544.577 392.555C544.481 392.931 544.433 393.351 544.433 393.814V395.898C544.433 396.892 544.626 397.664 545.011 398.214C545.407 398.754 545.996 399.024 546.777 399.024ZM545.851 394.856C545.851 394.605 545.942 394.388 546.126 394.205C546.309 394.021 546.526 393.93 546.777 393.93C547.028 393.93 547.245 394.021 547.428 394.205C547.612 394.388 547.703 394.605 547.703 394.856C547.703 395.107 547.612 395.324 547.428 395.507C547.245 395.691 547.028 395.782 546.777 395.782C546.526 395.782 546.309 395.691 546.126 395.507C545.942 395.324 545.851 395.107 545.851 394.856Z" fill="white" fill-opacity="0.05"/>
<path d="M558.721 398.792V390.326H558.547L556.883 394.132H555.682V394.046L557.578 389.791H559.937V398.792H562.802V399.921H555.856V398.792H558.721Z" fill="white" fill-opacity="0.05"/>
<path d="M571.201 398.792V390.326H571.027L569.363 394.132H568.161V394.046L570.057 389.791H572.416V398.792H575.282V399.921H568.335V398.792H571.201Z" fill="white" fill-opacity="0.05"/>
<path d="M583.68 398.792V390.326H583.506L581.842 394.132H580.641V394.046L582.537 389.791H584.896V398.792H587.761V399.921H580.815V398.792H583.68Z" fill="white" fill-opacity="0.05"/>
<path d="M596.16 398.792V390.326H595.986L594.322 394.132H593.12V394.046L595.016 389.791H597.375V398.792H600.241V399.921H593.294V398.792H596.16Z" fill="white" fill-opacity="0.05"/>
<path d="M608.639 398.792V390.326H608.465L606.801 394.132H605.6V394.046L607.496 389.791H609.855V398.792H612.72V399.921H605.774V398.792H608.639Z" fill="white" fill-opacity="0.05"/>
<path d="M618.094 393.727C618.094 392.415 618.407 391.397 619.035 390.674C619.662 389.95 620.535 389.588 621.654 389.588C622.773 389.588 623.646 389.95 624.274 390.674C624.901 391.397 625.214 392.415 625.214 393.727V395.985C625.214 397.336 624.901 398.363 624.274 399.067C623.646 399.772 622.773 400.124 621.654 400.124C620.535 400.124 619.662 399.772 619.035 399.067C618.407 398.363 618.094 397.336 618.094 395.985V393.727ZM621.654 399.024C622.436 399.024 623.019 398.754 623.405 398.214C623.801 397.664 623.999 396.892 623.999 395.898V393.814C623.999 393.351 623.95 392.931 623.854 392.555C623.757 392.169 623.608 391.841 623.405 391.571C623.212 391.291 622.966 391.074 622.667 390.92C622.378 390.765 622.04 390.688 621.654 390.688C621.259 390.688 620.916 390.765 620.627 390.92C620.337 391.074 620.091 391.291 619.888 391.571C619.696 391.841 619.551 392.169 619.454 392.555C619.358 392.931 619.31 393.351 619.31 393.814V395.898C619.31 396.892 619.503 397.664 619.888 398.214C620.284 398.754 620.873 399.024 621.654 399.024ZM620.728 394.856C620.728 394.605 620.82 394.388 621.003 394.205C621.186 394.021 621.403 393.93 621.654 393.93C621.905 393.93 622.122 394.021 622.305 394.205C622.489 394.388 622.58 394.605 622.58 394.856C622.58 395.107 622.489 395.324 622.305 395.507C622.122 395.691 621.905 395.782 621.654 395.782C621.403 395.782 621.186 395.691 621.003 395.507C620.82 395.324 620.728 395.107 620.728 394.856Z" fill="white" fill-opacity="0.05"/>
<path d="M630.573 393.727C630.573 392.415 630.887 391.397 631.514 390.674C632.141 389.95 633.014 389.588 634.134 389.588C635.253 389.588 636.126 389.95 636.753 390.674C637.38 391.397 637.694 392.415 637.694 393.727V395.985C637.694 397.336 637.38 398.363 636.753 399.067C636.126 399.772 635.253 400.124 634.134 400.124C633.014 400.124 632.141 399.772 631.514 399.067C630.887 398.363 630.573 397.336 630.573 395.985V393.727ZM634.134 399.024C634.915 399.024 635.499 398.754 635.885 398.214C636.28 397.664 636.478 396.892 636.478 395.898V393.814C636.478 393.351 636.43 392.931 636.333 392.555C636.237 392.169 636.087 391.841 635.885 391.571C635.692 391.291 635.446 391.074 635.147 390.92C634.857 390.765 634.52 390.688 634.134 390.688C633.738 390.688 633.396 390.765 633.106 390.92C632.817 391.074 632.571 391.291 632.368 391.571C632.175 391.841 632.03 392.169 631.934 392.555C631.837 392.931 631.789 393.351 631.789 393.814V395.898C631.789 396.892 631.982 397.664 632.368 398.214C632.764 398.754 633.352 399.024 634.134 399.024ZM633.207 394.856C633.207 394.605 633.299 394.388 633.482 394.205C633.666 394.021 633.883 393.93 634.134 393.93C634.384 393.93 634.602 394.021 634.785 394.205C634.968 394.388 635.06 394.605 635.06 394.856C635.06 395.107 634.968 395.324 634.785 395.507C634.602 395.691 634.384 395.782 634.134 395.782C633.883 395.782 633.666 395.691 633.482 395.507C633.299 395.324 633.207 395.107 633.207 394.856Z" fill="white" fill-opacity="0.05"/>
<path d="M643.053 393.727C643.053 392.415 643.367 391.397 643.994 390.674C644.621 389.95 645.494 389.588 646.613 389.588C647.732 389.588 648.605 389.95 649.233 390.674C649.86 391.397 650.173 392.415 650.173 393.727V395.985C650.173 397.336 649.86 398.363 649.233 399.067C648.605 399.772 647.732 400.124 646.613 400.124C645.494 400.124 644.621 399.772 643.994 399.067C643.367 398.363 643.053 397.336 643.053 395.985V393.727ZM646.613 399.024C647.395 399.024 647.978 398.754 648.364 398.214C648.76 397.664 648.958 396.892 648.958 395.898V393.814C648.958 393.351 648.909 392.931 648.813 392.555C648.716 392.169 648.567 391.841 648.364 391.571C648.171 391.291 647.925 391.074 647.626 390.92C647.337 390.765 646.999 390.688 646.613 390.688C646.218 390.688 645.875 390.765 645.586 390.92C645.296 391.074 645.05 391.291 644.847 391.571C644.655 391.841 644.51 392.169 644.413 392.555C644.317 392.931 644.269 393.351 644.269 393.814V395.898C644.269 396.892 644.462 397.664 644.847 398.214C645.243 398.754 645.832 399.024 646.613 399.024ZM645.687 394.856C645.687 394.605 645.779 394.388 645.962 394.205C646.145 394.021 646.362 393.93 646.613 393.93C646.864 393.93 647.081 394.021 647.264 394.205C647.448 394.388 647.539 394.605 647.539 394.856C647.539 395.107 647.448 395.324 647.264 395.507C647.081 395.691 646.864 395.782 646.613 395.782C646.362 395.782 646.145 395.691 645.962 395.507C645.779 395.324 645.687 395.107 645.687 394.856Z" fill="white" fill-opacity="0.05"/>
<path d="M655.532 393.727C655.532 392.415 655.846 391.397 656.473 390.674C657.1 389.95 657.973 389.588 659.093 389.588C660.212 389.588 661.085 389.95 661.712 390.674C662.339 391.397 662.653 392.415 662.653 393.727V395.985C662.653 397.336 662.339 398.363 661.712 399.067C661.085 399.772 660.212 400.124 659.093 400.124C657.973 400.124 657.1 399.772 656.473 399.067C655.846 398.363 655.532 397.336 655.532 395.985V393.727ZM659.093 399.024C659.874 399.024 660.458 398.754 660.844 398.214C661.239 397.664 661.437 396.892 661.437 395.898V393.814C661.437 393.351 661.389 392.931 661.292 392.555C661.196 392.169 661.046 391.841 660.844 391.571C660.651 391.291 660.405 391.074 660.106 390.92C659.816 390.765 659.479 390.688 659.093 390.688C658.697 390.688 658.355 390.765 658.065 390.92C657.776 391.074 657.53 391.291 657.327 391.571C657.134 391.841 656.989 392.169 656.893 392.555C656.796 392.931 656.748 393.351 656.748 393.814V395.898C656.748 396.892 656.941 397.664 657.327 398.214C657.723 398.754 658.311 399.024 659.093 399.024ZM658.166 394.856C658.166 394.605 658.258 394.388 658.441 394.205C658.625 394.021 658.842 393.93 659.093 393.93C659.343 393.93 659.561 394.021 659.744 394.205C659.927 394.388 660.019 394.605 660.019 394.856C660.019 395.107 659.927 395.324 659.744 395.507C659.561 395.691 659.343 395.782 659.093 395.782C658.842 395.782 658.625 395.691 658.441 395.507C658.258 395.324 658.166 395.107 658.166 394.856Z" fill="white" fill-opacity="0.05"/>
<path d="M668.012 393.727C668.012 392.415 668.326 391.397 668.953 390.674C669.58 389.95 670.453 389.588 671.572 389.588C672.691 389.588 673.564 389.95 674.192 390.674C674.819 391.397 675.132 392.415 675.132 393.727V395.985C675.132 397.336 674.819 398.363 674.192 399.067C673.564 399.772 672.691 400.124 671.572 400.124C670.453 400.124 669.58 399.772 668.953 399.067C668.326 398.363 668.012 397.336 668.012 395.985V393.727ZM671.572 399.024C672.354 399.024 672.937 398.754 673.323 398.214C673.719 397.664 673.917 396.892 673.917 395.898V393.814C673.917 393.351 673.868 392.931 673.772 392.555C673.675 392.169 673.526 391.841 673.323 391.571C673.13 391.291 672.884 391.074 672.585 390.92C672.296 390.765 671.958 390.688 671.572 390.688C671.177 390.688 670.834 390.765 670.545 390.92C670.255 391.074 670.009 391.291 669.807 391.571C669.614 391.841 669.469 392.169 669.372 392.555C669.276 392.931 669.228 393.351 669.228 393.814V395.898C669.228 396.892 669.421 397.664 669.807 398.214C670.202 398.754 670.791 399.024 671.572 399.024ZM670.646 394.856C670.646 394.605 670.738 394.388 670.921 394.205C671.104 394.021 671.321 393.93 671.572 393.93C671.823 393.93 672.04 394.021 672.223 394.205C672.407 394.388 672.498 394.605 672.498 394.856C672.498 395.107 672.407 395.324 672.223 395.507C672.04 395.691 671.823 395.782 671.572 395.782C671.321 395.782 671.104 395.691 670.921 395.507C670.738 395.324 670.646 395.107 670.646 394.856Z" fill="white" fill-opacity="0.05"/>
<path d="M680.491 393.727C680.491 392.415 680.805 391.397 681.432 390.674C682.059 389.95 682.932 389.588 684.052 389.588C685.171 389.588 686.044 389.95 686.671 390.674C687.298 391.397 687.612 392.415 687.612 393.727V395.985C687.612 397.336 687.298 398.363 686.671 399.067C686.044 399.772 685.171 400.124 684.052 400.124C682.932 400.124 682.059 399.772 681.432 399.067C680.805 398.363 680.491 397.336 680.491 395.985V393.727ZM684.052 399.024C684.833 399.024 685.417 398.754 685.803 398.214C686.198 397.664 686.396 396.892 686.396 395.898V393.814C686.396 393.351 686.348 392.931 686.251 392.555C686.155 392.169 686.005 391.841 685.803 391.571C685.61 391.291 685.364 391.074 685.065 390.92C684.775 390.765 684.438 390.688 684.052 390.688C683.656 390.688 683.314 390.765 683.024 390.92C682.735 391.074 682.489 391.291 682.286 391.571C682.093 391.841 681.948 392.169 681.852 392.555C681.755 392.931 681.707 393.351 681.707 393.814V395.898C681.707 396.892 681.9 397.664 682.286 398.214C682.682 398.754 683.27 399.024 684.052 399.024ZM683.125 394.856C683.125 394.605 683.217 394.388 683.4 394.205C683.584 394.021 683.801 393.93 684.052 393.93C684.302 393.93 684.52 394.021 684.703 394.205C684.886 394.388 684.978 394.605 684.978 394.856C684.978 395.107 684.886 395.324 684.703 395.507C684.52 395.691 684.302 395.782 684.052 395.782C683.801 395.782 683.584 395.691 683.4 395.507C683.217 395.324 683.125 395.107 683.125 394.856Z" fill="white" fill-opacity="0.05"/>
<path d="M695.996 398.792V390.326H695.822L694.158 394.132H692.956V394.046L694.852 389.791H697.211V398.792H700.077V399.921H693.13V398.792H695.996Z" fill="white" fill-opacity="0.05"/>
<path d="M705.45 393.727C705.45 392.415 705.764 391.397 706.391 390.674C707.018 389.95 707.891 389.588 709.011 389.588C710.13 389.588 711.003 389.95 711.63 390.674C712.257 391.397 712.571 392.415 712.571 393.727V395.985C712.571 397.336 712.257 398.363 711.63 399.067C711.003 399.772 710.13 400.124 709.011 400.124C707.891 400.124 707.018 399.772 706.391 399.067C705.764 398.363 705.45 397.336 705.45 395.985V393.727ZM709.011 399.024C709.792 399.024 710.376 398.754 710.762 398.214C711.157 397.664 711.355 396.892 711.355 395.898V393.814C711.355 393.351 711.307 392.931 711.21 392.555C711.114 392.169 710.964 391.841 710.762 391.571C710.569 391.291 710.323 391.074 710.024 390.92C709.734 390.765 709.397 390.688 709.011 390.688C708.615 390.688 708.273 390.765 707.983 390.92C707.694 391.074 707.448 391.291 707.245 391.571C707.052 391.841 706.907 392.169 706.811 392.555C706.714 392.931 706.666 393.351 706.666 393.814V395.898C706.666 396.892 706.859 397.664 707.245 398.214C707.641 398.754 708.229 399.024 709.011 399.024ZM708.084 394.856C708.084 394.605 708.176 394.388 708.359 394.205C708.543 394.021 708.76 393.93 709.011 393.93C709.262 393.93 709.479 394.021 709.662 394.205C709.845 394.388 709.937 394.605 709.937 394.856C709.937 395.107 709.845 395.324 709.662 395.507C709.479 395.691 709.262 395.782 709.011 395.782C708.76 395.782 708.543 395.691 708.359 395.507C708.176 395.324 708.084 395.107 708.084 394.856Z" fill="white" fill-opacity="0.05"/>
<path d="M720.955 398.792V390.326H720.781L719.117 394.132H717.916V394.046L719.811 389.791H722.17V398.792H725.036V399.921H718.089V398.792H720.955Z" fill="white" fill-opacity="0.05"/>
<path d="M730.409 393.727C730.409 392.415 730.723 391.397 731.35 390.674C731.977 389.95 732.85 389.588 733.97 389.588C735.089 389.588 735.962 389.95 736.589 390.674C737.216 391.397 737.53 392.415 737.53 393.727V395.985C737.53 397.336 737.216 398.363 736.589 399.067C735.962 399.772 735.089 400.124 733.97 400.124C732.85 400.124 731.977 399.772 731.35 399.067C730.723 398.363 730.409 397.336 730.409 395.985V393.727ZM733.97 399.024C734.751 399.024 735.335 398.754 735.721 398.214C736.116 397.664 736.314 396.892 736.314 395.898V393.814C736.314 393.351 736.266 392.931 736.169 392.555C736.073 392.169 735.923 391.841 735.721 391.571C735.528 391.291 735.282 391.074 734.983 390.92C734.693 390.765 734.356 390.688 733.97 390.688C733.574 390.688 733.232 390.765 732.942 390.92C732.653 391.074 732.407 391.291 732.204 391.571C732.011 391.841 731.866 392.169 731.77 392.555C731.673 392.931 731.625 393.351 731.625 393.814V395.898C731.625 396.892 731.818 397.664 732.204 398.214C732.6 398.754 733.188 399.024 733.97 399.024ZM733.043 394.856C733.043 394.605 733.135 394.388 733.318 394.205C733.502 394.021 733.719 393.93 733.97 393.93C734.221 393.93 734.438 394.021 734.621 394.205C734.804 394.388 734.896 394.605 734.896 394.856C734.896 395.107 734.804 395.324 734.621 395.507C734.438 395.691 734.221 395.782 733.97 395.782C733.719 395.782 733.502 395.691 733.318 395.507C733.135 395.324 733.043 395.107 733.043 394.856Z" fill="white" fill-opacity="0.05"/>
<path d="M742.889 393.727C742.889 392.415 743.203 391.397 743.83 390.674C744.457 389.95 745.33 389.588 746.449 389.588C747.568 389.588 748.442 389.95 749.069 390.674C749.696 391.397 750.009 392.415 750.009 393.727V395.985C750.009 397.336 749.696 398.363 749.069 399.067C748.442 399.772 747.568 400.124 746.449 400.124C745.33 400.124 744.457 399.772 743.83 399.067C743.203 398.363 742.889 397.336 742.889 395.985V393.727ZM746.449 399.024C747.231 399.024 747.814 398.754 748.2 398.214C748.596 397.664 748.794 396.892 748.794 395.898V393.814C748.794 393.351 748.745 392.931 748.649 392.555C748.552 392.169 748.403 391.841 748.2 391.571C748.007 391.291 747.761 391.074 747.462 390.92C747.173 390.765 746.835 390.688 746.449 390.688C746.054 390.688 745.711 390.765 745.422 390.92C745.132 391.074 744.886 391.291 744.684 391.571C744.491 391.841 744.346 392.169 744.249 392.555C744.153 392.931 744.105 393.351 744.105 393.814V395.898C744.105 396.892 744.298 397.664 744.684 398.214C745.079 398.754 745.668 399.024 746.449 399.024ZM745.523 394.856C745.523 394.605 745.615 394.388 745.798 394.205C745.981 394.021 746.198 393.93 746.449 393.93C746.7 393.93 746.917 394.021 747.1 394.205C747.284 394.388 747.375 394.605 747.375 394.856C747.375 395.107 747.284 395.324 747.1 395.507C746.917 395.691 746.7 395.782 746.449 395.782C746.198 395.782 745.981 395.691 745.798 395.507C745.615 395.324 745.523 395.107 745.523 394.856Z" fill="white" fill-opacity="0.05"/>
<path d="M755.369 393.727C755.369 392.415 755.682 391.397 756.309 390.674C756.936 389.95 757.81 389.588 758.929 389.588C760.048 389.588 760.921 389.95 761.548 390.674C762.175 391.397 762.489 392.415 762.489 393.727V395.985C762.489 397.336 762.175 398.363 761.548 399.067C760.921 399.772 760.048 400.124 758.929 400.124C757.81 400.124 756.936 399.772 756.309 399.067C755.682 398.363 755.369 397.336 755.369 395.985V393.727ZM758.929 399.024C759.71 399.024 760.294 398.754 760.68 398.214C761.075 397.664 761.273 396.892 761.273 395.898V393.814C761.273 393.351 761.225 392.931 761.128 392.555C761.032 392.169 760.882 391.841 760.68 391.571C760.487 391.291 760.241 391.074 759.942 390.92C759.652 390.765 759.315 390.688 758.929 390.688C758.533 390.688 758.191 390.765 757.901 390.92C757.612 391.074 757.366 391.291 757.163 391.571C756.97 391.841 756.825 392.169 756.729 392.555C756.632 392.931 756.584 393.351 756.584 393.814V395.898C756.584 396.892 756.777 397.664 757.163 398.214C757.559 398.754 758.147 399.024 758.929 399.024ZM758.002 394.856C758.002 394.605 758.094 394.388 758.277 394.205C758.461 394.021 758.678 393.93 758.929 393.93C759.18 393.93 759.397 394.021 759.58 394.205C759.763 394.388 759.855 394.605 759.855 394.856C759.855 395.107 759.763 395.324 759.58 395.507C759.397 395.691 759.18 395.782 758.929 395.782C758.678 395.782 758.461 395.691 758.277 395.507C758.094 395.324 758.002 395.107 758.002 394.856Z" fill="white" fill-opacity="0.05"/>
<path d="M770.873 398.792V390.326H770.699L769.035 394.132H767.834V394.046L769.729 389.791H772.088V398.792H774.954V399.921H768.007V398.792H770.873Z" fill="white" fill-opacity="0.05"/>
<path d="M783.352 398.792V390.326H783.179L781.514 394.132H780.313V394.046L782.209 389.791H784.568V398.792H787.433V399.921H780.487V398.792H783.352Z" fill="white" fill-opacity="0.05"/>
<path d="M712.763 295.303C712.763 279.317 725.722 266.358 741.708 266.358H799.597V324.247H741.708C725.722 324.247 712.763 311.288 712.763 295.303Z" fill="url(#paint4_linear_1776_211628)"/>
<path d="M756.177 295.302C756.177 303.295 749.698 309.774 741.705 309.774C733.712 309.774 727.233 303.295 727.233 295.302C727.233 287.309 733.712 280.83 741.705 280.83C749.698 280.83 756.177 287.309 756.177 295.302Z" fill="#21272A"/>
<path d="M596.306 92.6883C596.306 116.292 577.171 135.427 553.567 135.427C529.963 135.427 510.829 116.292 510.829 92.6883C510.829 69.0845 529.963 49.9499 553.567 49.9499C577.171 49.9499 596.306 69.0845 596.306 92.6883ZM590.879 92.6884C590.879 113.295 574.174 130 553.567 130C532.961 130 516.256 113.295 516.256 92.6884C516.256 72.0819 532.961 55.377 553.567 55.377C574.174 55.377 590.879 72.0819 590.879 92.6884ZM553.567 131.356C574.923 131.356 592.235 114.044 592.235 92.6884C592.235 71.3326 574.923 54.0203 553.567 54.0203C532.211 54.0203 514.899 71.3326 514.899 92.6884C514.899 114.044 532.211 131.356 553.567 131.356Z" stroke="url(#paint5_linear_1776_211628)" stroke-width="1.35678"/>
<path d="M791.675 49.2713C791.675 72.8751 772.54 92.0097 748.936 92.0097C725.333 92.0097 706.198 72.8751 706.198 49.2713C706.198 25.6675 725.333 6.53288 748.936 6.53288C772.54 6.53288 791.675 25.6675 791.675 49.2713ZM786.252 49.2692C786.252 69.8757 769.547 86.5805 748.941 86.5805C728.334 86.5805 711.629 69.8757 711.629 49.2692C711.629 28.6627 728.334 11.9579 748.941 11.9579C769.547 11.9579 786.252 28.6627 786.252 49.2692ZM748.941 87.9373C770.297 87.9373 787.609 70.625 787.609 49.2692C787.609 27.9134 770.297 10.6011 748.941 10.6011C727.585 10.6011 710.273 27.9134 710.273 49.2692C710.273 70.625 727.585 87.9373 748.941 87.9373Z" stroke="url(#paint6_linear_1776_211628)" stroke-width="1.35678"/>
<path d="M697.688 136.105C697.688 151.757 684.999 164.446 669.347 164.446C653.694 164.446 641.005 151.757 641.005 136.105C641.005 120.452 653.694 107.763 669.347 107.763C684.999 107.763 697.688 120.452 697.688 136.105ZM692.868 136.102C692.868 149.09 682.339 159.619 669.35 159.619C656.362 159.619 645.833 149.09 645.833 136.102C645.833 123.113 656.362 112.584 669.35 112.584C682.339 112.584 692.868 123.113 692.868 136.102ZM669.35 160.825C683.005 160.825 694.074 149.756 694.074 136.102C694.074 122.447 683.005 111.378 669.35 111.378C655.696 111.378 644.627 122.447 644.627 136.102C644.627 149.756 655.696 160.825 669.35 160.825Z" stroke="url(#paint7_linear_1776_211628)" stroke-width="1.20602"/>
<path d="M788.886 123.918C785.625 135.455 773.628 142.164 762.091 138.902C773.628 142.164 780.337 154.16 777.075 165.697C780.337 154.16 792.333 147.452 803.87 150.713C792.333 147.452 785.625 135.455 788.886 123.918Z" fill="url(#paint8_radial_1776_211628)"/>
<path d="M611.358 26.5103C609.881 30.8887 609.271 35.8361 609.518 40.5489C606.778 36.7065 603.222 33.2131 599.341 30.7048C595.509 28.228 591.334 26.696 587.302 26.7667C590.503 24.3131 592.817 20.5163 594.276 16.1929C595.753 11.8144 596.363 6.86704 596.117 2.15427C598.856 5.99667 602.412 9.49005 606.293 11.9984C610.125 14.4751 614.3 16.0072 618.332 15.9365C615.131 18.3901 612.817 22.1869 611.358 26.5103Z" stroke="url(#paint9_linear_1776_211628)" stroke-width="0.723614"/>
<path d="M115.775 123.442H303.915C318.901 123.442 331.05 135.591 331.05 150.578V293.494L330.997 293.494L331.003 297.112L421.575 296.959H510.15V293.341H421.572L334.668 293.488V150.578C334.668 133.593 320.9 119.824 303.915 119.824H115.775V123.442Z" fill="#4D5358"/>
<path d="M115.775 295.023H510.145" stroke="#4D5358" stroke-width="3.61807" stroke-dasharray="0"/>
<path d="M421.575 293.34L330.997 293.494L331.003 297.112L331.05 297.112V440.021C331.05 455.007 318.901 467.156 303.915 467.156H115.775V470.774H303.915C320.9 470.774 334.668 457.006 334.668 440.021V297.106L421.575 296.958H510.15V293.34L421.575 293.34Z" fill="#4D5358"/>
<path d="M329.017 225.157C331.396 223.784 334.327 223.784 336.706 225.157L391.684 256.899C394.063 258.272 395.528 260.81 395.528 263.557V327.041C395.528 329.787 394.063 332.326 391.684 333.699L336.706 365.441C334.327 366.814 331.396 366.814 329.017 365.441L274.039 333.699C271.66 332.326 270.195 329.787 270.195 327.041V263.557C270.195 260.81 271.66 258.272 274.039 256.899L329.017 225.157Z" fill="black"/>
<path fill-rule="evenodd" clip-rule="evenodd" d="M331.901 255.447C320.983 255.447 312.128 264.303 312.128 275.22V283.651H303.721C301.825 283.651 300.289 285.187 300.289 287.083V326.022C300.289 327.917 301.825 329.453 303.721 329.453H360.083C361.978 329.453 363.515 327.917 363.515 326.022V287.083C363.515 285.187 361.978 283.651 360.083 283.651H351.673V275.211C351.673 264.294 342.818 255.447 331.901 255.447ZM319.856 275.211V283.651H343.945V275.211C343.945 268.567 338.544 263.166 331.901 263.166C325.257 263.166 319.856 268.567 319.856 275.211ZM320.538 305.936C322.498 302.623 322.557 301.601 322.557 301.601L322.545 301.566C324.291 303.312 324.778 306.4 324.778 306.4C325.063 306.008 325.598 305.248 325.776 304.963C326.738 303.442 327.498 302.172 328.056 300.461C328.118 300.271 328.177 300.095 328.234 299.926C328.513 299.094 328.723 298.466 328.852 297.468C329.006 296.269 328.994 294.582 328.887 293.371C328.875 293.228 328.78 292.504 328.733 292.326C330.764 293.193 332.7 294.38 334.101 296.114C335.716 298.098 336.702 300.473 336.738 303.027C336.741 303.058 336.746 303.103 336.751 303.157C336.77 303.326 336.797 303.577 336.797 303.739C337.545 303.145 337.973 302.373 338.294 301.471C338.721 300.248 338.84 298.905 338.721 297.623C338.686 297.195 338.472 296.221 338.389 296.15C343.793 300.77 345.372 308.086 345.372 308.086C346.025 311.59 345.479 315.046 343.567 318.051C338.626 325.83 325.289 325.972 320.372 318.051C318.044 314.286 318.258 309.784 320.538 305.936Z" fill="white"/>
<defs>
<linearGradient id="paint0_linear_1776_211628" x1="28.9445" y1="63.7432" x2="79.5975" y2="179.521" gradientUnits="userSpaceOnUse">
<stop stop-color="#343A3F"/>
<stop offset="1" stop-color="#343A3F" stop-opacity="0.2"/>
</linearGradient>
<linearGradient id="paint1_linear_1776_211628" x1="28.9445" y1="237.411" x2="79.5975" y2="353.189" gradientUnits="userSpaceOnUse">
<stop stop-color="#343A3F"/>
<stop offset="1" stop-color="#343A3F" stop-opacity="0.2"/>
</linearGradient>
<linearGradient id="paint2_linear_1776_211628" x1="28.9445" y1="411.078" x2="79.5975" y2="526.856" gradientUnits="userSpaceOnUse">
<stop stop-color="#343A3F"/>
<stop offset="1" stop-color="#343A3F" stop-opacity="0.2"/>
<stop offset="1" stop-color="#343A3F" stop-opacity="0.2"/>
</linearGradient>
<linearGradient id="paint3_linear_1776_211628" x1="654.874" y1="179.523" x2="841.619" y2="494.725" gradientUnits="userSpaceOnUse">
<stop stop-color="#343A3F"/>
<stop offset="1" stop-color="#343A3F" stop-opacity="0"/>
</linearGradient>
<linearGradient id="paint4_linear_1776_211628" x1="654.874" y1="145.755" x2="706.069" y2="390.535" gradientUnits="userSpaceOnUse">
<stop stop-color="white" stop-opacity="0"/>
<stop offset="1" stop-color="#343A3F"/>
</linearGradient>
<linearGradient id="paint5_linear_1776_211628" x1="548.14" y1="41.1309" x2="591.557" y2="130.678" gradientUnits="userSpaceOnUse">
<stop stop-color="#6C6EC2" stop-opacity="0"/>
<stop offset="0.498474" stop-color="#6C6EC2"/>
<stop offset="1" stop-color="#6C6EC2" stop-opacity="0"/>
</linearGradient>
<linearGradient id="paint6_linear_1776_211628" x1="786.93" y1="-0.931505" x2="763.865" y2="108.967" gradientUnits="userSpaceOnUse">
<stop stop-color="#6C6EC2" stop-opacity="0"/>
<stop offset="0.53125" stop-color="#6C6EC2"/>
<stop offset="1" stop-color="#6C6EC2" stop-opacity="0"/>
</linearGradient>
<linearGradient id="paint7_linear_1776_211628" x1="645.23" y1="111.981" x2="693.471" y2="160.222" gradientUnits="userSpaceOnUse">
<stop stop-color="#FFD40C" stop-opacity="0"/>
<stop offset="0.473958" stop-color="#FFD40C"/>
<stop offset="1" stop-color="#FFD40C" stop-opacity="0"/>
</linearGradient>
<radialGradient id="paint8_radial_1776_211628" cx="0" cy="0" r="1" gradientUnits="userSpaceOnUse" gradientTransform="translate(782.981 144.808) rotate(105.785) scale(25.1003)">
<stop stop-color="white"/>
<stop offset="1" stop-color="#121619" stop-opacity="0"/>
</radialGradient>
<linearGradient id="paint9_linear_1776_211628" x1="593.799" y1="5.62245" x2="620.94" y2="37.8974" gradientUnits="userSpaceOnUse">
<stop stop-color="white"/>
<stop offset="0.0001" stop-color="white"/>
<stop offset="1" stop-color="white" stop-opacity="0"/>
</linearGradient>
</defs>
</svg>
