<svg width="236" height="158" viewBox="0 0 236 158" fill="none" xmlns="http://www.w3.org/2000/svg">
<rect x="-1" y="1" width="202" height="136" rx="7.33528" transform="matrix(-1 0 0 1 202 0)" fill="#33257F" stroke="#33257F" stroke-width="2"/>
<path d="M203.25 21.75H0.75V149.665C0.75 153.854 4.14604 157.25 8.33528 157.25H195.665C199.854 157.25 203.25 153.854 203.25 149.665V21.75Z" fill="white" stroke="#33257F" stroke-width="1.5"/>
<circle r="4.46486" transform="matrix(-1 0 0 1 41.1074 10.2468)" fill="white"/>
<circle r="4.46486" transform="matrix(-1 0 0 1 27.7129 10.2468)" fill="white"/>
<circle r="4.46486" transform="matrix(-1 0 0 1 14.3183 10.2468)" fill="white"/>
<circle cx="200" cy="105" r="35.3864" fill="white" stroke="#33257F" stroke-width="1.22727"/>
<circle cx="199.999" cy="105" r="28.8409" fill="white" stroke="#33257F" stroke-width="1.22727"/>
<path d="M206.51 123.74L213.007 119.989L210.927 116.387C212.091 115.271 213.059 114 213.814 112.623L217.833 113.7L219.775 106.453L215.756 105.376C215.79 103.808 215.588 102.222 215.137 100.673L218.74 98.5937L214.988 92.0965L211.386 94.1762C210.27 93.012 208.999 92.0443 207.623 91.289L208.7 87.2685L201.453 85.3268L200.376 89.3459C198.806 89.3116 197.222 89.5143 195.673 89.9645L193.593 86.3623L187.094 90.1128L189.173 93.7149C188.009 94.831 187.041 96.1018 186.286 97.4786L182.268 96.402L180.327 103.649L184.346 104.726C184.311 106.296 184.514 107.88 184.964 109.429L181.362 111.508L185.113 118.006L188.715 115.926C189.831 117.09 191.102 118.058 192.479 118.813L191.402 122.832L198.649 124.774L199.726 120.755C201.295 120.789 202.88 120.587 204.429 120.136L206.509 123.739L206.51 123.74ZM193.203 109.004C191.019 105.222 192.315 100.386 196.097 98.2036C199.88 96.0196 204.716 97.3153 206.898 101.098C209.082 104.88 207.787 109.716 204.004 111.899C200.222 114.082 195.386 112.787 193.203 109.004Z" fill="#33257F"/>
<circle cx="200.082" cy="105.079" r="7.93576" fill="white"/>
</svg>
