<svg width="217" height="258" viewBox="0 0 217 258" fill="none" xmlns="http://www.w3.org/2000/svg">
<g clip-path="url(#clip0_488_8)">
<rect width="96.1657" height="86.9442" transform="translate(197.861 83.3921) rotate(139.868)" fill="white"/>
<path d="M69.3162 78.9809L82.4136 90.8459L89.8658 90.1312L98.477 83.7282L106.245 89.9594L114.555 84.0031L122.624 89.7876L131.429 89.9079C136.132 102.287 149.14 109.917 162.622 107.407C177.774 104.567 187.771 89.9911 184.946 74.8405C182.114 59.6819 167.545 49.693 152.394 52.5181C142.911 54.2817 135.449 60.6552 131.884 68.8972L85.0114 68.0013L69.323 78.989L69.3162 78.9809ZM161.02 79.3021C160.381 75.8894 162.632 72.6103 166.045 71.9715C169.457 71.3326 172.736 73.5833 173.375 76.996C174.014 80.4088 171.763 83.6878 168.351 84.3267C164.938 84.9656 161.659 82.7148 161.02 79.3021Z" fill="#33257F"/>
</g>
<path d="M42.0883 166.841L67.9013 145.593C67.9013 145.593 77.3539 138.034 95.2385 140.844L147.481 149.053C147.481 149.053 164.454 148.557 161.944 164.533C161.944 164.533 159.311 176.74 144.591 174.427L109.876 168.973" stroke="#33257F" stroke-width="2" stroke-miterlimit="10"/>
<path d="M74.0082 209.606L86.0783 201.474C86.0783 201.474 89.383 198.75 103.405 200.954L150.032 208.28C150.032 208.28 165.744 208.936 176.602 196.989L210.436 158.675C210.436 158.675 220.161 146.756 210.786 137.734C201.412 128.711 178.62 148.431 178.62 148.431L162.431 161.337" stroke="#33257F" stroke-width="2" stroke-miterlimit="10"/>
<path d="M79.0205 217.18L33.5471 154.357L9.26256 171.745L54.5487 235.253L79.0205 217.18Z" stroke="#33257F" stroke-width="2" stroke-miterlimit="10"/>
<defs>
<clipPath id="clip0_488_8">
<rect width="96.1657" height="86.9442" fill="white" transform="translate(197.861 83.3921) rotate(139.868)"/>
</clipPath>
</defs>
</svg>
