<svg width="322" height="53" viewBox="0 0 322 53" fill="none" xmlns="http://www.w3.org/2000/svg">
<rect x="203.411" y="1.92698" width="49.6214" height="87.6687" rx="24.8107" transform="rotate(90.1194 203.411 1.92698)" stroke="#33257F" stroke-width="2.0839"/>
<rect x="188.96" y="14.5281" width="24.3611" height="58.8197" rx="12.1805" transform="rotate(90.1194 188.96 14.5281)" stroke="#33257F" stroke-width="2.0839"/>
<rect x="320.407" y="2.17015" width="49.6214" height="87.6687" rx="24.8107" transform="rotate(90.1194 320.407 2.17015)" stroke="#33257F" stroke-width="2.0839"/>
<rect x="305.956" y="14.7712" width="24.3611" height="58.8197" rx="12.1805" transform="rotate(90.1194 305.956 14.7712)" stroke="#33257F" stroke-width="2.0839"/>
<rect x="88.8153" y="1.68772" width="49.6214" height="87.6687" rx="24.8107" transform="rotate(90.1194 88.8153 1.68772)" stroke="#33257F" stroke-width="2.0839"/>
<rect x="74.3641" y="14.2888" width="24.3611" height="58.8197" rx="12.1805" transform="rotate(90.1194 74.3641 14.2888)" stroke="#33257F" stroke-width="2.0839"/>
<rect x="124.839" y="20.8044" width="12.3406" height="44.3951" rx="6.17032" transform="rotate(90.1194 124.839 20.8044)" fill="white" stroke="#33257F" stroke-width="2.0839"/>
<rect x="240.233" y="21.0447" width="12.3406" height="44.3951" rx="6.17032" transform="rotate(90.1194 240.233 21.0447)" fill="white" stroke="#33257F" stroke-width="2.0839"/>
</svg>
