<svg width="197" height="187" viewBox="0 0 197 187" fill="none" xmlns="http://www.w3.org/2000/svg">
<path d="M58.9004 87.5132C60.4045 87.5132 61.8604 87.7141 63.2507 88.0839C63.2507 88.0474 63.2507 88.0108 63.2507 87.9743C63.2464 68.1063 78.6713 52 97.6989 52C111.782 52 123.879 60.8247 129.226 73.4659C130.739 73.16 132.3 72.9957 133.9 72.9957C147.371 72.9911 158.297 84.3997 158.297 98.4699C158.297 112.54 147.371 123.949 133.896 123.949C133.301 123.949 132.715 123.917 132.134 123.876H99.8019C99.1024 123.921 98.4028 123.949 97.6945 123.949C96.9862 123.949 96.2867 123.921 95.5871 123.876H58.8961C49.2817 123.876 41.4862 115.736 41.4862 105.697C41.4862 95.6577 49.2817 87.5178 58.8961 87.5178L58.9004 87.5132Z" fill="#33257F"/>
<mask id="path-2-inside-1_493_3702" fill="white">
<path fill-rule="evenodd" clip-rule="evenodd" d="M8.25904 68.7294C17.5989 31.3472 54.5809 3.31572 98.9609 3.31572C143.341 3.31572 180.323 31.3472 189.663 68.7294H192.055C182.677 29.929 144.477 0.998047 98.9609 0.998047C53.4448 0.998047 15.2446 29.929 5.86719 68.7294H8.25904Z"/>
</mask>
<path fill-rule="evenodd" clip-rule="evenodd" d="M8.25904 68.7294C17.5989 31.3472 54.5809 3.31572 98.9609 3.31572C143.341 3.31572 180.323 31.3472 189.663 68.7294H192.055C182.677 29.929 144.477 0.998047 98.9609 0.998047C53.4448 0.998047 15.2446 29.929 5.86719 68.7294H8.25904Z" fill="#33257F"/>
<path d="M8.25904 68.7294V70.5836H9.70693L10.0579 69.1789L8.25904 68.7294ZM189.663 68.7294L187.864 69.1789L188.215 70.5836H189.663V68.7294ZM192.055 68.7294V70.5836H194.41L193.857 68.2939L192.055 68.7294ZM5.86719 68.7294L4.06494 68.2939L3.51156 70.5836H5.86719V68.7294ZM98.9609 1.46158C53.8298 1.46158 16.0295 29.9792 6.4602 68.28L10.0579 69.1789C19.1682 32.7152 55.332 5.16986 98.9609 5.16986V1.46158ZM191.462 68.28C181.892 29.9792 144.092 1.46158 98.9609 1.46158V5.16986C142.59 5.16986 178.754 32.7152 187.864 69.1789L191.462 68.28ZM192.055 66.8753H189.663V70.5836H192.055V66.8753ZM98.9609 2.85219C143.724 2.85219 181.099 31.2933 190.252 69.165L193.857 68.2939C184.255 28.5648 145.23 -0.856091 98.9609 -0.856091V2.85219ZM7.66944 69.165C16.8223 31.2933 54.1977 2.85219 98.9609 2.85219V-0.856091C52.692 -0.856091 13.6668 28.5648 4.06494 68.2939L7.66944 69.165ZM8.25904 66.8753H5.86719V70.5836H8.25904V66.8753Z" fill="#33257F" mask="url(#path-2-inside-1_493_3702)"/>
<mask id="path-4-inside-2_493_3702" fill="white">
<path fill-rule="evenodd" clip-rule="evenodd" d="M8.25904 119.27C17.5988 156.652 54.5809 184.683 98.9609 184.683C143.341 184.683 180.323 156.652 189.663 119.27H192.055C182.677 158.07 144.477 187.001 98.9609 187.001C53.4448 187.001 15.2445 158.07 5.86719 119.27H8.25904Z"/>
</mask>
<path fill-rule="evenodd" clip-rule="evenodd" d="M8.25904 119.27C17.5988 156.652 54.5809 184.683 98.9609 184.683C143.341 184.683 180.323 156.652 189.663 119.27H192.055C182.677 158.07 144.477 187.001 98.9609 187.001C53.4448 187.001 15.2445 158.07 5.86719 119.27H8.25904Z" fill="#33257F"/>
<path d="M8.25904 119.27V117.415H9.70693L10.0579 118.82L8.25904 119.27ZM189.663 119.27L187.864 118.82L188.215 117.415H189.663V119.27ZM192.055 119.27V117.415H194.41L193.857 119.705L192.055 119.27ZM5.86719 119.27L4.06494 119.705L3.51156 117.415H5.86719V119.27ZM98.9609 186.537C53.8298 186.537 16.0295 158.02 6.4602 119.719L10.0579 118.82C19.1682 155.284 55.332 182.829 98.9609 182.829V186.537ZM191.462 119.719C181.892 158.02 144.092 186.537 98.9609 186.537V182.829C142.59 182.829 178.754 155.284 187.864 118.82L191.462 119.719ZM192.055 121.124H189.663V117.415H192.055V121.124ZM98.9609 185.147C143.724 185.147 181.099 156.706 190.252 118.834L193.857 119.705C184.255 159.434 145.23 188.855 98.9609 188.855V185.147ZM7.66944 118.834C16.8223 156.706 54.1977 185.147 98.9609 185.147V188.855C52.692 188.855 13.6667 159.434 4.06494 119.705L7.66944 118.834ZM8.25904 121.124H5.86719V117.415H8.25904V121.124Z" fill="#33257F" mask="url(#path-4-inside-2_493_3702)"/>
<path d="M178.691 60.1623L190.743 68.506L195.379 53.6729" stroke="#33257F" stroke-width="2.31767"/>
<path d="M18.3086 126.448L6.2567 118.104L1.62135 132.938" stroke="#33257F" stroke-width="2.31767"/>
</svg>