<svg width="190" height="186" viewBox="0 0 190 186" fill="none" xmlns="http://www.w3.org/2000/svg">
<path d="M89.9083 109.895C89.9083 106.999 87.56 104.65 84.6633 104.65H7.30375C4.40698 104.65 2.05869 106.999 2.05869 109.895V179.698C2.05869 182.593 4.40538 184.939 7.30017 184.939H84.6668C87.5616 184.939 89.9083 182.593 89.9083 179.698V109.895Z" fill="white" stroke="#33257F" stroke-width="2.12088"/>
<path d="M188.197 109.895C188.197 106.999 185.849 104.65 182.952 104.65H105.593C102.696 104.65 100.348 106.999 100.348 109.895V179.698C100.348 182.593 102.694 184.939 105.589 184.939H182.956C185.851 184.939 188.197 182.593 188.197 179.698V109.895Z" fill="white" stroke="#33257F" stroke-width="2.12088"/>
<path d="M90.988 5.04842C93.5354 0.636179 99.904 0.636175 102.451 5.04841L147.927 83.8142C150.474 88.2265 147.29 93.7418 142.195 93.7418H51.2442C46.1494 93.7418 42.9652 88.2265 45.5126 83.8142L90.988 5.04842Z" stroke="#33257F" stroke-width="2.12088"/>
</svg>
