<svg width="257" height="192" viewBox="0 0 257 192" fill="none" xmlns="http://www.w3.org/2000/svg">
<path d="M93.8162 11.9637L19.2187 34.7501C11.2958 37.1702 6.83493 45.5549 9.25504 53.4777L45.1874 171.112C47.6075 179.035 55.9922 183.496 63.9151 181.076L138.513 158.289C146.435 155.869 150.896 147.485 148.476 139.562L112.544 21.9274C110.124 14.0045 101.739 9.54361 93.8162 11.9637Z" fill="white" stroke="#33257F" stroke-width="2.05038" stroke-linejoin="round"/>
<path d="M81.4343 102.864C82.1574 104.518 82.7407 106.25 83.6335 107.805C85.3543 110.806 87.7644 113.115 91.0204 114.488C91.742 114.792 92.3111 115.453 92.9509 115.949C92.2549 116.293 91.5868 116.721 90.856 116.969C86.4108 118.468 81.9545 119.934 77.4915 121.379C77.07 121.519 76.5703 121.421 76.1046 121.435C76.1949 120.975 76.1622 120.436 76.3952 120.062C79.1597 115.597 79.5982 110.866 78.1131 105.894C77.935 105.303 77.726 104.722 77.5325 104.136L77.1772 104.156C77.0925 104.461 76.9358 104.763 76.9358 105.065C76.9448 113.258 66.5036 120.159 57.4474 114.11C51.979 110.457 50.2743 105.036 50.8566 98.7972C51.3365 93.647 53.1799 88.8704 55.8082 84.4503C59.8496 77.6365 63.4506 70.6374 65.8171 63.051C65.8543 62.9304 65.9555 62.8314 66.1868 62.4871C66.378 62.6605 66.5573 62.8579 66.7708 63.0126C72.6398 67.2833 79.0234 70.6087 85.7235 73.3648C91.0744 75.566 95.9704 78.4874 99.9502 82.7606C104.726 87.8912 105.823 94.8554 102.824 100.655C98.5706 108.882 87.5674 109.454 82.7972 103.443C82.543 103.122 82.2048 102.866 81.9025 102.581C81.7456 102.676 81.5878 102.768 81.4309 102.863L81.4343 102.864Z" fill="#33257F"/>
<path d="M169.556 15.2376L91.7498 9.73967C83.4861 9.15574 76.3137 15.3814 75.7298 23.6451L67.06 146.339C66.4761 154.603 72.7017 161.775 80.9654 162.359L158.771 167.857C167.035 168.441 174.207 162.215 174.791 153.952L183.461 31.2576C184.045 22.9939 177.819 15.8215 169.556 15.2376Z" fill="white" stroke="#33257F" stroke-width="2.05038" stroke-linejoin="round"/>
<path d="M128.35 96.2908C128.367 98.0959 128.224 99.9176 128.435 101.698C128.842 105.134 130.154 108.202 132.61 110.743C133.155 111.305 133.419 112.136 133.813 112.843C133.038 112.887 132.256 113.019 131.486 112.96C126.809 112.596 122.135 112.197 117.463 111.777C117.02 111.74 116.599 111.454 116.165 111.285C116.428 110.897 116.61 110.388 116.971 110.135C121.265 107.112 123.523 102.931 124.107 97.7755C124.175 97.1618 124.21 96.5454 124.262 95.9304L123.927 95.8099C123.73 96.0568 123.467 96.2737 123.349 96.5517C120.144 104.092 107.833 106.346 101.874 97.23C98.2765 91.7251 98.8339 86.07 101.816 80.5592C104.277 76.0096 107.846 72.3384 111.997 69.303C118.386 64.6195 124.443 59.593 129.595 53.5422C129.677 53.4458 129.809 53.3945 130.156 53.1684C130.264 53.4029 130.352 53.6548 130.488 53.8808C134.212 60.1109 138.78 65.6731 143.863 70.8358C147.922 74.9588 151.281 79.5662 153.266 85.0577C155.648 91.6502 153.926 98.4868 148.893 102.646C141.754 108.546 131.408 104.758 129.377 97.3579C129.269 96.963 129.058 96.5948 128.892 96.2141C128.71 96.2396 128.529 96.2624 128.348 96.2879L128.35 96.2908Z" fill="#33257F"/>
<path d="M242.084 46.6787L172.53 11.3759C165.143 7.62645 156.115 10.5754 152.365 17.9626L96.6955 127.643C92.946 135.031 95.895 144.059 103.282 147.808L172.836 183.111C180.223 186.86 189.251 183.911 193.001 176.524L248.67 66.8434C252.42 59.4562 249.471 50.4282 242.084 46.6787Z" fill="white" stroke="#33257F" stroke-width="2.05038" stroke-linejoin="round"/>
<path d="M171.517 105.659C170.864 107.342 170.057 108.981 169.594 110.714C168.7 114.056 168.782 117.392 170.123 120.661C170.421 121.385 170.358 122.255 170.463 123.058C169.727 122.811 168.951 122.645 168.258 122.305C164.048 120.235 159.854 118.133 155.669 116.013C155.272 115.814 154.986 115.393 154.646 115.075C155.035 114.812 155.392 114.406 155.82 114.306C160.928 113.087 164.575 110.04 167.026 105.467C167.316 104.922 167.578 104.363 167.853 103.811L167.587 103.575C167.312 103.731 166.988 103.835 166.775 104.049C161.006 109.867 148.736 107.402 146.576 96.7275C145.272 90.2815 147.884 85.2348 152.695 81.2201C156.666 77.9053 161.34 75.8166 166.32 74.5341C173.99 72.5497 181.478 70.1235 188.504 66.4107C188.615 66.3513 188.757 66.3525 189.164 66.2712C189.177 66.5291 189.165 66.7954 189.208 67.0557C190.36 74.222 192.544 81.0804 195.354 87.7583C197.598 93.0914 199.011 98.6149 198.822 104.451C198.593 111.457 194.462 117.17 188.246 119.17C179.431 122.007 171.223 114.656 172.076 107.03C172.122 106.624 172.062 106.204 172.049 105.788C171.871 105.745 171.694 105.699 171.516 105.655L171.517 105.659Z" fill="#33257F"/>
</svg>
