<svg width="293" height="194" viewBox="0 0 293 194" fill="none" xmlns="http://www.w3.org/2000/svg">
<circle cx="138" cy="100" r="92.9195" fill="#33257F" stroke="#33257F" stroke-width="2.16092"/>
<path d="M138 166.989C101.003 166.989 71.0117 136.997 71.0117 100" stroke="white" stroke-width="2.16092"/>
<path d="M74.3887 138.896C78.6977 145.929 84.1399 152.191 90.4614 157.43" stroke="white" stroke-width="2.16092"/>
<path d="M81.2949 117.828C87.0997 136.309 101.69 150.9 120.172 156.705" stroke="white" stroke-width="2.16092"/>
<path d="M138 35.1716C174.997 35.1717 204.988 65.1634 204.988 102.16" stroke="white" stroke-width="2.16092"/>
<path d="M201.611 63.2634C197.302 56.2314 191.86 49.9689 185.539 44.7302" stroke="white" stroke-width="2.16092"/>
<path d="M194.705 84.3323C188.9 65.8506 174.31 51.2598 155.828 45.4551" stroke="white" stroke-width="2.16092"/>
<circle cx="137.997" cy="100.001" r="30.2529" fill="white" stroke="#33257F" stroke-width="2.16092"/>
<circle cx="137.998" cy="99.9995" r="9.72414" fill="#33257F"/>
<circle cx="137.998" cy="99.9995" r="9.72414" fill="#33257F"/>
<circle cx="229" cy="151" r="38" fill="white" stroke="#33257F" stroke-width="2"/>
<path d="M229.973 128.082C223.791 128.082 218.775 133.097 218.775 139.28V153.302H241.171V139.275C241.171 133.092 236.156 128.082 229.973 128.082ZM236.795 148.926H223.152V139.275C223.152 135.512 226.211 132.453 229.973 132.453C233.736 132.453 236.795 135.512 236.795 139.275V148.926Z" fill="#33257F" stroke="#33257F" stroke-width="0.290827" stroke-linejoin="round"/>
<path d="M245.934 144.059H214.014C212.94 144.059 212.07 144.929 212.07 146.002V168.055C212.07 169.128 212.94 169.999 214.014 169.999H245.934C247.008 169.999 247.878 169.128 247.878 168.055V146.002C247.878 144.929 247.008 144.059 245.934 144.059Z" fill="#33257F" stroke="white" stroke-width="0.675165" stroke-linejoin="round"/>
<path d="M225.983 153.987C225.983 153.987 225.958 154.41 225.145 155.785C224.199 157.381 224.11 159.249 225.076 160.81C227.116 164.097 232.649 164.038 234.698 160.81C235.492 159.564 235.718 158.13 235.447 156.677C235.447 156.677 234.792 153.642 232.55 151.725C232.585 151.755 232.673 152.159 232.688 152.336C232.738 152.868 232.688 153.425 232.511 153.932C232.378 154.307 232.201 154.627 231.89 154.873C231.89 154.785 231.87 154.632 231.865 154.578C231.851 153.519 231.442 152.533 230.772 151.71C230.19 150.991 229.387 150.498 228.545 150.139C228.564 150.213 228.604 150.513 228.609 150.572C228.653 151.075 228.658 151.774 228.594 152.272C228.53 152.77 228.417 153.046 228.264 153.514C228.032 154.223 227.717 154.75 227.318 155.381C227.244 155.499 227.022 155.814 226.904 155.977C226.904 155.977 226.702 154.696 225.978 153.972L225.983 153.987Z" fill="white"/>
<path d="M259.5 33V1H292V33" stroke="#33257F" stroke-width="2"/>
<path d="M259.565 32.0003C259.565 35.4309 255.882 38.609 250.783 38.609C245.684 38.609 242 35.4309 242 32.0003C242 28.5697 245.684 25.3916 250.783 25.3916C255.882 25.3916 259.565 28.5697 259.565 32.0003Z" fill="white" stroke="#33257F" stroke-width="2"/>
<path d="M292.001 32.0003C292.001 35.4309 288.317 38.609 283.218 38.609C278.119 38.609 274.436 35.4309 274.436 32.0003C274.436 28.5697 278.119 25.3916 283.218 25.3916C288.317 25.3916 292.001 28.5697 292.001 32.0003Z" fill="white" stroke="#33257F" stroke-width="2"/>
<line x1="260" y1="7.5" x2="292" y2="7.5" stroke="black" stroke-width="2"/>
<path d="M18.5 169V139.052C18.5 138.219 19.4599 137.751 20.1163 138.265L30 146" stroke="#33257F" stroke-width="2"/>
<path d="M18.5652 168C18.5652 171.431 14.8816 174.609 9.78261 174.609C4.68366 174.609 1 171.431 1 168C1 164.57 4.68366 161.392 9.78261 161.392C14.8816 161.392 18.5652 164.57 18.5652 168Z" fill="white" stroke="#33257F" stroke-width="2"/>
</svg>
