<svg width="183" height="157" viewBox="0 0 183 157" fill="none" xmlns="http://www.w3.org/2000/svg">
<path d="M112.93 21.0061L108.264 6.78041C108.264 3.86937 105.516 1.5625 102.192 1.5625H21.5935C18.206 1.5625 15.5215 3.92429 15.5215 6.78041V118.883C15.5215 121.794 18.2699 124.101 21.5935 124.101H174.929C178.316 124.101 181.001 121.739 181.001 118.883V26.2789C181.001 23.3679 178.252 21.061 174.929 21.061H112.93V21.0061Z" stroke="#33257F" stroke-width="2.09467" stroke-linecap="round" stroke-linejoin="round"/>
<path d="M99.4084 34.5266L94.7425 20.3009C94.7425 17.3899 91.9941 15.083 88.6705 15.083H8.07205C4.68448 15.083 2 17.4448 2 20.3009V132.404C2 135.315 4.7484 137.621 8.07205 137.621H161.407C164.795 137.621 167.479 135.26 167.479 132.404V39.7994C167.479 36.8884 164.731 34.5815 161.407 34.5815H99.4084V34.5266Z" fill="white" stroke="#33257F" stroke-width="2.09467" stroke-linecap="round" stroke-linejoin="round"/>
<path d="M50.5113 93.6338C41.3538 93.6338 33.9258 101.062 33.9258 110.219V130.988H67.0968V110.212C67.0968 101.054 59.6688 93.6338 50.5113 93.6338ZM60.6149 124.506H40.4077V110.212C40.4077 104.639 44.9385 100.108 50.5113 100.108C56.0842 100.108 60.6149 104.639 60.6149 110.212V124.506Z" fill="#33257F" stroke="#33257F" stroke-width="0.43075" stroke-linejoin="round"/>
<path d="M74.151 117.297H26.8726C25.2829 117.297 23.9941 118.586 23.9941 120.176V152.839C23.9941 154.429 25.2829 155.717 26.8726 155.717H74.151C75.7407 155.717 77.0294 154.429 77.0294 152.839V120.176C77.0294 118.586 75.7407 117.297 74.151 117.297Z" fill="#33257F" stroke="white" stroke-linejoin="round"/>
<path d="M44.5993 132.001C44.5993 132.001 44.5629 132.629 43.3588 134.665C41.9577 137.029 41.8263 139.795 43.2566 142.108C46.2777 146.975 54.4727 146.888 57.5084 142.108C58.6833 140.262 59.0189 138.138 58.6176 135.985C58.6176 135.985 57.647 131.49 54.3267 128.652C54.3778 128.695 54.5092 129.294 54.5311 129.556C54.604 130.344 54.5311 131.169 54.2683 131.921C54.0713 132.475 53.8086 132.95 53.3489 133.315C53.3489 133.183 53.3197 132.957 53.3124 132.877C53.2905 131.308 52.6848 129.848 51.6924 128.63C50.8313 127.564 49.6418 126.834 48.394 126.302C48.4232 126.411 48.4815 126.856 48.4888 126.944C48.5545 127.688 48.5618 128.724 48.4669 129.462C48.3721 130.199 48.2042 130.607 47.978 131.3C47.635 132.351 47.168 133.132 46.5769 134.066C46.4675 134.241 46.1391 134.708 45.964 134.949C45.964 134.949 45.6648 133.052 44.592 131.979L44.5993 132.001Z" fill="white"/>
</svg>
