<svg width="654" height="238" viewBox="0 0 654 238" fill="none" xmlns="http://www.w3.org/2000/svg">
<path d="M328.006 1.79102C293.327 1.79102 265.197 29.9208 265.197 64.6002V143.252H390.816V64.5723C390.816 29.8928 362.686 1.79102 328.006 1.79102ZM366.269 118.705H289.744V64.5723C289.744 43.4679 306.902 26.3101 328.006 26.3101C349.111 26.3101 366.269 43.4679 366.269 64.5723V118.705Z" fill="#33257F" stroke="#FFC08E" stroke-width="2.45385" stroke-linejoin="round"/>
<path d="M408.501 100.176H247.513C242.1 100.176 237.712 104.564 237.712 109.977V221.199C237.712 226.612 242.1 231 247.513 231H408.501C413.914 231 418.302 226.612 418.302 221.199V109.977C418.302 104.564 413.914 100.176 408.501 100.176Z" fill="#33257F" stroke="#FFC08E" stroke-width="2.45034" stroke-linejoin="round"/>
<path d="M307.881 150.24C307.881 150.24 307.757 152.377 303.657 159.31C298.886 167.361 298.439 176.778 303.309 184.655C313.596 201.229 341.501 200.931 351.838 184.655C355.838 178.369 356.981 171.138 355.615 163.808C355.615 163.808 352.31 148.501 341.004 138.835C341.178 138.984 341.625 141.022 341.7 141.916C341.948 144.6 341.7 147.408 340.805 149.967C340.134 151.856 339.24 153.471 337.674 154.713C337.674 154.266 337.575 153.496 337.55 153.222C337.475 147.88 335.413 142.91 332.034 138.761C329.101 135.133 325.051 132.648 320.802 130.834C320.902 131.207 321.1 132.722 321.125 133.021C321.349 135.555 321.374 139.084 321.051 141.593C320.728 144.103 320.156 145.494 319.386 147.855C318.218 151.433 316.628 154.092 314.615 157.273C314.242 157.869 313.124 159.459 312.528 160.279C312.528 160.279 311.509 153.819 307.856 150.166L307.881 150.24Z" fill="#FFC08E"/>
<line x1="0.826616" y1="-0.826616" x2="93.4" y2="-0.826616" transform="matrix(0.97636 -0.216152 0.136904 0.990584 119.001 190.221)" stroke="#33257F" stroke-width="1.65323" stroke-linecap="round" stroke-dasharray="4.13 4.13"/>
<line x1="0.826616" y1="-0.826616" x2="93.4" y2="-0.826616" transform="matrix(-0.97636 -0.216152 -0.136904 0.990584 529.999 190.221)" stroke="#33257F" stroke-width="1.65323" stroke-linecap="round" stroke-dasharray="4.13 4.13"/>
<line x1="0.826616" y1="-0.826616" x2="93.4" y2="-0.826616" transform="matrix(-0.97636 -0.216152 -0.136904 0.990584 211 94.4424)" stroke="#33257F" stroke-width="1.65323" stroke-linecap="round" stroke-dasharray="4.13 4.13"/>
<line x1="0.826616" y1="-0.826616" x2="93.4" y2="-0.826616" transform="matrix(0.97636 -0.216152 0.136904 0.990584 438 94.4424)" stroke="#33257F" stroke-width="1.65323" stroke-linecap="round" stroke-dasharray="4.13 4.13"/>
<rect x="557.675" y="26.1985" width="95.6877" height="67.4067" rx="5.13839" fill="#FFC08E" stroke="#33257F" stroke-width="1.27584"/>
<path d="M557.675 40.3388H653.363V92.5068C653.363 95.3446 651.062 97.6452 648.224 97.6452H562.813C559.976 97.6452 557.675 95.3446 557.675 92.5068V40.3388Z" fill="#FFC08E" stroke="#33257F" stroke-width="1.27584"/>
<circle cx="627.511" cy="33.0384" r="2.42907" fill="#33257F"/>
<circle cx="635.755" cy="33.0384" r="2.42907" fill="#33257F"/>
<circle cx="644.744" cy="33.0384" r="2.42907" fill="#33257F"/>
<rect x="0.637918" y="26.1985" width="95.6877" height="67.4067" rx="5.13839" fill="#FFC08E" stroke="#33257F" stroke-width="1.27584"/>
<path d="M0.637918 40.3388H96.3256V92.5068C96.3256 95.3446 94.0251 97.6452 91.1872 97.6452H5.77631C2.93845 97.6452 0.637918 95.3446 0.637918 92.5068V40.3388Z" fill="#FFC08E" stroke="#33257F" stroke-width="1.27584"/>
<circle cx="70.474" cy="33.0384" r="2.42907" fill="#33257F"/>
<circle cx="78.7181" cy="33.0384" r="2.42907" fill="#33257F"/>
<circle cx="87.7064" cy="33.0384" r="2.42907" fill="#33257F"/>
<rect x="557.675" y="165.773" width="95.6877" height="67.4067" rx="5.13839" fill="#FFC08E" stroke="#33257F" stroke-width="1.27584"/>
<path d="M557.675 179.914H653.363V232.081C653.363 234.919 651.062 237.22 648.224 237.22H562.813C559.976 237.22 557.675 234.919 557.675 232.081V179.914Z" fill="#FFC08E" stroke="#33257F" stroke-width="1.27584"/>
<circle cx="627.511" cy="172.613" r="2.42907" fill="#33257F"/>
<circle cx="635.772" cy="172.613" r="2.42907" fill="#33257F"/>
<circle cx="644.744" cy="172.613" r="2.42907" fill="#33257F"/>
<rect x="0.637918" y="165.773" width="95.6877" height="67.4067" rx="5.13839" fill="#FFC08E" stroke="#33257F" stroke-width="1.27584"/>
<path d="M0.637918 179.914H96.3256V232.081C96.3256 234.919 94.0251 237.22 91.1872 237.22H5.77631C2.93845 237.22 0.637918 234.919 0.637918 232.081V179.914Z" fill="#FFC08E" stroke="#33257F" stroke-width="1.27584"/>
<circle cx="70.474" cy="172.613" r="2.42907" fill="#33257F"/>
<circle cx="78.7347" cy="172.613" r="2.42907" fill="#33257F"/>
<circle cx="87.7064" cy="172.613" r="2.42907" fill="#33257F"/>
</svg>
