<svg width="822" height="263" viewBox="0 0 822 263" fill="none" xmlns="http://www.w3.org/2000/svg">
<g clip-path="url(#clip0_205_8)">
<path d="M108.586 76.4932L104.76 62.9199C104.76 60.1424 102.507 57.9413 99.7819 57.9413H33.6446C30.8671 57.9413 28.666 60.1948 28.666 62.9199V169.83C28.666 172.607 30.9195 174.808 33.6446 174.808H159.421C162.198 174.808 164.399 172.555 164.399 169.83V81.4719C164.399 78.6943 162.146 76.4932 159.421 76.4932H108.586V76.4932Z" fill="#33257F" stroke="#FFC08E" stroke-width="6.60324" stroke-linecap="round" stroke-linejoin="round"/>
<path d="M79.8677 99.552L76.0421 85.9786C76.0421 83.2011 73.7886 81 71.0634 81H4.97863C2.20108 81 0 83.2535 0 85.9786V192.941C0 195.718 2.25349 197.919 4.97863 197.919H130.702C133.48 197.919 135.681 195.666 135.681 192.941V104.583C135.681 101.805 133.427 99.6044 130.702 99.6044H79.8677V99.552Z" fill="#33257F" stroke="#FFC08E" stroke-width="2" stroke-linecap="round" stroke-linejoin="round"/>
</g>
<g clip-path="url(#clip1_205_8)">
<path d="M366.523 242.022C366.523 231.449 357.951 222.877 347.378 222.877C336.805 222.877 328.233 231.449 328.233 242.022C328.233 252.595 336.805 261.167 347.378 261.167C357.951 261.167 366.523 252.595 366.523 242.022Z" fill="#33257F" stroke="#33257F" stroke-width="2.46733" stroke-linejoin="round"/>
<path d="M391.972 242.021C391.972 238.677 389.262 235.967 385.918 235.967C382.575 235.967 379.864 238.677 379.864 242.021C379.864 245.364 382.575 248.075 385.918 248.075C389.262 248.075 391.972 245.364 391.972 242.021Z" fill="#33257F" stroke="#33257F" stroke-width="0.776753" stroke-linejoin="round"/>
<path d="M469.466 242.021C469.466 238.677 466.755 235.967 463.412 235.967C460.068 235.967 457.357 238.677 457.357 242.021C457.357 245.364 460.068 248.075 463.412 248.075C466.755 248.075 469.466 245.364 469.466 242.021Z" fill="#33257F" stroke="#33257F" stroke-width="0.776753" stroke-linejoin="round"/>
<path d="M443.604 242.022C443.604 231.449 435.032 222.877 424.459 222.877C413.886 222.877 405.314 231.449 405.314 242.022C405.314 252.595 413.886 261.167 424.459 261.167C435.032 261.167 443.604 252.595 443.604 242.022Z" fill="#33257F" stroke="#33257F" stroke-width="2.46733" stroke-linejoin="round"/>
<path d="M520.823 242.022C520.823 231.449 512.251 222.877 501.678 222.877C491.105 222.877 482.533 231.449 482.533 242.022C482.533 252.595 491.105 261.167 501.678 261.167C512.251 261.167 520.823 252.595 520.823 242.022Z" fill="#FFC08E" stroke="#33257F" stroke-width="2" stroke-linejoin="round"/>
<path d="M420.188 1.8905C391.882 1.8905 368.922 24.8504 368.922 53.1562V117.353H471.453V53.1333C471.453 24.8276 448.493 1.8905 420.188 1.8905ZM451.418 97.3169H388.958V53.1333C388.958 35.9077 402.962 21.9033 420.188 21.9033C437.413 21.9033 451.418 35.9077 451.418 53.1333V97.3169V97.3169Z" fill="#33257F" stroke="#33257F" stroke-width="1.33144" stroke-linejoin="round"/>
<path d="M485.888 82.1934H354.487C350.069 82.1934 346.487 85.7751 346.487 90.1934V180.974C346.487 185.392 350.069 188.974 354.487 188.974H485.888C490.306 188.974 493.888 185.392 493.888 180.974V90.1934C493.888 85.7751 490.306 82.1934 485.888 82.1934Z" fill="#33257F" stroke="#FFC08E" stroke-width="2" stroke-linejoin="round"/>
<path d="M403.761 123.059C403.761 123.059 403.659 124.803 400.313 130.461C396.419 137.033 396.054 144.719 400.029 151.148C408.425 164.676 431.201 164.433 439.639 151.148C442.904 146.017 443.837 140.115 442.721 134.132C442.721 134.132 440.024 121.639 430.796 113.749C430.938 113.871 431.303 115.534 431.364 116.264C431.567 118.455 431.364 120.746 430.634 122.835C430.086 124.377 429.356 125.695 428.078 126.709C428.078 126.344 427.997 125.715 427.977 125.492C427.916 121.132 426.233 117.076 423.474 113.689C421.081 110.727 417.775 108.699 414.307 107.219C414.388 107.523 414.55 108.76 414.571 109.004C414.753 111.072 414.773 113.952 414.51 116.001C414.246 118.049 413.78 119.185 413.151 121.112C412.198 124.032 410.9 126.202 409.257 128.798C408.953 129.285 408.04 130.583 407.553 131.252C407.553 131.252 406.722 125.979 403.74 122.998L403.761 123.059Z" fill="#FFC08E"/>
<path d="M414.521 244.284L420.941 250.977L434.763 233.82" stroke="#FFC08E" stroke-width="1.56189" stroke-linecap="round" stroke-linejoin="round"/>
<path d="M336.961 244.284L343.381 250.978L357.202 233.821" stroke="#FFC08E" stroke-width="1.56189" stroke-linecap="round" stroke-linejoin="round"/>
</g>
<g clip-path="url(#clip2_205_8)">
<path d="M751.939 129.144C776.476 129.144 796.366 109.253 796.366 84.7164C796.366 60.1799 776.476 40.2891 751.939 40.2891C727.403 40.2891 707.512 60.1799 707.512 84.7164C707.512 109.253 727.403 129.144 751.939 129.144Z" fill="#33257F" stroke="#FFC08E" stroke-width="2.65788" stroke-linejoin="round"/>
<path d="M683.319 197.743C683.319 159.854 714.03 129.143 751.92 129.143C789.809 129.143 820.52 159.854 820.52 197.743H683.319Z" fill="#33257F" stroke="#FFC08E" stroke-width="2" stroke-linejoin="round"/>
</g>
<line x1="180" y1="127" x2="321" y2="127" stroke="#33257F" stroke-width="2" stroke-linecap="round" stroke-dasharray="5 5"/>
<line x1="524" y1="127" x2="665" y2="127" stroke="#33257F" stroke-width="2" stroke-linecap="round" stroke-dasharray="5 5"/>
<defs>
<clipPath id="clip0_205_8">
<rect width="167.701" height="142.913" fill="white" transform="translate(0 54.5879)"/>
</clipPath>
<clipPath id="clip1_205_8">
<rect width="195.056" height="261.697" fill="white" transform="translate(327 0.703125)"/>
</clipPath>
<clipPath id="clip2_205_8">
<rect width="139.859" height="160.094" fill="white" transform="translate(682 38.9688)"/>
</clipPath>
</defs>
</svg>
