<svg width="115" height="112" viewBox="0 0 115 112" fill="none" xmlns="http://www.w3.org/2000/svg">
<path d="M11.9872 111.138V99.3621L22.4744 93.1822V105.145L11.9872 111.138ZM11.4872 86.7205L21.9543 92.3279L11.4872 98.496L1.02008 92.3279L11.4872 86.7205ZM10.9872 99.3621V111.138L0.5 105.145V93.1822L10.9872 99.3621Z" stroke="#A2A9B0"/>
<path d="M27.9872 24.9846V13.2088L38.4744 7.02885V18.9919L27.9872 24.9846ZM27.4872 0.567228L37.9543 6.17461L27.4872 12.3427L17.0201 6.1746L27.4872 0.567228ZM26.9872 13.2088V24.9846L16.5 18.9919V7.02885L26.9872 13.2088Z" stroke="#A2A9B0"/>
<path d="M103.987 76.9846V65.2088L114.474 59.0288V70.9919L103.987 76.9846ZM103.487 52.5672L113.954 58.1746L103.487 64.3427L93.0201 58.1746L103.487 52.5672ZM102.987 65.2088V76.9846L92.5 70.9919V59.0288L102.987 65.2088Z" stroke="#A2A9B0"/>
<line x1="32.7326" y1="22.3502" x2="43.5018" y2="39.581" stroke="#A2A9B0"/>
<line x1="41.6476" y1="71.0852" x2="22.2553" y2="92.2084" stroke="#A2A9B0"/>
<line x1="70.025" y1="60.8854" x2="91.5634" y2="61.9623" stroke="#A2A9B0"/>
<path d="M50.5485 35.1216C51.2566 34.7128 52.1289 34.7128 52.837 35.1216L69.2014 44.5695C69.9094 44.9783 70.3456 45.7338 70.3456 46.5514V65.4474C70.3456 66.265 69.9094 67.0205 69.2014 67.4293L52.837 76.8772C52.1289 77.286 51.2566 77.286 50.5485 76.8772L34.1841 67.4293C33.4761 67.0205 33.0399 66.265 33.0399 65.4474V46.5514C33.0399 45.7338 33.4761 44.9783 34.1841 44.5695L50.5485 35.1216Z" fill="url(#paint0_linear_1301_1627)"/>
<path d="M44.6377 50.1046C44.6377 50.1046 44.5988 50.8434 43.167 53.2534C41.5087 56.0462 41.3529 59.3152 43.0466 62.0443C46.6173 67.7977 56.308 67.689 59.9007 62.0479C61.29 59.8658 61.6882 57.3621 61.2139 54.8186C61.2139 54.8186 60.0644 49.508 56.1389 46.1594C56.2009 46.2115 56.3531 46.9221 56.3823 47.2252C56.4717 48.1567 56.3841 49.1333 56.0717 50.0197C55.8425 50.6711 55.5248 51.2349 54.9877 51.6697C54.9877 51.5177 54.9496 51.2455 54.9487 51.1545C54.9231 49.2994 54.2045 47.5814 53.0338 46.1391C52.0108 44.8806 50.6082 44.0215 49.1313 43.3896C49.1685 43.5169 49.2375 44.0445 49.2472 44.1488C49.3233 45.0246 49.3375 46.2513 49.2225 47.1262C49.1074 48.0012 48.9101 48.4775 48.6419 49.2977C48.2358 50.5411 47.6827 51.4629 46.9818 52.5685C46.8527 52.7718 46.4668 53.3294 46.2606 53.6114C46.2606 53.6114 45.9058 51.3701 44.6386 50.1046H44.6377Z" fill="white"/>
<defs>
<linearGradient id="paint0_linear_1301_1627" x1="30.1543" y1="34.4609" x2="38.8398" y2="96.8204" gradientUnits="userSpaceOnUse">
<stop stop-color="#FFAA7F"/>
<stop offset="0.489583" stop-color="#FF844F"/>
<stop offset="1" stop-color="#E52802"/>
</linearGradient>
</defs>
</svg>
