<svg width="547" height="307" viewBox="0 0 547 307" fill="none" xmlns="http://www.w3.org/2000/svg">
<rect x="0.598684" y="0.598684" width="439.434" height="265.518" rx="15.6074" fill="#33257F" stroke="#33257F" stroke-width="1.19737"/>
<path d="M0.598684 40.007H440.033V289.917C440.033 298.537 433.045 305.525 424.426 305.525H16.2061C7.58636 305.525 0.598684 298.537 0.598684 289.917V40.007Z" fill="#FFC08E" stroke="#33257F" stroke-width="1.19737"/>
<circle cx="360.708" cy="19.1575" r="8.01316" stroke="#FFC08E" stroke-width="1.33553"/>
<circle cx="386.75" cy="19.1575" r="8.01316" stroke="#FFC08E" stroke-width="1.33553"/>
<circle cx="412.793" cy="19.1575" r="8.01316" stroke="#FFC08E" stroke-width="1.33553"/>
<line x1="28.7373" y1="73.6396" x2="402.316" y2="73.6396" stroke="currentColor" stroke-width="1.19737"/>
<line x1="67.0527" y1="102.376" x2="404.711" y2="102.376" stroke="currentColor" stroke-width="1.19737"/>
<line x1="38.3164" y1="140.69" x2="229.895" y2="140.69" stroke="currentColor" stroke-width="1.19737"/>
<line x1="38.3164" y1="167.032" x2="229.895" y2="167.032" stroke="currentColor" stroke-width="1.19737"/>
<line x1="38.3164" y1="193.374" x2="198.764" y2="193.374" stroke="currentColor" stroke-width="1.19737"/>
<line x1="38.3164" y1="222.112" x2="229.895" y2="222.112" stroke="currentColor" stroke-width="1.19737"/>
<line x1="38" y1="245.401" x2="81" y2="245.401" stroke="currentColor" stroke-width="1.19737"/>
<line x1="38" y1="266.401" x2="60" y2="266.401" stroke="currentColor" stroke-width="1.19737"/>
<path d="M438.129 275.887C477.553 275.887 509.512 243.928 509.512 204.504C509.512 165.08 477.553 133.121 438.129 133.121C398.705 133.121 366.746 165.08 366.746 204.504C366.746 243.928 398.705 275.887 438.129 275.887Z" fill="#FFC08E" stroke="currentColor" stroke-width="1.79605" stroke-miterlimit="10"/>
<path d="M438.128 267.221C472.765 267.221 500.844 239.142 500.844 204.505C500.844 169.868 472.765 141.789 438.128 141.789C403.491 141.789 375.412 169.868 375.412 204.505C375.412 239.142 403.491 267.221 438.128 267.221Z" fill="#372E82"/>
<path d="M417.739 190.634C417.739 190.634 417.628 192.792 413.452 199.829C408.618 207.987 408.165 217.534 413.1 225.497C423.508 242.294 451.778 241.979 462.251 225.506C466.306 219.136 467.464 211.821 466.084 204.394C466.084 204.394 462.732 188.884 451.287 179.106C451.463 179.264 451.907 181.328 452 182.217C452.259 184.94 452 187.792 451.093 190.375C450.426 192.283 449.5 193.922 447.935 195.19C447.935 194.746 447.824 193.949 447.824 193.681C447.75 188.264 445.657 183.245 442.24 179.032C439.259 175.356 435.166 172.847 430.86 171.004C430.971 171.374 431.175 172.921 431.194 173.217C431.416 175.773 431.453 179.356 431.119 181.912C430.786 184.421 430.212 185.856 429.425 188.255C428.24 191.885 426.629 194.579 424.582 197.811C424.202 198.403 423.082 200.033 422.48 200.857C422.48 200.857 421.443 194.311 417.748 190.616L417.739 190.634Z" fill="#FFC08E"/>
<path d="M365.484 159.27L332.868 135.695" stroke="currentColor" stroke-width="2.50609" stroke-linejoin="round"/>
<path d="M358.864 171.193L338.919 168.546" stroke="currentColor" stroke-width="2.50609" stroke-linejoin="round"/>
<path d="M375.895 149.026L363.645 133.05" stroke="currentColor" stroke-width="2.50609" stroke-linejoin="round"/>
<path d="M513.383 244.669L546 268.244" stroke="currentColor" stroke-width="2.50609" stroke-linejoin="round"/>
<path d="M520.005 232.727L539.95 235.374" stroke="currentColor" stroke-width="2.50609" stroke-linejoin="round"/>
<path d="M502.973 254.894L515.223 270.87" stroke="currentColor" stroke-width="2.50609" stroke-linejoin="round"/>
</svg>
