<svg width="125" height="146" viewBox="0 0 125 146" fill="none" xmlns="http://www.w3.org/2000/svg">
    <path d="M17.7613 42.7561C17.7613 42.7561 17.5134 47.4605 8.39669 62.8062C-2.16247 80.5884 -3.15416 101.404 7.63039 118.781C30.3658 155.414 92.0699 154.722 114.946 118.803C123.792 104.91 126.328 88.9674 123.308 72.7721C123.308 72.7721 115.989 38.9577 90.9937 17.6359C91.3881 17.9679 92.3573 22.4923 92.5432 24.4224C93.1123 30.3536 92.5545 36.5717 90.5655 42.2159C89.1061 46.3632 87.0833 49.9534 83.6632 52.7221C83.6632 51.7542 83.4209 50.021 83.4152 49.4413C83.2518 37.6297 78.6766 26.6902 71.222 17.5065C64.7085 9.49323 55.7777 4.02351 46.3736 0C46.6103 0.810329 47.0498 4.16982 47.1118 4.83384C47.5963 10.4105 47.6865 18.2212 46.954 23.7922C46.2215 29.3632 44.965 32.3963 43.2577 37.6184C40.6715 45.536 37.1499 51.4053 32.6873 58.445C31.8646 59.7393 29.408 63.2901 28.0951 65.0852C28.0951 65.0852 25.8357 50.8144 17.767 42.7561H17.7613Z" fill="currentColor"/>
</svg>
