<svg width="1024" height="476" viewBox="0 0 1024 476" fill="none" xmlns="http://www.w3.org/2000/svg">
<path d="M32 34C32 35.1046 32.8954 36 34 36C35.1046 36 36 35.1046 36 34C36 32.8954 35.1046 32 34 32C32.8954 32 32 32.8954 32 34Z" fill="#FEFFFE"/>
<path d="M100 34C100 35.1046 100.895 36 102 36C103.105 36 104 35.1046 104 34C104 32.8954 103.105 32 102 32C100.895 32 100 32.8954 100 34Z" fill="#FEFFFE"/>
<path d="M168 34C168 35.1046 168.895 36 170 36C171.105 36 172 35.1046 172 34C172 32.8954 171.105 32 170 32C168.895 32 168 32.8954 168 34Z" fill="#FEFFFE"/>
<path d="M236 34C236 35.1046 236.895 36 238 36C239.105 36 240 35.1046 240 34C240 32.8954 239.105 32 238 32C236.895 32 236 32.8954 236 34Z" fill="#FEFFFE"/>
<path d="M304 34C304 35.1046 304.895 36 306 36C307.105 36 308 35.1046 308 34C308 32.8954 307.105 32 306 32C304.895 32 304 32.8954 304 34Z" fill="#FEFFFE"/>
<path d="M372 34C372 35.1046 372.895 36 374 36C375.105 36 376 35.1046 376 34C376 32.8954 375.105 32 374 32C372.895 32 372 32.8954 372 34Z" fill="#FEFFFE"/>
<path d="M440 34C440 35.1046 440.895 36 442 36C443.105 36 444 35.1046 444 34C444 32.8954 443.105 32 442 32C440.895 32 440 32.8954 440 34Z" fill="#FEFFFE"/>
<path d="M508 34C508 35.1046 508.895 36 510 36C511.105 36 512 35.1046 512 34C512 32.8954 511.105 32 510 32C508.895 32 508 32.8954 508 34Z" fill="#FEFFFE"/>
<path d="M576 34C576 35.1046 576.895 36 578 36C579.105 36 580 35.1046 580 34C580 32.8954 579.105 32 578 32C576.895 32 576 32.8954 576 34Z" fill="#FEFFFE"/>
<path d="M644 34C644 35.1046 644.895 36 646 36C647.105 36 648 35.1046 648 34C648 32.8954 647.105 32 646 32C644.895 32 644 32.8954 644 34Z" fill="#FEFFFE"/>
<path d="M712 34C712 35.1046 712.895 36 714 36C715.105 36 716 35.1046 716 34C716 32.8954 715.105 32 714 32C712.895 32 712 32.8954 712 34Z" fill="#FEFFFE"/>
<path d="M780 34C780 35.1046 780.895 36 782 36C783.105 36 784 35.1046 784 34C784 32.8954 783.105 32 782 32C780.895 32 780 32.8954 780 34Z" fill="#FEFFFE"/>
<path d="M848 34C848 35.1046 848.895 36 850 36C851.105 36 852 35.1046 852 34C852 32.8954 851.105 32 850 32C848.895 32 848 32.8954 848 34Z" fill="#FEFFFE"/>
<path d="M916 34C916 35.1046 916.895 36 918 36C919.105 36 920 35.1046 920 34C920 32.8954 919.105 32 918 32C916.895 32 916 32.8954 916 34Z" fill="#FEFFFE"/>
<path d="M984 34C984 35.1046 984.895 36 986 36C987.105 36 988 35.1046 988 34C988 32.8954 987.105 32 986 32C984.895 32 984 32.8954 984 34Z" fill="#FEFFFE"/>
<path d="M32 102C32 103.105 32.8954 104 34 104C35.1046 104 36 103.105 36 102C36 100.895 35.1046 100 34 100C32.8954 100 32 100.895 32 102Z" fill="#FEFFFE"/>
<path d="M100 102C100 103.105 100.895 104 102 104C103.105 104 104 103.105 104 102C104 100.895 103.105 100 102 100C100.895 100 100 100.895 100 102Z" fill="#FEFFFE"/>
<path d="M168 102C168 103.105 168.895 104 170 104C171.105 104 172 103.105 172 102C172 100.895 171.105 100 170 100C168.895 100 168 100.895 168 102Z" fill="#FEFFFE"/>
<path d="M236 102C236 103.105 236.895 104 238 104C239.105 104 240 103.105 240 102C240 100.895 239.105 100 238 100C236.895 100 236 100.895 236 102Z" stroke="#FEFFFE" stroke-width="0.8"/>
<path d="M304 102C304 103.105 304.895 104 306 104C307.105 104 308 103.105 308 102C308 100.895 307.105 100 306 100C304.895 100 304 100.895 304 102Z" stroke="#FEFFFE" stroke-width="0.8"/>
<path d="M372 102C372 103.105 372.895 104 374 104C375.105 104 376 103.105 376 102C376 100.895 375.105 100 374 100C372.895 100 372 100.895 372 102Z" fill="#FEFFFE"/>
<path d="M440 102C440 103.105 440.895 104 442 104C443.105 104 444 103.105 444 102C444 100.895 443.105 100 442 100C440.895 100 440 100.895 440 102Z" stroke="#FEFFFE" stroke-width="0.8"/>
<path d="M508 102C508 103.105 508.895 104 510 104C511.105 104 512 103.105 512 102C512 100.895 511.105 100 510 100C508.895 100 508 100.895 508 102Z" fill="#FEFFFE"/>
<path d="M576 102C576 103.105 576.895 104 578 104C579.105 104 580 103.105 580 102C580 100.895 579.105 100 578 100C576.895 100 576 100.895 576 102Z" stroke="#FEFFFE" stroke-width="0.8"/>
<path d="M644 102C644 103.105 644.895 104 646 104C647.105 104 648 103.105 648 102C648 100.895 647.105 100 646 100C644.895 100 644 100.895 644 102Z" fill="#FEFFFE"/>
<path d="M712 102C712 103.105 712.895 104 714 104C715.105 104 716 103.105 716 102C716 100.895 715.105 100 714 100C712.895 100 712 100.895 712 102Z" fill="#FEFFFE"/>
<path d="M780 102C780 103.105 780.895 104 782 104C783.105 104 784 103.105 784 102C784 100.895 783.105 100 782 100C780.895 100 780 100.895 780 102Z" fill="#FEFFFE"/>
<path d="M848 102C848 103.105 848.895 104 850 104C851.105 104 852 103.105 852 102C852 100.895 851.105 100 850 100C848.895 100 848 100.895 848 102Z" fill="#FEFFFE"/>
<path d="M916 102C916 103.105 916.895 104 918 104C919.105 104 920 103.105 920 102C920 100.895 919.105 100 918 100C916.895 100 916 100.895 916 102Z" fill="#FEFFFE"/>
<path d="M984 102C984 103.105 984.895 104 986 104C987.105 104 988 103.105 988 102C988 100.895 987.105 100 986 100C984.895 100 984 100.895 984 102Z" fill="#FEFFFE"/>
<path d="M32 170C32 171.105 32.8954 172 34 172C35.1046 172 36 171.105 36 170C36 168.895 35.1046 168 34 168C32.8954 168 32 168.895 32 170Z" fill="#FEFFFE"/>
<path d="M100 170C100 171.105 100.895 172 102 172C103.105 172 104 171.105 104 170C104 168.895 103.105 168 102 168C100.895 168 100 168.895 100 170Z" fill="#FEFFFE"/>
<path d="M168 170C168 171.105 168.895 172 170 172C171.105 172 172 171.105 172 170C172 168.895 171.105 168 170 168C168.895 168 168 168.895 168 170Z" fill="#FEFFFE"/>
<path d="M236 170C236 171.105 236.895 172 238 172C239.105 172 240 171.105 240 170C240 168.895 239.105 168 238 168C236.895 168 236 168.895 236 170Z" fill="#FEFFFE"/>
<path d="M304 170C304 171.105 304.895 172 306 172C307.105 172 308 171.105 308 170C308 168.895 307.105 168 306 168C304.895 168 304 168.895 304 170Z" fill="#FEFFFE"/>
<path d="M372 170C372 171.105 372.895 172 374 172C375.105 172 376 171.105 376 170C376 168.895 375.105 168 374 168C372.895 168 372 168.895 372 170Z" stroke="#FEFFFE" stroke-width="0.8"/>
<path d="M440 170C440 171.105 440.895 172 442 172C443.105 172 444 171.105 444 170C444 168.895 443.105 168 442 168C440.895 168 440 168.895 440 170Z" fill="#FEFFFE"/>
<path d="M508 170C508 171.105 508.895 172 510 172C511.105 172 512 171.105 512 170C512 168.895 511.105 168 510 168C508.895 168 508 168.895 508 170Z" stroke="#FEFFFE" stroke-width="0.8"/>
<path d="M576 170C576 171.105 576.895 172 578 172C579.105 172 580 171.105 580 170C580 168.895 579.105 168 578 168C576.895 168 576 168.895 576 170Z" fill="#FEFFFE"/>
<path d="M644 170C644 171.105 644.895 172 646 172C647.105 172 648 171.105 648 170C648 168.895 647.105 168 646 168C644.895 168 644 168.895 644 170Z" fill="#FEFFFE"/>
<path d="M712 170C712 171.105 712.895 172 714 172C715.105 172 716 171.105 716 170C716 168.895 715.105 168 714 168C712.895 168 712 168.895 712 170Z" fill="#FEFFFE"/>
<path d="M780 170C780 171.105 780.895 172 782 172C783.105 172 784 171.105 784 170C784 168.895 783.105 168 782 168C780.895 168 780 168.895 780 170Z" fill="#FEFFFE"/>
<path d="M848 170C848 171.105 848.895 172 850 172C851.105 172 852 171.105 852 170C852 168.895 851.105 168 850 168C848.895 168 848 168.895 848 170Z" fill="#FEFFFE"/>
<path d="M916 170C916 171.105 916.895 172 918 172C919.105 172 920 171.105 920 170C920 168.895 919.105 168 918 168C916.895 168 916 168.895 916 170Z" stroke="#FEFFFE" stroke-width="0.8"/>
<path d="M984 170C984 171.105 984.895 172 986 172C987.105 172 988 171.105 988 170C988 168.895 987.105 168 986 168C984.895 168 984 168.895 984 170Z" fill="#FEFFFE"/>
<path d="M32 238C32 239.105 32.8954 240 34 240C35.1046 240 36 239.105 36 238C36 236.895 35.1046 236 34 236C32.8954 236 32 236.895 32 238Z" stroke="#FEFFFE" stroke-width="0.8"/>
<path d="M100 238C100 239.105 100.895 240 102 240C103.105 240 104 239.105 104 238C104 236.895 103.105 236 102 236C100.895 236 100 236.895 100 238Z" fill="#FEFFFE"/>
<path d="M168 238C168 239.105 168.895 240 170 240C171.105 240 172 239.105 172 238C172 236.895 171.105 236 170 236C168.895 236 168 236.895 168 238Z" fill="#FEFFFE"/>
<path d="M236 238C236 239.105 236.895 240 238 240C239.105 240 240 239.105 240 238C240 236.895 239.105 236 238 236C236.895 236 236 236.895 236 238Z" fill="#FEFFFE"/>
<path d="M304 238C304 239.105 304.895 240 306 240C307.105 240 308 239.105 308 238C308 236.895 307.105 236 306 236C304.895 236 304 236.895 304 238Z" fill="#FEFFFE"/>
<path d="M372 238C372 239.105 372.895 240 374 240C375.105 240 376 239.105 376 238C376 236.895 375.105 236 374 236C372.895 236 372 236.895 372 238Z" fill="#FEFFFE"/>
<path d="M440 238C440 239.105 440.895 240 442 240C443.105 240 444 239.105 444 238C444 236.895 443.105 236 442 236C440.895 236 440 236.895 440 238Z" fill="#FEFFFE"/>
<path d="M508 238C508 239.105 508.895 240 510 240C511.105 240 512 239.105 512 238C512 236.895 511.105 236 510 236C508.895 236 508 236.895 508 238Z" fill="#FEFFFE"/>
<path d="M576 238C576 239.105 576.895 240 578 240C579.105 240 580 239.105 580 238C580 236.895 579.105 236 578 236C576.895 236 576 236.895 576 238Z" fill="#FEFFFE"/>
<path d="M644 238C644 239.105 644.895 240 646 240C647.105 240 648 239.105 648 238C648 236.895 647.105 236 646 236C644.895 236 644 236.895 644 238Z" fill="#FEFFFE"/>
<path d="M712 238C712 239.105 712.895 240 714 240C715.105 240 716 239.105 716 238C716 236.895 715.105 236 714 236C712.895 236 712 236.895 712 238Z" fill="#FEFFFE"/>
<path d="M780 238C780 239.105 780.895 240 782 240C783.105 240 784 239.105 784 238C784 236.895 783.105 236 782 236C780.895 236 780 236.895 780 238Z" fill="#FEFFFE"/>
<path d="M848 238C848 239.105 848.895 240 850 240C851.105 240 852 239.105 852 238C852 236.895 851.105 236 850 236C848.895 236 848 236.895 848 238Z" fill="#FEFFFE"/>
<path d="M916 238C916 239.105 916.895 240 918 240C919.105 240 920 239.105 920 238C920 236.895 919.105 236 918 236C916.895 236 916 236.895 916 238Z" fill="#FEFFFE"/>
<path d="M984 238C984 239.105 984.895 240 986 240C987.105 240 988 239.105 988 238C988 236.895 987.105 236 986 236C984.895 236 984 236.895 984 238Z" fill="#FEFFFE"/>
<path d="M32 306C32 307.105 32.8954 308 34 308C35.1046 308 36 307.105 36 306C36 304.895 35.1046 304 34 304C32.8954 304 32 304.895 32 306Z" fill="#FEFFFE"/>
<path d="M100 306C100 307.105 100.895 308 102 308C103.105 308 104 307.105 104 306C104 304.895 103.105 304 102 304C100.895 304 100 304.895 100 306Z" fill="#FEFFFE"/>
<path d="M168 306C168 307.105 168.895 308 170 308C171.105 308 172 307.105 172 306C172 304.895 171.105 304 170 304C168.895 304 168 304.895 168 306Z" fill="#FEFFFE"/>
<path d="M236 306C236 307.105 236.895 308 238 308C239.105 308 240 307.105 240 306C240 304.895 239.105 304 238 304C236.895 304 236 304.895 236 306Z" fill="#FEFFFE"/>
<path d="M304 306C304 307.105 304.895 308 306 308C307.105 308 308 307.105 308 306C308 304.895 307.105 304 306 304C304.895 304 304 304.895 304 306Z" fill="#FEFFFE"/>
<path d="M372 306C372 307.105 372.895 308 374 308C375.105 308 376 307.105 376 306C376 304.895 375.105 304 374 304C372.895 304 372 304.895 372 306Z" fill="#FEFFFE"/>
<path d="M440 306C440 307.105 440.895 308 442 308C443.105 308 444 307.105 444 306C444 304.895 443.105 304 442 304C440.895 304 440 304.895 440 306Z" fill="#FEFFFE"/>
<path d="M508 306C508 307.105 508.895 308 510 308C511.105 308 512 307.105 512 306C512 304.895 511.105 304 510 304C508.895 304 508 304.895 508 306Z" fill="#FEFFFE"/>
<path d="M576 306C576 307.105 576.895 308 578 308C579.105 308 580 307.105 580 306C580 304.895 579.105 304 578 304C576.895 304 576 304.895 576 306Z" fill="#FEFFFE"/>
<path d="M644 306C644 307.105 644.895 308 646 308C647.105 308 648 307.105 648 306C648 304.895 647.105 304 646 304C644.895 304 644 304.895 644 306Z" fill="#FEFFFE"/>
<path d="M712 306C712 307.105 712.895 308 714 308C715.105 308 716 307.105 716 306C716 304.895 715.105 304 714 304C712.895 304 712 304.895 712 306Z" stroke="#FEFFFE" stroke-width="0.8"/>
<path d="M780 306C780 307.105 780.895 308 782 308C783.105 308 784 307.105 784 306C784 304.895 783.105 304 782 304C780.895 304 780 304.895 780 306Z" stroke="#FEFFFE" stroke-width="0.8"/>
<path d="M848 306C848 307.105 848.895 308 850 308C851.105 308 852 307.105 852 306C852 304.895 851.105 304 850 304C848.895 304 848 304.895 848 306Z" fill="#FEFFFE"/>
<path d="M916 306C916 307.105 916.895 308 918 308C919.105 308 920 307.105 920 306C920 304.895 919.105 304 918 304C916.895 304 916 304.895 916 306Z" stroke="#FEFFFE" stroke-width="0.8"/>
<path d="M984 306C984 307.105 984.895 308 986 308C987.105 308 988 307.105 988 306C988 304.895 987.105 304 986 304C984.895 304 984 304.895 984 306Z" fill="#FEFFFE"/>
<path d="M32 374C32 375.105 32.8954 376 34 376C35.1046 376 36 375.105 36 374C36 372.895 35.1046 372 34 372C32.8954 372 32 372.895 32 374Z" stroke="#FEFFFE" stroke-width="0.8"/>
<path d="M100 374C100 375.105 100.895 376 102 376C103.105 376 104 375.105 104 374C104 372.895 103.105 372 102 372C100.895 372 100 372.895 100 374Z" fill="#FEFFFE"/>
<path d="M168 374C168 375.105 168.895 376 170 376C171.105 376 172 375.105 172 374C172 372.895 171.105 372 170 372C168.895 372 168 372.895 168 374Z" fill="#FEFFFE"/>
<path d="M236 374C236 375.105 236.895 376 238 376C239.105 376 240 375.105 240 374C240 372.895 239.105 372 238 372C236.895 372 236 372.895 236 374Z" fill="#FEFFFE"/>
<path d="M304 374C304 375.105 304.895 376 306 376C307.105 376 308 375.105 308 374C308 372.895 307.105 372 306 372C304.895 372 304 372.895 304 374Z" fill="#FEFFFE"/>
<path d="M372 374C372 375.105 372.895 376 374 376C375.105 376 376 375.105 376 374C376 372.895 375.105 372 374 372C372.895 372 372 372.895 372 374Z" fill="#FEFFFE"/>
<path d="M440 374C440 375.105 440.895 376 442 376C443.105 376 444 375.105 444 374C444 372.895 443.105 372 442 372C440.895 372 440 372.895 440 374Z" fill="#FEFFFE"/>
<path d="M508 374C508 375.105 508.895 376 510 376C511.105 376 512 375.105 512 374C512 372.895 511.105 372 510 372C508.895 372 508 372.895 508 374Z" fill="#FEFFFE"/>
<path d="M576 374C576 375.105 576.895 376 578 376C579.105 376 580 375.105 580 374C580 372.895 579.105 372 578 372C576.895 372 576 372.895 576 374Z" fill="#FEFFFE"/>
<path d="M644 374C644 375.105 644.895 376 646 376C647.105 376 648 375.105 648 374C648 372.895 647.105 372 646 372C644.895 372 644 372.895 644 374Z" fill="#FEFFFE"/>
<path d="M712 374C712 375.105 712.895 376 714 376C715.105 376 716 375.105 716 374C716 372.895 715.105 372 714 372C712.895 372 712 372.895 712 374Z" fill="#FEFFFE"/>
<path d="M780 374C780 375.105 780.895 376 782 376C783.105 376 784 375.105 784 374C784 372.895 783.105 372 782 372C780.895 372 780 372.895 780 374Z" fill="#FEFFFE"/>
<path d="M848 374C848 375.105 848.895 376 850 376C851.105 376 852 375.105 852 374C852 372.895 851.105 372 850 372C848.895 372 848 372.895 848 374Z" stroke="#FEFFFE" stroke-width="0.8"/>
<path d="M916 374C916 375.105 916.895 376 918 376C919.105 376 920 375.105 920 374C920 372.895 919.105 372 918 372C916.895 372 916 372.895 916 374Z" fill="#FEFFFE"/>
<path d="M984 374C984 375.105 984.895 376 986 376C987.105 376 988 375.105 988 374C988 372.895 987.105 372 986 372C984.895 372 984 372.895 984 374Z" stroke="#FEFFFE" stroke-width="0.8"/>
<path d="M32 442C32 443.105 32.8954 444 34 444C35.1046 444 36 443.105 36 442C36 440.895 35.1046 440 34 440C32.8954 440 32 440.895 32 442Z" fill="#FEFFFE"/>
<path d="M100 442C100 443.105 100.895 444 102 444C103.105 444 104 443.105 104 442C104 440.895 103.105 440 102 440C100.895 440 100 440.895 100 442Z" fill="#FEFFFE"/>
<path d="M168 442C168 443.105 168.895 444 170 444C171.105 444 172 443.105 172 442C172 440.895 171.105 440 170 440C168.895 440 168 440.895 168 442Z" fill="#FEFFFE"/>
<path d="M236 442C236 443.105 236.895 444 238 444C239.105 444 240 443.105 240 442C240 440.895 239.105 440 238 440C236.895 440 236 440.895 236 442Z" fill="#FEFFFE"/>
<path d="M304 442C304 443.105 304.895 444 306 444C307.105 444 308 443.105 308 442C308 440.895 307.105 440 306 440C304.895 440 304 440.895 304 442Z" fill="#FEFFFE"/>
<path d="M372 442C372 443.105 372.895 444 374 444C375.105 444 376 443.105 376 442C376 440.895 375.105 440 374 440C372.895 440 372 440.895 372 442Z" stroke="#FEFFFE" stroke-width="0.8"/>
<path d="M440 442C440 443.105 440.895 444 442 444C443.105 444 444 443.105 444 442C444 440.895 443.105 440 442 440C440.895 440 440 440.895 440 442Z" fill="#FEFFFE"/>
<path d="M508 442C508 443.105 508.895 444 510 444C511.105 444 512 443.105 512 442C512 440.895 511.105 440 510 440C508.895 440 508 440.895 508 442Z" stroke="#FEFFFE" stroke-width="0.8"/>
<path d="M576 442C576 443.105 576.895 444 578 444C579.105 444 580 443.105 580 442C580 440.895 579.105 440 578 440C576.895 440 576 440.895 576 442Z" fill="#FEFFFE"/>
<path d="M644 442C644 443.105 644.895 444 646 444C647.105 444 648 443.105 648 442C648 440.895 647.105 440 646 440C644.895 440 644 440.895 644 442Z" fill="#FEFFFE"/>
<path d="M712 442C712 443.105 712.895 444 714 444C715.105 444 716 443.105 716 442C716 440.895 715.105 440 714 440C712.895 440 712 440.895 712 442Z" fill="#FEFFFE"/>
<path d="M780 442C780 443.105 780.895 444 782 444C783.105 444 784 443.105 784 442C784 440.895 783.105 440 782 440C780.895 440 780 440.895 780 442Z" fill="#FEFFFE"/>
<path d="M848 442C848 443.105 848.895 444 850 444C851.105 444 852 443.105 852 442C852 440.895 851.105 440 850 440C848.895 440 848 440.895 848 442Z" fill="#FEFFFE"/>
<path d="M916 442C916 443.105 916.895 444 918 444C919.105 444 920 443.105 920 442C920 440.895 919.105 440 918 440C916.895 440 916 440.895 916 442Z" fill="#FEFFFE"/>
</svg>
