<svg width="146" height="32" viewBox="0 0 146 32" fill="none" xmlns="http://www.w3.org/2000/svg">
<g clip-path="url(#clip0_1560_372418)">
<path fill-rule="evenodd" clip-rule="evenodd" d="M30.6848 2.08757C27.7364 -0.860832 22.3628 -0.508633 16.7638 2.51017C15.9278 2.96017 15.9904 4.80817 16.7818 5.29157C21.1302 7.98144 24.7914 11.6482 27.4748 16.0006C27.956 16.7926 29.8254 16.8198 30.2622 16.0086C33.281 10.4096 33.6332 5.03597 30.6848 2.08757ZM24.4538 8.31857C22.8524 6.70875 21.0979 5.25889 19.2152 3.98957C21.3828 2.98717 23.4476 2.44977 25.1966 2.44977C26.7604 2.44977 28.0726 2.87857 28.9822 3.78817C30.9122 5.71817 30.6828 9.45357 28.783 13.5574C27.5119 11.6758 26.0621 9.92139 24.4538 8.31857Z" fill="currentColor"/>
<path fill-rule="evenodd" clip-rule="evenodd" d="M31.9863 20.0457C31.5397 18.6487 30.9622 17.297 30.2615 16.0085C29.8187 15.1853 27.9537 15.2101 27.4741 16.0005C26.1442 18.1753 24.5584 20.1828 22.7505 21.9799C20.9569 23.7888 18.9529 25.376 16.7813 26.7075C15.9897 27.1909 15.9541 29.0541 16.7633 29.4887C19.7437 31.0967 22.6601 31.9481 25.1819 31.9481C27.3957 31.9481 29.3055 31.2921 30.6841 29.9133C32.8417 27.7559 33.3025 24.2521 31.9863 20.0457ZM28.9815 28.2107C27.0515 30.1407 23.3181 29.9093 19.2145 28.0095C21.0972 26.7402 22.8517 25.2903 24.4531 23.6805C26.0622 22.0808 27.5127 20.329 28.7843 18.4497C30.6821 22.5515 30.9115 26.2827 28.9815 28.2107Z" fill="currentColor"/>
<path fill-rule="evenodd" clip-rule="evenodd" d="M16.7638 2.50982C15.4752 1.80817 14.1227 1.23063 12.7246 0.785021C8.52041 -0.530979 5.01641 -0.0703778 2.85901 2.08702C1.48042 3.46582 0.824219 5.37582 0.824219 7.58982C0.824219 10.1116 1.67561 13.0298 3.28161 16.0104C3.71841 16.8196 5.58161 16.783 6.06501 15.9904C8.7554 11.6382 12.4253 7.97449 16.782 5.29142C17.5686 4.81342 17.5848 2.95062 16.7638 2.50982ZM4.76281 13.557C2.86281 9.45322 2.63161 5.71782 4.56161 3.78782C6.05301 2.29642 8.69762 2.04482 12.0062 3.08342C12.7986 3.33402 13.5743 3.63448 14.3286 3.98302C10.5645 6.5422 7.31877 9.79071 4.76281 13.557Z" fill="currentColor"/>
<path fill-rule="evenodd" clip-rule="evenodd" d="M16.782 26.7077C14.6031 25.3779 12.5921 23.7908 10.7924 21.9805C8.98191 20.1809 7.39463 18.17 6.06475 15.9911C5.58515 15.2051 3.72215 15.1901 3.28135 16.0111C2.58123 17.2988 2.00441 18.6499 1.55855 20.0463C0.240354 24.2527 0.703154 27.7565 2.85856 29.9139C4.21116 31.2645 6.09095 31.9507 8.34095 31.9507C9.83092 31.9281 11.3089 31.6798 12.7244 31.2141C14.1221 30.7675 15.4745 30.1901 16.7636 29.4893C17.4136 29.1413 17.568 27.1873 16.782 26.7077ZM12.006 28.9177C8.69735 29.9539 6.05295 29.7025 4.56155 28.2111C3.07015 26.7199 2.81855 24.0751 3.85515 20.7665C4.10547 19.9747 4.40595 19.1997 4.75476 18.4461C6.02834 20.3267 7.48076 22.0798 9.09175 23.6809C10.6921 25.2929 12.446 26.7448 14.3286 28.0159C13.5746 28.3658 12.7986 28.6672 12.006 28.9177Z" fill="currentColor"/>
<path fill-rule="evenodd" clip-rule="evenodd" d="M11.4004 15.8551L16.772 7.41406L22.1436 15.8551L16.772 18.9247L11.4004 15.8551Z" fill="currentColor"/>
<path fill-rule="evenodd" clip-rule="evenodd" d="M11.4004 17.2969L16.772 20.3663L22.1436 17.2969L16.772 24.5869L11.4004 17.2969Z" fill="currentColor"/>
<path fill-rule="evenodd" clip-rule="evenodd" d="M19.2148 3.98897C18.3805 4.37829 17.5682 4.813 16.7815 5.29117C15.9899 4.80773 15.1707 4.37098 14.3281 3.98317C15.1147 3.45152 15.9274 2.95976 16.7634 2.50977C17.5846 2.95057 18.4017 3.44363 19.2148 3.98897Z" fill="currentColor"/>
<path fill-rule="evenodd" clip-rule="evenodd" d="M30.262 16.0088C29.81 16.8463 29.317 17.661 28.7848 18.45C28.3932 17.6103 27.9558 16.7927 27.4746 16.0008C27.9543 15.2105 28.3909 14.395 28.7826 13.5576C29.3261 14.3686 29.8192 15.1856 30.262 16.0088Z" fill="currentColor"/>
<path fill-rule="evenodd" clip-rule="evenodd" d="M19.2148 28.009C19.0458 28.1238 18.8767 28.2344 18.7075 28.343C18.0751 28.7506 17.4266 29.1326 16.7636 29.4882C15.9544 29.0536 15.1426 28.5625 14.3281 28.015C15.1707 27.6272 15.9899 27.1905 16.7815 26.707C17.5674 27.1866 18.3797 27.6213 19.2148 28.009Z" fill="currentColor"/>
<path fill-rule="evenodd" clip-rule="evenodd" d="M6.06464 15.9898C5.58126 16.7825 5.14381 17.6024 4.75444 18.4452C4.22433 17.6578 3.73268 16.8451 3.28125 16.01C3.73407 15.1682 4.22841 14.3494 4.76244 13.5566C5.15014 14.3916 5.58503 15.204 6.06464 15.9898Z" fill="currentColor"/>
<path d="M141.608 22.7098V24.043C141.375 24.1796 141.11 24.2506 140.841 24.2482C140.307 24.2609 139.784 24.0932 139.357 23.7722C138.93 23.4511 138.624 22.9956 138.488 22.479C137.771 23.2533 136.838 23.7957 135.811 24.0365C134.783 24.2773 133.707 24.2057 132.72 23.8307C131.734 23.4558 130.882 22.7946 130.273 21.932C129.665 21.0695 129.328 20.0449 129.306 18.9896C129.284 17.9344 129.578 16.8966 130.15 16.0095C130.722 15.1223 131.546 14.4262 132.516 14.0105C133.486 13.5947 134.558 13.4783 135.595 13.6761C136.632 13.8739 137.586 14.3769 138.335 15.1206V13.7874H139.92V21.3766C139.92 22.3252 140.406 22.7098 140.968 22.7098H141.608ZM138.335 18.9152C138.333 18.1773 138.112 17.4565 137.7 16.844C137.289 16.2314 136.705 15.7545 136.023 15.4735C135.341 15.1925 134.59 15.12 133.867 15.2652C133.143 15.4104 132.479 15.7668 131.958 16.2893C131.437 16.8118 131.082 17.477 130.939 18.2009C130.796 18.9247 130.871 19.6748 131.153 20.3564C131.436 21.038 131.915 21.6204 132.528 22.0302C133.142 22.4399 133.863 22.6586 134.601 22.6586C135.092 22.658 135.578 22.5606 136.032 22.3721C136.485 22.1837 136.897 21.9077 137.243 21.5601C137.59 21.2125 137.865 20.8 138.052 20.3462C138.239 19.8924 138.335 19.4061 138.335 18.9152ZM143.606 8.58222H145.272V24.2488H143.606V8.58222ZM126.95 18.8462C126.954 19.9066 126.646 20.9446 126.064 21.831C125.482 22.7174 124.653 23.4129 123.678 23.8308C122.708 24.2414 121.637 24.3522 120.604 24.1489C119.57 23.9456 118.621 23.4376 117.879 22.6902V24.041H116.29V8.24902H117.879V15.002C118.621 14.2546 119.57 13.7466 120.604 13.5433C121.637 13.34 122.708 13.4508 123.678 13.8614C124.653 14.2794 125.482 14.9749 126.064 15.8613C126.646 16.7478 126.954 17.7859 126.95 18.8462ZM125.362 18.8462C125.352 18.1084 125.124 17.39 124.707 16.7814C124.289 16.1727 123.702 15.701 123.017 15.4255C122.333 15.1501 121.582 15.0832 120.86 15.2332C120.137 15.3832 119.475 15.7435 118.957 16.2688C118.439 16.7941 118.087 17.4608 117.947 18.1853C117.807 18.9097 117.884 19.6594 118.168 20.3401C118.453 21.0209 118.933 21.6023 119.547 22.0112C120.161 22.4201 120.883 22.6382 121.62 22.6382C122.113 22.6393 122.602 22.5419 123.057 22.3518C123.511 22.1617 123.924 21.8827 124.269 21.5312C124.973 20.8153 125.366 19.8502 125.362 18.8462ZM102.633 18.9156C102.634 17.6833 103.062 16.4895 103.845 15.5376C104.628 14.5857 105.716 13.9346 106.925 13.6952C108.134 13.4557 109.388 13.6428 110.475 14.2245C111.561 14.8062 112.413 15.7465 112.883 16.8853C113.354 18.0242 113.416 19.291 113.058 20.4701C112.699 21.6493 111.943 22.6677 110.919 23.352C109.894 24.0363 108.663 24.3442 107.437 24.2231C106.21 24.102 105.064 23.5595 104.193 22.688C103.698 22.1925 103.305 21.6043 103.037 20.957C102.77 20.3098 102.632 19.6161 102.633 18.9156ZM111.704 18.9156C111.703 18.1758 111.483 17.4527 111.072 16.8378C110.661 16.2229 110.076 15.7437 109.392 15.4609C108.709 15.1781 107.957 15.1044 107.231 15.249C106.505 15.3936 105.839 15.7501 105.316 16.2734C104.793 16.7968 104.437 17.4634 104.293 18.189C104.149 18.9147 104.223 19.6668 104.506 20.3503C104.789 21.0337 105.269 21.6179 105.884 22.0289C106.499 22.4399 107.223 22.6592 107.962 22.6592C108.454 22.6591 108.94 22.5621 109.394 22.3739C109.848 22.1857 110.261 21.9099 110.608 21.5623C110.956 21.2146 111.231 20.802 111.419 20.3479C111.607 19.8938 111.704 19.4071 111.704 18.9156ZM94.6375 15.7302V16.1944C94.6643 20.2164 91.7645 23.6334 87.8645 24.1752C83.9645 24.717 80.2771 22.2156 79.2521 18.3324C78.2271 14.4492 80.1833 10.3918 83.8209 8.85622C85.5856 8.11752 87.5612 8.05795 89.3672 8.68898C91.1732 9.32002 92.6819 10.597 93.6025 12.274L92.2143 13.0736C91.5171 11.7892 90.3827 10.7971 89.0169 10.2772C87.651 9.7573 86.1441 9.74396 84.7693 10.2396C83.3889 10.7575 82.2327 11.7412 81.5006 13.021C80.7685 14.3007 80.5064 15.796 80.7597 17.2484C80.9776 18.703 81.7095 20.0314 82.8228 20.9927C83.936 21.954 85.3569 22.4845 86.8278 22.4881C88.2986 22.4916 89.722 21.968 90.8399 21.0121C91.9578 20.0562 92.6962 18.7314 92.9211 17.2778H86.8379V15.7302H94.6375ZM97.9687 8.58222H99.6343V24.2488H97.9687V8.58222ZM76.3159 8.58222V24.2488H72.9589V17.93H66.7065V24.2488H63.3241V8.58222H66.7065V14.875H72.9589V8.58202L76.3159 8.58222ZM61.9917 11.6372H58.1669V24.2488H54.8489V11.6372H50.9987V8.58222H61.9917V11.6372ZM44.0825 11.6112V14.9012H49.1465V17.93H44.0825V21.22H49.9993V24.2488H40.6719V8.58222H49.9993V11.611L44.0825 11.6112Z" fill="currentColor"/>
</g>
<defs>
<clipPath id="clip0_1560_372418">
<rect width="145" height="32" fill="white" transform="translate(0.671875)"/>
</clipPath>
</defs>
</svg>
